<svg width="788" height="1200" viewBox="0 0 788 1200" version="1.1" xmlns="http://www.w3.org/2000/svg" xmlns:xlink="http://www.w3.org/1999/xlink">
<g id="Canvas" fill="none">
<g id="Group 13">
<g id="Group 12">
<g id="Group 11.1">
<g id="Group 2.11">
<g id="Ellipse">
<ellipse cx="32.2658" cy="32.2493" rx="32.2658" ry="32.2493" transform="translate(447.223 0) scale(4)" fill="black"/>
</g>
<g id="a">
<path d="M 99.7957 166.916C 76.7192 187.283 56.0043 197.466 37.6511 197.466C 26.8551 197.466 17.8809 193.959 10.7285 186.946C 3.57618 179.797 0 170.895 0 160.239C 0 145.807 6.20771 132.858 18.6231 121.393C 31.0386 109.793 58.0961 94.4169 99.7957 75.2638L 99.7957 56.2455C 99.7957 41.9481 98.986 32.9785 97.3666 29.3367C 95.8821 25.56 92.9807 22.3229 88.6623 19.6252C 84.3439 16.7927 79.4857 15.3765 74.0877 15.3765C 65.3159 15.3765 58.0961 17.3323 52.4282 21.2438C 48.9195 23.6717 47.1651 26.5042 47.1651 29.7413C 47.1651 32.5738 49.0544 36.0808 52.833 40.2621C 57.9611 46.062 60.5252 51.6595 60.5252 57.0548C 60.5252 63.664 58.0286 69.329 53.0354 74.0499C 48.1772 78.6358 41.7671 80.9288 33.805 80.9288C 25.3032 80.9288 18.1508 78.366 12.3479 73.2406C 6.68004 68.1151 3.84608 62.1129 3.84608 55.2339C 3.84608 45.5224 7.69216 36.2831 15.3843 27.5158C 23.0765 18.6136 33.805 11.8021 47.57 7.08127C 61.3349 2.36042 75.6396 0 90.4841 0C 108.433 0 122.602 3.84412 132.993 11.5324C 143.52 19.0857 150.335 27.3135 153.438 36.2156C 155.328 41.8806 156.272 54.8967 156.272 75.2638L 156.272 148.707C 156.272 157.339 156.61 162.802 157.284 165.095C 157.959 167.253 158.971 168.871 160.321 169.95C 161.67 171.03 163.222 171.569 164.977 171.569C 168.485 171.569 172.062 169.074 175.705 164.083L 181.778 168.939C 175.03 178.92 168.013 186.204 160.726 190.79C 153.573 195.241 145.409 197.466 136.232 197.466C 125.436 197.466 117.002 194.971 110.929 189.98C 104.856 184.855 101.145 177.167 99.7957 166.916ZM 99.7957 152.146L 99.7957 88.8194C 83.4667 98.3959 71.3212 108.647 63.3591 119.572C 58.0961 126.856 55.4645 134.207 55.4645 141.625C 55.4645 147.83 57.6912 153.293 62.1446 158.013C 65.5183 161.655 70.2416 163.476 76.3144 163.476C 83.0619 163.476 90.889 159.699 99.7957 152.146Z" transform="translate(60.2324 387.585) scale(4)" fill="black"/>
</g>
<g id="Rectangle 4">
<path d="M 0 15.2999L 114.807 0L 114.807 128.719L 0 128.719L 0 15.2999Z" transform="translate(0 685.124) scale(4)" fill="white"/>
</g>
</g>
</g>
</g>
<g id="noun_412530">
<g id="Group">
<g id="Vector">
<path d="M 24.9403 0L 23.4893 1.72315C 22.5823 2.99284 0 31.2888 0 51.0597C 0 64.8449 11.1551 76 24.9403 76C 38.7255 76 49.8807 64.8449 49.8807 51.0597C 49.8807 31.2888 27.2983 2.90215 26.3914 1.72315L 24.9403 0Z" transform="matrix(3.10858 2.51728 -2.51728 3.10858 352 724)" fill="black"/>
</g>
</g>
</g>
</g>
</g>
</svg>

