<?xml version="1.0" encoding="UTF-8"?>
<svg width="87px" height="40px" viewBox="0 0 87 40" version="1.1" xmlns="http://www.w3.org/2000/svg" xmlns:xlink="http://www.w3.org/1999/xlink">
    <!-- Generator: Sketch 49.3 (51167) - http://www.bohemiancoding.com/sketch -->
    <title>Logo</title>
    <desc>Created with Sketch.</desc>
    <defs>
        <polygon id="path-1" points="0 0.0395 0 19.375 19.6505 19.375 19.6505 0.0395 3.38813179e-20 0.0395"></polygon>
        <polygon id="path-3" points="0 39.3815625 86.72 39.3815625 86.72 0.0003125 0 0.0003125"></polygon>
    </defs>
    <g id="Home-page" stroke="none" stroke-width="1" fill="none" fill-rule="evenodd">
        <g id="Homepage" transform="translate(-150.000000, -30.000000)">
            <g id="Hero" transform="translate(150.000000, -103.000000)">
                <g id="Header">
                    <g id="Logo" transform="translate(0.000000, 133.000000)">
                        <g id="Group-3" transform="translate(0.000000, 20.006562)">
                            <mask id="mask-2" fill="white">
                                <use xlink:href="#path-1"></use>
                            </mask>
                            <g id="Clip-2"></g>
                            <path d="M3.301125,9.707 C3.301125,10.677 3.45175,11.573875 3.753,12.400125 C4.05425,13.2245 4.493,13.94575 5.069875,14.561375 C5.6455,15.177 6.333625,15.66075 7.133,16.015125 C7.932375,16.36825 8.82925,16.54575 9.824875,16.54575 C10.8205,16.54575 11.718,16.36825 12.517375,16.015125 C13.316125,15.66075 14.00425,15.177 14.5805,14.561375 C15.15675,13.94575 15.5955,13.2245 15.89675,12.400125 C16.198,11.573875 16.348625,10.677 16.348625,9.707 C16.348625,8.73825 16.198,7.84075 15.89675,7.0145 C15.5955,6.1895 15.15675,5.4695 14.5805,4.85325 C14.00425,4.23825 13.316125,3.753875 12.517375,3.3995 C11.718,3.046375 10.8205,2.868875 9.824875,2.868875 C8.82925,2.868875 7.932375,3.046375 7.133,3.3995 C6.333625,3.753875 5.6455,4.23825 5.069875,4.85325 C4.493,5.4695 4.05425,6.1895 3.753,7.0145 C3.45175,7.84075 3.301125,8.73825 3.301125,9.707 M-0.000125,9.707 C-0.000125,8.266375 0.248625,6.956375 0.74675,5.777 C1.24425,4.59825 1.9255,3.58325 2.7905,2.731375 C3.654875,1.88075 4.689875,1.21825 5.894875,0.747 C7.099875,0.275125 8.4105,0.0395 9.824875,0.0395 C11.239875,0.0395 12.549875,0.275125 13.7555,0.747 C14.959875,1.21825 15.9955,1.88075 16.859875,2.731375 C17.72425,3.58325 18.4055,4.59825 18.903625,5.777 C19.401125,6.956375 19.6505,8.266375 19.6505,9.707 C19.6505,11.148875 19.401125,12.45825 18.903625,13.637 C18.4055,14.816375 17.72425,15.832 16.859875,16.68325 C15.9955,17.5345 14.959875,18.196375 13.7555,18.667625 C12.549875,19.1395 11.239875,19.375125 9.824875,19.375125 C8.4105,19.375125 7.099875,19.1395 5.894875,18.667625 C4.689875,18.196375 3.654875,17.5345 2.7905,16.68325 C1.9255,15.832 1.24425,14.816375 0.74675,13.637 C0.248625,12.45825 -0.000125,11.148875 -0.000125,9.707" id="Fill-1" fill="#FFFFFF" mask="url(#mask-2)"></path>
                        </g>
                        <path d="M23.5366875,24.8801875 C23.5366875,24.0420625 23.5104375,23.2558125 23.4579375,22.5226875 C23.4054375,21.7889375 23.3798125,21.1208125 23.3798125,20.5176875 L26.2879375,20.5176875 C26.2879375,21.0158125 26.3004375,21.5133125 26.3273125,22.0108125 C26.3529375,22.5089375 26.3660625,23.0195625 26.3660625,23.5433125 L26.4448125,23.5433125 C26.6541875,23.0983125 26.9491875,22.6664375 27.3291875,22.2464375 C27.7085625,21.8283125 28.1604375,21.4551875 28.6848125,21.1264375 C29.2085625,20.7995625 29.7985625,20.5376875 30.4535625,20.3408125 C31.1079375,20.1439375 31.8160625,20.0464375 32.5760625,20.0464375 C32.7848125,20.0464375 32.9948125,20.0595625 33.2048125,20.0851875 C33.4141875,20.1120625 33.6235625,20.1639375 33.8335625,20.2426875 L33.6366875,23.3476875 C33.1123125,23.1901875 32.5623125,23.1114375 31.9860625,23.1114375 C30.0998125,23.1114375 28.7304375,23.7208125 27.8791875,24.9389375 C27.0273125,26.1576875 26.6023125,27.8276875 26.6023125,29.9495625 L26.6023125,38.9101875 L23.5366875,38.9101875 L23.5366875,24.8801875 Z" id="Fill-4" fill="#FFFFFF"></path>
                        <mask id="mask-4" fill="white">
                            <use xlink:href="#path-3"></use>
                        </mask>
                        <g id="Clip-7"></g>
                        <polygon id="Fill-6" fill="#FFFFFF" mask="url(#mask-4)" points="36.724375 38.9103125 39.79 38.9103125 39.79 20.5171875 36.724375 20.5171875"></polygon>
                        <path d="M47.07675,29.7135625 C47.07675,30.6835625 47.227375,31.5804375 47.528625,32.4066875 C47.829875,33.2310625 48.268625,33.9523125 48.8455,34.5679375 C49.421125,35.1835625 50.10925,35.6673125 50.908625,36.0216875 C51.707375,36.3748125 52.604875,36.5523125 53.6005,36.5523125 C54.596125,36.5523125 55.493625,36.3748125 56.293,36.0216875 C57.09175,35.6673125 57.779875,35.1835625 58.356125,34.5679375 C58.932375,33.9523125 59.371125,33.2310625 59.672375,32.4066875 C59.973625,31.5804375 60.12425,30.6835625 60.12425,29.7135625 C60.12425,28.7448125 59.973625,27.8473125 59.672375,27.0210625 C59.371125,26.1960625 58.932375,25.4760625 58.356125,24.8598125 C57.779875,24.2448125 57.09175,23.7604375 56.293,23.4060625 C55.493625,23.0529375 54.596125,22.8754375 53.6005,22.8754375 C52.604875,22.8754375 51.707375,23.0529375 50.908625,23.4060625 C50.10925,23.7604375 49.421125,24.2448125 48.8455,24.8598125 C48.268625,25.4760625 47.829875,26.1960625 47.528625,27.0210625 C47.227375,27.8473125 47.07675,28.7448125 47.07675,29.7135625 M43.7755,29.7135625 C43.7755,28.2729375 44.02425,26.9629375 44.522375,25.7835625 C45.019875,24.6048125 45.701125,23.5898125 46.566125,22.7379375 C47.4305,21.8873125 48.4655,21.2248125 49.6705,20.7535625 C50.8755,20.2816875 52.186125,20.0460625 53.6005,20.0460625 C55.0155,20.0460625 56.3255,20.2816875 57.531125,20.7535625 C58.7355,21.2248125 59.771125,21.8873125 60.6355,22.7379375 C61.499875,23.5898125 62.181125,24.6048125 62.67925,25.7835625 C63.17675,26.9629375 63.4255,28.2729375 63.4255,29.7135625 C63.4255,31.1554375 63.17675,32.4648125 62.67925,33.6435625 C62.181125,34.8229375 61.499875,35.8385625 60.6355,36.6898125 C59.771125,37.5410625 58.7355,38.2029375 57.531125,38.6741875 C56.3255,39.1460625 55.0155,39.3816875 53.6005,39.3816875 C52.186125,39.3816875 50.8755,39.1460625 49.6705,38.6741875 C48.4655,38.2029375 47.4305,37.5410625 46.566125,36.6898125 C45.701125,35.8385625 45.019875,34.8229375 44.522375,33.6435625 C44.02425,32.4648125 43.7755,31.1554375 43.7755,29.7135625" id="Fill-8" fill="#FFFFFF" mask="url(#mask-4)"></path>
                        <path d="M67.3123125,24.8801875 C67.3123125,24.0420625 67.2860625,23.2558125 67.2335625,22.5226875 C67.1810625,21.7889375 67.1554375,21.1208125 67.1554375,20.5176875 L70.0629375,20.5176875 C70.0629375,21.0158125 70.0760625,21.5133125 70.1029375,22.0108125 C70.1285625,22.5089375 70.1416875,23.0195625 70.1416875,23.5433125 L70.2204375,23.5433125 C70.4298125,23.0983125 70.7248125,22.6664375 71.1048125,22.2464375 C71.4848125,21.8283125 71.9360625,21.4551875 72.4604375,21.1264375 C72.9841875,20.7995625 73.5741875,20.5376875 74.2291875,20.3408125 C74.8835625,20.1439375 75.5910625,20.0464375 76.3516875,20.0464375 C77.5566875,20.0464375 78.5979375,20.2301875 79.4754375,20.5964375 C80.3529375,20.9633125 81.0798125,21.4745625 81.6566875,22.1289375 C82.2329375,22.7839375 82.6591875,23.5770625 82.9341875,24.5064375 C83.2091875,25.4370625 83.3466875,26.4526875 83.3466875,27.5520625 L83.3466875,38.9101875 L80.2816875,38.9101875 L80.2816875,27.8664375 C80.2816875,26.3214375 79.9404375,25.1020625 79.2598125,24.2114375 C78.5773125,23.3214375 77.5166875,22.8751875 76.0760625,22.8751875 C75.0804375,22.8751875 74.2229375,23.0458125 73.5016875,23.3864375 C72.7810625,23.7270625 72.1916875,24.2114375 71.7335625,24.8408125 C71.2748125,25.4695625 70.9341875,26.2164375 70.7116875,27.0808125 C70.4885625,27.9451875 70.3773125,28.9026875 70.3773125,29.9495625 L70.3773125,38.9101875 L67.3123125,38.9101875 L67.3123125,24.8801875 Z" id="Fill-9" fill="#FFFFFF" mask="url(#mask-4)"></path>
                        <polygon id="Fill-10" fill="#FFFFFF" mask="url(#mask-4)" points="79.6335 -0.0001875 81.8235 4.4373125 86.720375 5.1485625 83.17725 8.6029375 84.0135 13.4791875 79.6335 11.1773125 75.2535 13.4791875 76.090375 8.6029375 72.546625 5.1485625 77.4435 4.4373125"></polygon>
                        <path d="M43.2248125,9.8295625 C42.8216875,9.4264375 40.8304375,10.7639375 38.7773125,12.8170625 C36.7241875,14.8701875 35.3860625,16.8620625 35.7891875,17.2645625 C36.1929375,17.6683125 38.1841875,16.3301875 40.2373125,14.2770625 C42.2904375,12.2239375 43.6279375,10.2333125 43.2248125,9.8295625" id="Fill-11" fill="#FFFFFF" mask="url(#mask-4)"></path>
                        <g id="Group-14" mask="url(#mask-4)">
                            <g transform="translate(35.000000, 16.256562)">
                                <path d="M0.44525,1.3525 L1.47775,0.320625" id="Fill-12" stroke="none" fill="#FFFFFF" fill-rule="evenodd"></path>
                                <path d="M0.44525,1.3525 L1.47775,0.320625" id="Stroke-13" stroke="#FFFFFF" stroke-width="0.5" fill="none"></path>
                            </g>
                        </g>
                        <path d="M38.391125,12.612125 C38.391125,11.470875 40.08425,10.547125 42.17675,10.547125" id="Stroke-15" stroke="#FFFFFF" stroke-width="0.5" mask="url(#mask-4)"></path>
                        <path d="M57.1310625,9.6940625 C57.1310625,13.4003125 55.2041875,16.3990625 52.8235625,16.3990625" id="Stroke-16" stroke="#FFFFFF" stroke-width="0.8" mask="url(#mask-4)"></path>
                        <path d="M62.669375,10.7255625 C62.669375,15.0018125 61.018125,18.4618125 58.9775,18.4618125" id="Stroke-17" stroke="#FFFFFF" stroke-width="0.8" mask="url(#mask-4)"></path>
                        <path d="M56.8185625,9.7440625 L62.9754375,10.7609375" id="Stroke-18" stroke="#FFFFFF" stroke-width="0.8" mask="url(#mask-4)"></path>
                        <path d="M52.9468125,16.4219375 L59.1005625,18.4850625" id="Stroke-19" stroke="#FFFFFF" stroke-width="0.8" mask="url(#mask-4)"></path>
                        <path d="M62.669375,10.7255625 C62.669375,15.0018125 61.84375,18.4618125 60.823125,18.4618125" id="Stroke-20" stroke="#FFFFFF" stroke-width="0.7" mask="url(#mask-4)"></path>
                        <path d="M62.669375,10.7255625 C62.669375,15.0018125 62.394375,18.4618125 62.054375,18.4618125" id="Stroke-21" stroke="#FFFFFF" stroke-width="0.7" mask="url(#mask-4)"></path>
                        <path d="M60.933875,18.47825 L60.0245,18.20325" id="Stroke-22" stroke="#FFFFFF" stroke-width="0.8" mask="url(#mask-4)"></path>
                        <path d="M62.1719375,18.477 L61.2625625,18.202625" id="Stroke-23" stroke="#FFFFFF" stroke-width="0.8" mask="url(#mask-4)"></path>
                    </g>
                </g>
            </g>
        </g>
    </g>
</svg>