<svg width="184" height="280" viewBox="0 0 184 280" version="1.1" xmlns="http://www.w3.org/2000/svg" xmlns:xlink="http://www.w3.org/1999/xlink">
<g id="Canvas" fill="none">
<g id="Group 13.1">
<g id="Group 12">
<g id="Group 11.1">
<g id="Group 2.11">
<g id="Ellipse">
<ellipse cx="7.5287" cy="7.52485" rx="7.5287" ry="7.52485" transform="translate(104.352 0) scale(4)" fill="#3F2A5E"/>
</g>
<g id="a">
<path d="M 23.2857 38.947C 17.9011 43.6993 13.0677 46.0755 8.78526 46.0755C 6.26619 46.0755 4.17221 45.2572 2.50333 43.6206C 0.834442 41.9526 0 39.8754 0 37.3891C 0 34.0216 1.44847 31.0002 4.3454 28.3251C 7.24233 25.6185 13.5557 22.0306 23.2857 17.5615L 23.2857 13.124C 23.2857 9.78789 23.0967 7.69498 22.7189 6.84523C 22.3725 5.964 21.6955 5.20867 20.6879 4.57922C 19.6802 3.9183 18.5467 3.58784 17.2871 3.58784C 15.2404 3.58784 13.5557 4.04419 12.2332 4.95689C 11.4145 5.52339 11.0052 6.18431 11.0052 6.93965C 11.0052 7.60056 11.446 8.41884 12.3277 9.39449C 13.5243 10.7478 14.1225 12.0539 14.1225 13.3128C 14.1225 14.8549 13.54 16.1768 12.3749 17.2783C 11.2414 18.3484 9.74566 18.8834 7.88784 18.8834C 5.90407 18.8834 4.23519 18.2854 2.88119 17.0895C 1.55867 15.8935 0.897419 14.493 0.897419 12.8879C 0.897419 10.6219 1.79484 8.46605 3.58968 6.42035C 5.38451 4.34318 7.88784 2.75383 11.0997 1.6523C 14.3115 0.550766 17.6492 0 21.113 0C 25.3009 0 28.6072 0.896961 31.0318 2.69088C 33.4879 4.45333 35.0781 6.37314 35.8023 8.45031C 36.2431 9.77215 36.4636 12.8092 36.4636 17.5615L 36.4636 34.6982C 36.4636 36.7125 36.5423 37.9871 36.6997 38.5221C 36.8572 39.0257 37.0933 39.4033 37.4082 39.6551C 37.7231 39.9069 38.0852 40.0328 38.4946 40.0328C 39.3132 40.0328 40.1477 39.4505 40.9979 38.2861L 42.4149 39.4191C 40.8404 41.748 39.203 43.4475 37.5027 44.5176C 35.8338 45.5562 33.9287 46.0755 31.7875 46.0755C 29.2684 46.0755 27.3004 45.4932 25.8835 44.3288C 24.4665 43.1328 23.6005 41.3389 23.2857 38.947ZM 23.2857 35.5008L 23.2857 20.7245C 19.4756 22.9591 16.6416 25.3509 14.7838 27.9002C 13.5557 29.5997 12.9417 31.3149 12.9417 33.0459C 12.9417 34.4937 13.4613 35.7683 14.5004 36.8698C 15.2876 37.7196 16.3897 38.1444 17.8067 38.1444C 19.3811 38.1444 21.2074 37.2632 23.2857 35.5008Z" transform="translate(14.0547 90.4365) scale(4)" fill="#3F2A5E"/>
</g>
<g id="Rectangle 4">
<path d="M 0 3.56999L 26.7883 0L 26.7883 30.0344L 0 30.0344L 0 3.56999Z" transform="translate(0 159.862) scale(4)" fill="white"/>
</g>
</g>
</g>
</g>
<g id="noun_412530">
<g id="Group">
<g id="Vector">
<path d="M 5.81941 0L 5.48083 0.402068C 5.26921 0.698329 0 7.30072 0 11.9139C 0 15.1305 2.60286 17.7333 5.81941 17.7333C 9.03596 17.7333 11.6388 15.1305 11.6388 11.9139C 11.6388 7.30072 6.36961 0.677168 6.15799 0.402068L 5.81941 0Z" transform="matrix(3.10858 2.51728 -2.51728 3.10858 82.1338 168.933)" fill="#3F2A5E"/>
</g>
</g>
</g>
</g>
</g>
</svg>

