<?xml version="1.0" encoding="UTF-8"?>
<svg width="240px" height="178px" viewBox="0 0 240 178" version="1.1" xmlns="http://www.w3.org/2000/svg" xmlns:xlink="http://www.w3.org/1999/xlink">
    <!-- Generator: Sketch 49.3 (51167) - http://www.bohemiancoding.com/sketch -->
    <title>Group</title>
    <desc>Created with Sketch.</desc>
    <defs></defs>
    <g id="Page-1" stroke="none" stroke-width="1" fill="none" fill-rule="evenodd">
        <g id="Group" fill="#FFFFFF">
            <g id="Group-3" transform="translate(0.000000, 20.000000)">
                <path d="M3,11 L9,11 C10.6568542,11 12,12.5506235 12,14.4634146 L12,149.536585 C12,151.449376 10.6568542,153 9,153 L3,153 C1.34314575,153 0,151.449376 1.48281067e-13,149.536585 L0,14.4634146 C0,12.5506235 1.34314575,11 3,11 Z" id="Rectangle-2-Copy-17"></path>
                <path d="M42,11 L48,11 C49.6568542,11 51,12.5506235 51,14.4634146 L51,149.536585 C51,151.449376 49.6568542,153 48,153 L42,153 C40.3431458,153 39,151.449376 39,149.536585 L39,14.4634146 C39,12.5506235 40.3431458,11 42,11 Z" id="Rectangle-2-Copy-16"></path>
                <path d="M21.75,0 L29.25,0 C31.3210678,0 33,1.93275982 33,4.31693989 L33,153.68306 C33,156.06724 31.3210678,158 29.25,158 L21.75,158 C19.6789322,158 18,156.06724 18,153.68306 L18,4.31693989 C18,1.93275982 19.6789322,0 21.75,0 Z" id="Rectangle-2-Copy-15"></path>
            </g>
            <g id="Group-17" transform="translate(62.000000, 0.000000)">
                <path d="M28.3207534,141.974191 C28.3207534,146.560674 27.9282975,150.415047 27.1433738,153.551646 C26.3584501,156.707208 25.3295791,159.287623 24.0567299,161.292823 C22.7838807,163.316792 21.3519468,164.836151 19.7608853,165.844729 C18.1698237,166.863791 16.5681792,167.452537 14.9559035,167.603123 L0,169 L0,74.1106557 L13.4921342,77.34601 C14.8922684,77.681756 16.3772368,78.3325819 17.9470842,79.2933357 C19.5169316,80.247194 20.9488655,81.679489 22.2429288,83.5835595 C23.5369922,85.4717958 24.6188978,87.9726452 25.4886781,91.0833224 C26.3584584,94.1743515 26.793342,98.0193399 26.793342,102.633139 C26.793342,107.732601 26.2523892,111.735804 25.1704674,114.661963 C24.0885456,117.61358 22.7626808,119.727661 21.1928335,120.997735 C22.0413996,121.726114 22.889953,122.532391 23.7385192,123.661497 C24.5870853,124.783681 25.3507834,126.198758 26.0296363,127.905415 C26.7084892,129.603339 27.2600489,131.630396 27.684332,133.987406 C28.1086151,136.336695 28.3207534,138.997 28.3207534,141.974191 Z M17.8197999,104.516518 C17.8197999,101.082389 17.3318817,98.5734525 16.3560306,96.9818257 C15.3801796,95.3797892 14.2346325,94.458345 12.9193549,94.2252729 L9.48267924,93.6162808 L9.48267924,113.439237 L12.9829971,113.80747 C14.213418,113.93691 15.3271443,113.293213 16.3242096,111.884807 C17.3212748,110.487663 17.8197999,108.034406 17.8197999,104.516518 Z M18.6471478,140.079356 C18.6471478,138.075364 18.488044,136.380924 18.1698317,134.993515 C17.8516194,133.602811 17.4273427,132.456432 16.8969889,131.554193 C16.366635,130.64846 15.7726476,129.96835 15.1150089,129.514917 C14.4573701,129.059421 13.8103481,128.814949 13.1739235,128.78304 L9.48267924,128.597969 L9.48267924,150.8826 L13.3012078,150.764959 C14.7861985,150.719209 16.0484218,149.795029 17.0879153,148.002662 C18.1274088,146.223993 18.6471478,143.586342 18.6471478,140.079356 Z M65.2473385,135.836566 C65.2473385,139.900433 64.9609517,143.690406 64.3881696,147.220347 C63.8153874,150.768619 62.9137994,153.900413 61.6833785,156.62408 C60.4529576,159.377087 58.8619199,161.623929 56.9102178,163.362876 C54.9585157,165.128767 52.6037799,166.162921 49.84594,166.445162 C47.0881,166.727403 44.7545781,166.137837 42.8453043,164.656678 C40.9360305,163.149162 39.3768136,160.971988 38.1676068,158.123234 C36.9584001,155.245647 36.0886328,151.818555 35.558279,147.85075 C35.0279251,143.865972 34.7627522,139.553201 34.7627522,134.925035 L34.7627522,82.4466103 L45.0091371,84.9036482 L45.0091371,133.651621 C45.0091371,135.908483 45.0833856,138.016214 45.2318846,139.97306 C45.3803837,141.927484 45.6455567,143.59738 46.0274114,144.981291 C46.4092662,146.360769 46.9183982,147.453083 47.5548228,148.258297 C48.1912475,149.059118 49.018587,149.442668 50.0368664,149.412256 C51.0551458,149.381843 51.8824854,148.955242 52.51891,148.135734 C53.1553346,147.320619 53.6644666,146.240252 54.0463214,144.894632 C54.4281761,143.553445 54.6933491,141.945907 54.8418482,140.070462 C54.9903472,138.197441 55.0645957,136.180761 55.0645957,134.018544 L55.0645957,87.3149028 L65.2473385,89.7566795 L65.2473385,135.836566 Z M104.783251,129.394669 C104.783251,133.912662 104.412009,137.997969 103.669514,141.673426 C102.927018,145.379168 101.792078,148.584148 100.264659,151.298816 C98.7372402,154.057573 96.7961742,156.272974 94.4414032,157.939725 C92.0866321,159.643415 89.2970128,160.659684 86.0724614,160.960856 L73.4076751,162.143743 L73.4076751,91.7134922 L86.0724614,94.7504521 C89.2970128,95.5236853 92.0866321,96.9483425 94.4414032,98.9967617 C96.7961742,101.008241 98.7372402,103.522399 100.264659,106.53359 C101.792078,109.500214 102.927018,112.899428 103.669514,116.741871 C104.412009,120.553798 104.783251,124.763726 104.783251,129.394669 Z M94.5368664,128.654299 C94.5368664,122.267505 93.7625614,117.346078 92.2139282,113.85015 C90.665295,110.301261 88.6605875,108.293005 86.1997457,107.865041 L83.7177022,107.43339 L83.7177022,147.933191 L86.1997457,147.864901 C88.6605875,147.797194 90.665295,146.082419 92.2139282,142.760244 C93.7625614,139.491029 94.5368664,134.802334 94.5368664,128.654299 Z M143.237248,132.173228 C143.237248,135.726042 142.866006,138.936668 142.12351,141.827917 C141.381015,144.74945 140.246075,147.284847 138.718656,149.444538 C137.191237,151.648316 135.250171,153.435426 132.8954,154.800558 C130.540629,156.20263 127.751009,157.068091 124.526458,157.369263 L111.861672,158.552151 L111.861672,100.934591 L124.526458,103.971551 C127.751009,104.744784 130.540629,106.018634 132.8954,107.765435 C135.250171,109.475296 137.191237,111.558145 138.718656,114.008326 C140.246075,116.413939 141.381015,119.137538 142.12351,122.189741 C142.866006,125.211427 143.237248,128.531594 143.237248,132.173228 Z M132.990863,131.432858 C132.990863,126.336992 132.216558,122.389778 130.667925,119.551378 C129.119291,116.660017 127.114584,114.98052 124.653742,114.552556 L122.171699,114.120905 L122.171699,146.875182 L124.653742,146.806892 C127.114584,146.739185 129.119291,145.353169 130.667925,142.688522 C132.216558,140.076835 132.990863,136.338225 132.990863,131.432858 Z M166.544414,139.255011 L166.544414,153.444798 L156.552598,154.378031 L156.552598,138.989158 L145.160654,108.91954 L156.170745,111.559711 L161.580327,129.845747 L161.707612,129.858718 L167.180836,114.199882 L178,116.79427 L166.544414,139.255011 Z" id="BUDDY"></path>
                <path d="M24.067637,32.3446279 C23.2076232,31.3646055 22.2083369,30.6327684 21.0698037,30.1467929 C19.9312367,29.6688595 18.7484604,29.4729457 17.5215237,29.552933 C16.2474835,29.6358616 15.107835,30.1009509 14.1026045,30.9402357 C13.097538,31.7687612 12.6056378,33.0600369 12.6267694,34.8221212 C12.6446499,36.3130785 13.177263,37.4698009 14.2245639,38.301233 C15.2717788,39.1445347 16.8148682,40.0832015 18.8538083,41.1291918 C19.9915892,41.7118877 21.1893721,42.4118087 22.4471521,43.2323066 C23.7048054,44.0657888 24.8581033,45.0920373 25.9070367,46.3131042 C26.9557724,47.5499071 27.8298582,49.0287557 28.5293203,50.7487245 C29.2285739,52.4831802 29.589068,54.5152431 29.6109731,56.8340474 C29.6381163,59.7072577 29.2384213,62.1790805 28.4121295,64.2322294 C27.5861677,66.2621634 26.4628316,67.8443119 25.0420773,68.9771422 C23.6216166,70.0847514 21.9744676,70.7851411 20.1004465,71.0851714 C18.2265139,71.3692352 16.2782752,71.2874343 14.2555083,70.852706 C11.2446199,70.2082027 8.49735957,69.0992594 6.01349804,67.5523782 C3.52917378,66.0437833 1.52464856,64.4957609 0,62.9021212 L5.68876464,56.1792636 C6.78524116,57.3478529 8.04371336,58.3474215 9.46422709,59.175647 C10.8846082,60.0169132 12.3244225,60.5486721 13.7837983,60.7615033 C15.1489966,60.9610464 16.2972746,60.6909926 17.2287689,59.9428078 C18.1603797,59.1836608 18.6173399,58.0019676 18.5995726,56.4059023 C18.5812827,54.762856 18.0015597,53.4071608 16.8602657,52.3497621 C15.718818,51.3069439 14.0583536,50.1833452 11.8787331,48.9915639 C10.5047733,48.2785361 9.21237268,47.5161142 8.00148978,46.7048033 C6.79052382,45.906142 5.71889067,44.9753649 4.78654979,43.9131169 C3.85412518,42.8643605 3.11964341,41.6637222 2.58309329,40.3086205 C2.04648061,38.9635811 1.76562043,37.3743007 1.74054978,35.5331493 C1.70693232,33.0642411 2.13770697,30.9124377 3.03304321,29.0598344 C3.92859658,27.1832946 5.11173661,25.587031 6.5825784,24.2703308 C8.05376649,22.9286949 9.69432303,21.8520252 11.5043024,21.0476924 C13.3146613,20.2281854 15.1406565,19.6910294 16.9822406,19.4471456 C19.7214806,19.0833003 22.1826191,19.2139786 24.3653172,19.8589655 C26.548016,20.529097 28.379646,21.6157497 29.8600505,23.1226461 L24.067637,32.3446279 Z M60.1602701,79.3213526 L60.0359177,52.5777666 L48.3698464,51.7356407 L48.5329664,76.7914974 L37.3234699,74.387644 L36.8593852,18.2876117 L48.1428009,16.8517232 L48.2910417,39.6290434 L59.975842,39.6561572 L59.8628325,15.3463089 L71.1674797,13.883443 L71.359452,81.7909578 L60.1602701,79.3213526 Z M117.661646,49.7716044 C117.628185,56.4529006 117.150021,62.5118368 116.22859,67.9167117 C115.309074,73.2793839 114.019266,77.7313332 112.359477,81.2633205 C110.702007,84.7406549 108.686428,87.241321 106.312164,88.77426 C103.939432,90.2644974 101.277578,90.641698 98.3250575,89.9391031 C95.3720724,89.238232 92.7123935,87.6484606 90.3449026,85.2017715 C87.9756191,82.7994668 85.9681938,79.7581676 84.3224266,76.0855914 C82.6747756,72.4676383 81.4008151,68.2703783 80.5008748,63.4840365 C79.5996018,58.7393146 79.1441898,53.5873348 79.1356115,47.9967144 C79.1270332,42.4060301 79.5565146,37.3273878 80.4250401,32.7308145 C81.2948775,28.0943926 82.5576033,24.0651995 84.2137146,20.6329119 C85.8718094,17.147085 87.8999069,14.3272022 90.2980184,12.1815257 C92.6981418,9.99331707 95.4201202,8.66991704 98.4631445,8.24296535 C101.459482,7.82238361 104.156626,8.43581418 106.553112,10.1153838 C108.948353,11.8375934 110.970511,14.4920778 112.619027,18.0876626 C114.265372,21.7377071 115.526205,26.251406 116.401851,31.619467 C117.275647,37.0295284 117.695107,43.0906139 117.661646,49.7716044 Z M106.043669,49.224655 C106.054088,45.7474037 105.898293,42.5131781 105.576009,39.5285031 C105.253365,36.5527027 104.775372,33.9839357 104.141916,31.82487 C103.507974,29.6783273 102.718379,28.0174697 101.773192,26.8407684 C100.827643,25.6746017 99.7146253,25.1356813 98.4344535,25.216111 C97.1543883,25.2965585 96.0277448,25.9629621 95.0547568,27.2072849 C94.0822266,28.4408875 93.2755619,30.1020138 92.6347563,32.18945 C91.9944232,34.2644922 91.519935,36.6961793 91.2111481,39.4877834 C90.9026563,42.271264 90.7478767,45.2799372 90.7465842,48.5199896 C90.7452917,51.7600475 90.8973355,54.8003203 91.2025002,57.6470855 C91.5073704,60.5021088 91.976979,62.994798 92.611224,65.1283887 C93.2450145,67.2744639 94.0433812,69.0274011 95.0063745,70.3862904 C95.9689395,71.7563985 97.0847432,72.5451802 98.3541187,72.7444152 C99.6234599,72.943884 100.729527,72.4902395 101.672686,71.3752491 C102.61626,70.2495253 103.408486,68.6437271 104.049449,66.5565257 C104.690915,64.4568723 105.18097,61.9143415 105.519523,58.9315169 C105.858444,55.9397833 106.03325,52.7019555 106.043669,49.224655 Z M166.929411,103.893443 L155.014792,101.059113 L149.602613,35.1845411 L142.740845,98.158088 L130.809235,95.3585147 L121.96039,7.24722252 L133.615298,5.72490462 L138.282275,69.1012722 L138.564698,69.135772 L144.638975,4.29015897 L155.746575,2.85169906 L160.591602,71.8503363 L160.803378,71.8766553 L166.866828,1.42095476 L178,0 L166.929411,103.893443 Z" id="SHOW"></path>
            </g>
        </g>
    </g>
</svg>