<svg width="1036" height="376" viewBox="0 0 1036 376" version="1.1" xmlns="http://www.w3.org/2000/svg" xmlns:xlink="http://www.w3.org/1999/xlink">
<g id="Canvas" fill="none">
<g id="Group 26.5">
<g id="Group 24">
<g id="Group 2 Copy 2.1">
<g id="Group 6 Copy 4">
<g id="Group 5">
<g id="Path 2">
<path fill-rule="evenodd" clip-rule="evenodd" d="M 6.74711 0C 6.74711 0 5.62577 3.14734 5.26443 4.47617C 4.39429 7.67608 5.26443 8.24134 5.26443 8.62262C 5.26443 9.43205 5.26443 14.1029 5.26443 14.1029C 5.26443 14.1029 8.93725 20.0614 9.71689 21.7721C 11.0533 24.7045 11.5527 23.2739 13.153 25.0744C 15.0639 27.2243 13.3961 31.3965 10.1849 38.0471C 9.13813 40.215 11.403 43.8979 11.403 43.8979C 11.403 43.8979 6.66185 42.884 7.29444 39.9066C 7.92703 36.9292 7.29444 34.1363 7.29444 34.1363C 7.29444 34.1363 6.7645 31.2879 6.07579 28.1295C 5.38708 24.9712 1.52259 21.7721 1.52259 21.7721C 1.52259 21.7721 0 17.1639 0 14.1029C 0 11.0419 1.52259 4.39858 1.52259 4.39858C 1.52259 4.39858 3.25099 2.09658 4.3851 1.05039C 5.51922 0.00420075 6.74711 0 6.74711 0Z" transform="matrix(2.55479 3.06961 -3.05869 2.58756 110.848 38.5664)" fill="white"/>
</g>
<g id="Path 4">
<path fill-rule="evenodd" clip-rule="evenodd" d="M 2.03567 17.0447C 2.03567 17.0447 2.34094 11.0784 2.03567 8.52236C 1.7304 5.96632 0 0 0 0C 0 0 1.32193 2.78139 2.03567 4.79003C 2.74941 6.79867 3.02829 8.52236 3.02829 8.52236C 3.02829 8.52236 3.14918 11.4322 3.02829 12.4702C 2.90739 13.5082 2.03567 17.0447 2.03567 17.0447Z" transform="matrix(2.55516 3.0693 -3.059 2.58719 53.9453 120.006)" fill="#1F2C11"/>
</g>
<g id="Path 6">
<path fill-rule="evenodd" clip-rule="evenodd" d="M 0.127546 0.420597C -0.368991 -1.70515 0.709234 4.85862 1.22196 6.03856C 1.37601 6.39309 1.67796 7.25998 1.85012 7.57624C 2.3299 8.45757 3.36155 9.24286 3.36155 9.24286L 6.00487 10.2443C 6.00487 10.2443 4.25521 9.47592 3.36155 8.05883C 2.54661 6.76657 1.00827 4.1911 0.127546 0.420597Z" transform="matrix(2.22304 3.32179 -3.31045 2.25054 76.0508 74.834)" fill="#253C0C"/>
</g>
<g id="Path 3">
<path fill-rule="evenodd" clip-rule="evenodd" d="M 7.8984 26.8691C 8.23906 24.4988 8.08163 21.293 6.96444 18.0495C 6.59365 16.973 6.08627 17.2294 5.14071 15.2692C 4.56143 14.0684 3.02035 11.6749 3.02035 11.6749C 3.02035 11.6749 1.31599 9.16288 0.709986 7.20639C 0.103976 5.2499 0 0 0 0C 0 0 1.17606 6.07474 2.18415 8.34588C 3.19224 10.617 4.30661 11.6749 4.30661 11.6749C 4.30661 11.6749 5.71844 12.8916 6.33568 14.231C 6.95291 15.5705 7.8984 16.6785 7.8984 16.6785C 7.8984 16.6785 8.98767 18.7308 9.06182 19.8422C 9.46646 25.9083 7.91137 28.6512 7.53464 28.1832C 7.40718 28.0249 7.75091 27.8953 7.8984 26.8691Z" transform="matrix(2.55518 3.06928 -3.05902 2.58717 91.6445 66.916)" fill="#384B21"/>
</g>
</g>
<g id="Group 5 Copy">
<g id="Path 2_2">
<path fill-rule="evenodd" clip-rule="evenodd" d="M 3.80153 0C 3.80153 0 3.16973 2.36143 2.96614 3.35844C 2.47588 5.75931 2.96614 6.18342 2.96614 6.46949C 2.96614 7.0768 2.96614 10.5813 2.96614 10.5813C 2.96614 10.5813 5.03552 15.0519 5.4748 16.3354C 6.22777 18.5356 6.24549 21.0954 7.14712 22.4462C 8.22378 24.0593 7.28408 27.1897 5.4748 32.1796C 4.88503 33.8062 3.81894 37.7686 3.81894 37.7686C 3.81894 37.7686 3.48982 35.8087 3.84624 33.5748C 4.20266 31.3408 3.84624 29.2454 3.84624 29.2454C 3.84624 29.2454 3.81133 23.4751 3.42329 21.1054C 3.03525 18.7357 0.857873 16.3354 0.857873 16.3354C 0.857873 16.3354 0 12.878 0 10.5813C 0 8.28469 0.857873 3.30023 0.857873 3.30023C 0.857873 3.30023 1.83171 1.57305 2.4707 0.788101C 3.1097 0.00315184 3.80153 0 3.80153 0Z" transform="matrix(-1.16111 -3.82777 -3.82263 1.17791 229.77 17.4082)" fill="white"/>
</g>
<g id="Path 4_2">
<path fill-rule="evenodd" clip-rule="evenodd" d="M 1.00222 12.8414C 1.00222 12.8414 1.15252 8.34643 1.00222 6.42072C 0.851928 4.49501 0 0 0 0C 0 0 0.650826 2.09549 1.00222 3.60879C 1.35362 5.12209 1.49092 6.42072 1.49092 6.42072C 1.49092 6.42072 1.55044 8.61299 1.49092 9.39502C 1.4314 10.177 1.00222 12.8414 1.00222 12.8414Z" transform="matrix(-1.16107 -3.82778 -3.82262 1.17796 156.359 24.1445)" fill="#1F2C11"/>
</g>
<g id="Path 6_2">
<path fill-rule="evenodd" clip-rule="evenodd" d="M 0.0645962 0.310156C -0.186877 -1.25741 0.359195 3.58284 0.618865 4.45295C 0.696886 4.71439 0.849812 5.35365 0.937004 5.58686C 1.17999 6.23678 1.70247 6.81586 1.70247 6.81586L 3.0412 7.55434C 3.0412 7.55434 2.15507 6.98772 1.70247 5.94274C 1.28974 4.9898 0.510643 3.0906 0.0645962 0.310156Z" transform="matrix(-1.55175 -3.68478 -3.67923 1.57417 191.402 24.3633)" fill="#253C0C"/>
</g>
<g id="Path 3_2">
<path fill-rule="evenodd" clip-rule="evenodd" d="M 4.61247 21.6473C 4.80912 19.887 4.71824 17.5063 4.07333 15.0976C 3.85929 14.2981 3.51337 12.7951 2.96754 11.3394C 2.63314 10.4476 1.74354 8.67015 1.74354 8.67015C 1.74354 8.67015 0.759674 6.80464 0.409848 5.35169C 0.0600215 3.89874 0 0 0 0C 0 0 0.678893 4.5113 1.26083 6.19792C 1.84276 7.88453 2.48604 8.67015 2.48604 8.67015C 2.48604 8.67015 3.30104 9.57374 3.65735 10.5684C 4.01365 11.5631 4.61247 14.0794 4.61247 14.0794C 4.61247 14.0794 5.24127 15.6035 5.28407 16.4289C 5.51765 20.9338 4.61996 22.9708 4.40249 22.6232C 4.32891 22.5056 4.52733 22.4094 4.61247 21.6473Z" transform="matrix(-1.16102 -3.8278 -3.8226 1.17801 204.898 18.7109)" fill="#384B21"/>
</g>
</g>
<g id="Group 5 Copy 2">
<g id="Path 2_3">
<path fill-rule="evenodd" clip-rule="evenodd" d="M 6.75337 0C 6.75337 0 5.63098 3.14443 5.26931 4.47203C 4.39837 7.66899 5.26931 8.23372 5.26931 8.61465C 5.26931 9.42332 5.26931 14.0899 5.26931 14.0899C 5.26931 14.0899 8.94553 20.0428 9.7259 21.7519C 11.0635 24.6816 11.095 28.0902 12.6968 29.8889C 14.6094 32.0369 12.9401 36.2053 9.7259 42.8497C 8.67819 45.0156 6.78428 50.2919 6.78428 50.2919C 6.78428 50.2919 6.19961 47.6821 6.83279 44.7075C 7.46597 41.7328 6.83279 38.9425 6.83279 38.9425C 6.83279 38.9425 6.77077 31.259 6.08142 28.1035C 5.39207 24.9481 1.524 21.7519 1.524 21.7519C 1.524 21.7519 0 17.1481 0 14.0899C 0 11.0317 1.524 4.39452 1.524 4.39452C 1.524 4.39452 3.254 2.09464 4.38917 1.04942C 5.52433 0.00419687 6.75337 0 6.75337 0Z" transform="matrix(1.5518 3.68474 3.67926 -1.57412 80.2617 89.1035)" fill="white"/>
</g>
<g id="Path 4_3">
<path fill-rule="evenodd" clip-rule="evenodd" d="M 2.03754 17.0287C 2.03754 17.0287 2.34309 11.068 2.03754 8.51436C 1.73199 5.96072 0 0 0 0C 0 0 1.32314 2.77878 2.03754 4.78553C 2.75193 6.79229 3.03107 8.51436 3.03107 8.51436C 3.03107 8.51436 3.15208 11.4215 3.03107 12.4585C 2.91006 13.4955 2.03754 17.0287 2.03754 17.0287Z" transform="matrix(1.55177 3.68475 3.67925 -1.57414 178.082 74.9629)" fill="#1F2C11"/>
</g>
<g id="Path 6_3">
<path fill-rule="evenodd" clip-rule="evenodd" d="M 0.127663 0.420217C -0.369331 -1.70361 0.709886 4.85423 1.22308 6.0331C 1.37727 6.38731 1.67951 7.25342 1.85183 7.56939C 2.33205 8.44994 3.36464 9.23451 3.36464 9.23451L 6.01039 10.235C 6.01039 10.235 4.25912 9.46736 3.36464 8.05155C 2.54895 6.76046 1.0092 4.18731 0.127663 0.420217Z" transform="matrix(1.92556 3.50131 3.4956 -1.95299 128.125 74.2988)" fill="#253C0C"/>
</g>
<g id="Path 3_3">
<path fill-rule="evenodd" clip-rule="evenodd" d="M 7.99756 29.1221C 8.33853 26.754 8.18096 23.5512 7.06275 20.3108C 6.69161 19.2353 6.09183 17.2132 5.14541 15.2549C 4.5656 14.0552 3.02312 11.6639 3.02312 11.6639C 3.02312 11.6639 1.3172 9.15427 0.710635 7.19962C 0.104071 5.24497 0 0 0 0C 0 0 1.17713 6.06904 2.18615 8.33804C 3.19516 10.607 4.31055 11.6639 4.31055 11.6639C 4.31055 11.6639 5.72367 12.8795 6.34147 14.2177C 6.95927 15.5558 7.99756 18.941 7.99756 18.941C 7.99756 18.941 9.08783 20.9914 9.16204 22.1018C 9.56705 28.1622 8.01054 30.9025 7.63347 30.435C 7.5059 30.2768 7.84993 30.1473 7.99756 29.1221Z" transform="matrix(1.55179 3.68475 3.67925 -1.57412 114.039 84.7246)" fill="#384B21"/>
</g>
</g>
</g>
<g id="Dragonwell">
<path d="M 7.39781 2.89005L 16.4337 2.4619C 23.2327 2.4619 28.2702 4.03181 31.5464 7.17162C 34.8226 10.3114 36.4606 14.4324 36.4606 19.5346C 36.4606 24.6012 34.6464 28.9719 31.018 32.6469C 27.4247 36.2863 23.1094 38.1059 18.0718 38.1059C 17.9661 38.1059 16.5218 38.0346 13.7388 37.8918C 10.9558 37.7848 8.73646 37.7313 7.08076 37.7313L 1.5324 37.9989C 0.510801 37.9989 0 37.8026 0 37.4102C 0 36.982 0.616484 36.6609 1.84945 36.4468C 3.11765 36.1971 3.99834 35.7867 4.49153 35.2159C 5.01994 34.645 5.28415 33.7173 5.28415 32.4328L 5.28415 8.34905C 5.28415 7.10026 5.01994 6.20827 4.49153 5.67307C 3.99834 5.1022 3.11765 4.70972 1.84945 4.49564C 0.616484 4.24588 0 3.87125 0 3.37173C 0 2.97925 0.510801 2.78302 1.5324 2.78302L 7.02792 2.89005L 7.39781 2.89005ZM 9.51147 31.2554C 9.51147 33.3605 10.3393 34.7342 11.995 35.3764C 13.4746 35.9473 15.2888 36.2327 17.4377 36.2327C 21.5593 36.2327 24.9236 34.752 27.5304 31.7906C 30.1373 28.8292 31.4407 24.9579 31.4407 20.1769C 31.4407 15.3958 29.9435 11.5245 26.9492 8.56313C 23.99 5.60171 20.573 4.121 16.6979 4.121C 13.3513 4.121 11.3433 4.37076 10.674 4.87028C 9.89898 5.40547 9.51147 6.24395 9.51147 7.3857L 9.51147 31.2554Z" transform="translate(96.1094 140.438) scale(4)" fill="white"/>
<path d="M 45.1745 37.6242L 40.8944 37.8918C 40.1898 37.8918 39.8375 37.7313 39.8375 37.4102C 39.8375 37.0534 40.1546 36.7679 40.7887 36.5538C 41.4228 36.3398 41.8455 36.1971 42.0569 36.1257C 42.2683 36.0187 42.4796 35.8224 42.691 35.537C 42.9376 35.2515 43.0609 34.8769 43.0609 34.4131L 43.0609 22.9064C 43.0609 20.6585 42.3387 19.3741 40.8944 19.053C 40.6126 18.9816 40.4716 18.7675 40.4716 18.4107C 40.4716 18.0182 40.5949 17.7863 40.8415 17.715C 42.1802 17.4295 43.1666 17.0727 43.8007 16.6446C 44.9984 15.8596 45.791 15.3601 46.1785 15.146C 46.566 14.8963 46.7598 14.7714 46.7598 14.7714C 46.7598 14.7357 46.795 14.7179 46.8655 14.7179C 46.9711 14.7179 47.0592 14.8428 47.1297 15.0925C 47.1297 16.0559 47.0944 16.9835 47.024 17.8755C 46.9888 18.7675 46.9888 19.2135 47.024 19.2135C 47.0944 19.2135 47.2001 19.1243 47.341 18.9459C 47.8342 18.3394 48.1513 17.9826 48.2922 17.8755C 49.9831 16.3413 51.6036 15.5742 53.1536 15.5742C 53.8934 15.5742 54.4923 15.7347 54.9502 16.0559C 55.4434 16.377 55.69 16.8051 55.69 17.3403C 55.69 17.8755 55.461 18.4642 55.0031 19.1065C 54.5803 19.7487 54.1752 20.0698 53.7877 20.0698C 53.4002 20.0698 52.8366 19.9093 52.0968 19.5882C 51.357 19.267 50.811 19.1065 50.4587 19.1065C 49.4371 19.1065 48.5564 19.4454 47.8166 20.1233C 47.1121 20.8013 46.7598 21.9609 46.7598 23.6021L 46.7598 34.1455C 46.795 35.1088 47.7462 35.8759 49.6132 36.4468C 50.4235 36.7322 50.8286 37.0534 50.8286 37.4102C 50.8286 37.7313 50.4763 37.8918 49.7718 37.8918L 45.1745 37.6242Z" transform="translate(96.1094 140.438) scale(4)" fill="white"/>
<path d="M 62.0302 33.0751C 62.0302 34.0028 62.312 34.7342 62.8756 35.2694C 63.4393 35.7689 64.1262 36.0187 64.9364 36.0187C 65.7467 36.0187 66.6978 35.537 67.7899 34.5736C 68.1774 34.2525 68.3887 33.5389 68.424 32.4328L 68.5297 29.8104C 68.5649 29.0611 68.4064 28.6865 68.0541 28.6865C 67.8075 28.6865 67.5609 28.74 67.3143 28.847C 63.7915 30.0601 62.0302 31.4695 62.0302 33.0751ZM 62.083 20.9261L 62.1358 21.6754C 62.1358 21.9965 61.625 22.389 60.6034 22.8528C 59.6171 23.3167 58.9477 23.5486 58.5955 23.5486C 58.2432 23.5486 58.067 23.388 58.067 23.0669C 58.067 21.8538 58.6659 20.7121 59.8637 19.6417C 61.0966 18.5356 62.4529 17.5901 63.9324 16.8051C 65.412 15.9845 66.7683 15.5742 68.0012 15.5742C 69.2694 15.5742 70.3263 16.038 71.1717 16.9657C 72.0172 17.8934 72.4223 19.0173 72.3871 20.3374L 72.1229 31.8976L 72.1229 32.2188C 72.1229 34.752 72.757 36.0187 74.0252 36.0187C 74.9059 36.0187 75.6104 35.7689 76.1388 35.2694C 76.2797 35.1267 76.4559 35.1267 76.6673 35.2694C 76.8786 35.3764 76.9843 35.537 76.9843 35.7511L 76.9843 35.8046C 76.7729 36.2684 76.2269 36.8393 75.3462 37.5172C 74.4655 38.1594 73.5848 38.4806 72.7041 38.4806C 71.8587 38.4806 71.1365 38.2486 70.5376 37.7848C 69.974 37.321 69.5689 36.8571 69.3223 36.3933C 69.0757 35.9295 68.9172 35.6975 68.8467 35.6975C 68.7058 35.6975 68.3888 35.9295 67.8956 36.3933C 67.4024 36.8571 66.6626 37.321 65.6762 37.7848C 64.7251 38.2486 63.6506 38.4806 62.4529 38.4806C 61.2904 38.4806 60.2159 38.0346 59.2296 37.1426C 58.2784 36.2506 57.8028 35.2872 57.8028 34.2525C 57.8028 32.1117 59.0886 30.5061 61.6603 29.4358L 67.0501 27.1879C 67.7194 26.9025 68.1245 26.6527 68.2655 26.4387C 68.4064 26.2246 68.4944 25.7607 68.5297 25.0471L 68.6353 21.7289L 68.6353 21.6219C 68.6353 20.6942 68.3359 19.8914 67.737 19.2135C 67.1734 18.5356 66.5041 18.1966 65.7291 18.1966C 64.9893 18.1966 64.2847 18.3929 63.6154 18.7854C 62.9461 19.1422 62.5233 19.4811 62.3472 19.8022C 62.1711 20.1233 62.083 20.498 62.083 20.9261Z" transform="translate(96.1094 140.438) scale(4)" fill="white"/>
<path d="M 81.392 44.9029C 81.392 46.7226 81.9909 48.2033 83.1886 49.345C 84.4216 50.5225 86.0773 51.1112 88.1557 51.1112C 90.2342 51.1112 92.0484 50.3976 93.5984 48.9704C 95.1484 47.5432 95.9234 45.7414 95.9234 43.5649C 95.9234 42.6729 95.4831 41.9236 94.6024 41.3171C 93.7569 40.7105 92.7353 40.2824 91.5376 40.0326C 90.3399 39.8185 88.6665 39.658 86.5177 39.5509L 85.3023 39.5509C 84.8796 39.8364 83.9989 40.657 82.6602 42.0128C 81.8148 43.0119 81.392 43.9752 81.392 44.9029ZM 92.6473 23.6556C 92.6473 21.9073 92.1717 20.3731 91.2205 19.053C 90.2694 17.7328 89.0893 17.0727 87.6802 17.0727C 86.2711 17.0727 85.1438 17.7506 84.2983 19.1065C 83.4528 20.4266 83.0301 21.8895 83.0301 23.4951C 83.0301 25.1007 83.4881 26.6171 84.404 28.0442C 85.3551 29.4714 86.5176 30.185 87.8915 30.185C 89.2654 30.185 90.3927 29.5249 91.2734 28.2048C 92.1893 26.8847 92.6473 25.3683 92.6473 23.6556ZM 96.7689 17.1263L 98.4598 17.0727C 98.8826 17.0727 99.2525 17.0906 99.5695 17.1263C 99.8866 17.1619 100.045 17.5009 100.045 18.1431C 100.045 18.7497 99.8866 19.053 99.5695 19.053C 98.2661 19.053 97.5263 19.0886 97.3502 19.16C 97.174 19.2314 97.0331 19.3027 96.9274 19.3741C 96.8217 19.4098 96.6985 19.4454 96.5575 19.4811C 96.4166 19.8736 96.3462 20.6942 96.3462 21.943C 96.3462 24.619 95.5007 26.9739 93.8098 29.0076C 92.1189 31.0413 90.0052 32.0582 87.4688 32.0582C 86.3415 32.0582 85.3904 31.8441 84.6154 31.416C 83.0653 32.6291 82.2903 33.5032 82.2903 34.0384C 82.2903 35.1802 83.9813 35.9116 87.3631 36.2327C 91.9427 36.6609 94.62 37.0534 95.395 37.4102C 96.2053 37.767 96.9274 38.1416 97.5615 38.5341C 98.6184 39.212 99.1468 40.3181 99.1468 41.8523C 99.1468 44.7067 97.861 47.3113 95.2893 49.6661C 92.7529 52.0567 90.1285 53.2519 87.416 53.2519C 84.7387 53.2519 82.4312 52.7703 80.4937 51.8069C 78.5914 50.8436 77.6403 49.2915 77.6403 47.1507C 77.6403 46.0446 77.9045 45.0813 78.4329 44.2607C 78.9965 43.4757 79.9125 42.6729 81.1807 41.8523C 82.4841 41.0316 83.4 40.211 83.9284 39.3904C 82.7307 39.1406 81.6386 38.6768 80.6523 37.9989C 79.6659 37.3566 79.1727 36.4825 79.1727 35.3764C 79.1727 34.6985 79.5778 34.0384 80.388 33.3962C 80.5994 33.2535 80.9341 33.0394 81.392 32.754C 82.3432 32.1831 83.0477 31.5765 83.5057 30.9343C 83.0125 30.8273 82.3432 30.3634 81.4977 29.5428C 79.7716 27.9015 78.9085 25.9213 78.9085 23.6021C 78.9085 21.2829 79.8596 19.3562 81.7619 17.822C 83.6642 16.2521 85.8483 15.4671 88.3143 15.4671C 89.195 15.4671 90.2342 15.6634 91.4319 16.0559C 93.6513 16.7695 95.4303 17.1263 96.7689 17.1263Z" transform="translate(96.1094 140.438) scale(4)" fill="white"/>
<path d="M 112.546 17.2333C 108.318 17.2333 106.205 20.3196 106.205 26.4922C 106.205 29.2395 106.909 31.6657 108.318 33.7708C 109.728 35.8403 111.454 36.875 113.497 36.875C 116.139 36.875 117.953 35.8938 118.94 33.9314C 119.644 32.5399 119.996 30.4705 119.996 27.7231C 119.996 24.9758 119.292 22.5496 117.883 20.4445C 116.474 18.3037 114.695 17.2333 112.546 17.2333ZM 101.872 27.7766C 101.872 24.6725 102.999 21.8717 105.254 19.3741C 107.543 16.8408 110.238 15.5742 113.338 15.5742C 116.438 15.5742 119.045 16.6446 121.159 18.7854C 123.273 20.8905 124.329 23.5129 124.329 26.6527C 124.329 29.7925 123.273 32.5577 121.159 34.9483C 119.081 37.3031 116.157 38.4806 112.387 38.4806C 109.393 38.4806 106.892 37.4637 104.884 35.4299C 102.876 33.3962 101.872 30.8451 101.872 27.7766Z" transform="translate(96.1094 140.438) scale(4)" fill="white"/>
<path d="M 147.586 37.6242L 143.253 37.8918C 142.548 37.8918 142.196 37.7313 142.196 37.4102C 142.196 37.0534 142.601 36.7322 143.411 36.4468C 143.447 36.4468 143.517 36.429 143.623 36.3933C 144.785 36.0365 145.455 35.5548 145.631 34.9483C 145.666 34.7699 145.684 34.5915 145.684 34.4131L 145.684 23.174C 145.684 21.6397 145.243 20.4266 144.363 19.5346C 143.482 18.6426 142.178 18.1966 140.452 18.1966C 138.761 18.1966 137.37 18.5713 136.278 19.3206C 135.186 20.0698 134.64 21.4257 134.64 23.388L 134.64 34.4131C 134.64 35.1267 134.851 35.5905 135.274 35.8046C 135.732 36.0187 136.313 36.2506 137.018 36.5003C 137.757 36.7501 138.127 37.0534 138.127 37.4102C 138.127 37.7313 137.775 37.8918 137.07 37.8918L 132.79 37.6242L 128.51 37.8918C 127.806 37.8918 127.453 37.7313 127.453 37.4102C 127.453 37.0534 127.735 36.7858 128.299 36.6074C 128.898 36.3933 129.232 36.2863 129.303 36.2863C 129.408 36.2506 129.602 36.1614 129.884 36.0187C 130.166 35.8759 130.342 35.7511 130.412 35.644C 130.765 35.2515 130.941 34.8412 130.941 34.4131L 130.941 22.9064C 130.941 20.6229 130.219 19.3384 128.774 19.053C 128.493 18.9816 128.352 18.7497 128.352 18.3572C 128.352 17.9647 128.475 17.7506 128.722 17.715C 130.553 17.2868 132.491 16.3056 134.534 14.7714C 134.569 14.7357 134.622 14.7179 134.693 14.7179C 134.798 14.7179 134.904 14.8784 135.01 15.1995L 134.64 18.6783C 134.64 18.9281 134.657 19.0708 134.693 19.1065C 135.679 18.2858 137 17.5009 138.656 16.7516C 140.347 15.9667 141.985 15.5742 143.57 15.5742C 145.155 15.5742 146.511 16.2878 147.639 17.715C 148.801 19.1422 149.383 20.9083 149.383 23.0134L 149.383 34.4131C 149.383 35.1267 149.594 35.5905 150.017 35.8046C 150.475 36.0187 151.056 36.2506 151.76 36.5003C 152.5 36.7501 152.87 37.0534 152.87 37.4102C 152.87 37.7313 152.518 37.8918 151.813 37.8918L 147.586 37.6242Z" transform="translate(96.1094 140.438) scale(4)" fill="white"/>
<path d="M 186.39 16.3235L 189.455 16.0559C 190.159 16.0559 190.511 16.2343 190.511 16.5911C 190.511 16.9122 190.106 17.2155 189.296 17.5009C 188.31 17.7863 187.376 18.9638 186.495 21.0332L 179.256 38.5876C 179.15 38.8374 179.01 38.9622 178.833 38.9622C 178.657 38.9622 178.499 38.8374 178.358 38.5876L 172.862 24.7796C 172.651 24.2444 172.422 24.2622 172.175 24.8331L 166.416 38.5876C 166.275 38.8374 166.116 38.9622 165.94 38.9622C 165.799 38.9622 165.694 38.8374 165.623 38.5876L 158.278 20.1233C 157.75 18.7675 156.834 17.8934 155.53 17.5009C 154.72 17.2155 154.315 16.9122 154.315 16.5911C 154.315 16.2343 154.667 16.0559 155.372 16.0559L 159.229 16.3235C 161.907 16.1451 163.474 16.0559 163.932 16.0559C 164.425 16.0559 164.672 16.2343 164.672 16.5911C 164.672 16.9122 164.267 17.2155 163.457 17.5009C 162.717 17.715 162.347 18.4286 162.347 19.6417C 162.347 20.1055 162.435 20.5693 162.611 21.0332L 166.627 31.523C 166.874 32.2009 167.138 32.1831 167.42 31.4695L 170.907 22.8528C 171.119 22.282 171.224 21.6397 171.224 20.9261C 171.224 20.2125 170.942 19.5168 170.379 18.8389C 169.815 18.1253 169.163 17.6793 168.424 17.5009C 167.719 17.2868 167.367 16.9657 167.367 16.5375C 167.367 16.2164 167.719 16.0559 168.424 16.0559L 172.387 16.3235L 176.825 16.0559C 177.53 16.0559 177.882 16.2343 177.882 16.5911C 177.882 16.9122 177.477 17.2155 176.667 17.5009C 175.469 17.8934 174.87 18.5356 174.87 19.4276C 174.87 19.8914 174.994 20.4266 175.24 21.0332L 179.203 31.3625C 179.485 32.0404 179.767 32.0582 180.049 31.416L 184.065 21.943C 184.311 21.4078 184.435 20.8191 184.435 20.1769C 184.435 19.5346 184.241 18.9638 183.853 18.4642C 183.466 17.9647 182.955 17.6079 182.321 17.3939C 181.687 17.1798 181.37 16.9122 181.37 16.5911C 181.37 16.2343 181.722 16.0559 182.427 16.0559L 186.39 16.3235Z" transform="translate(96.1094 140.438) scale(4)" fill="white"/>
<path d="M 202.067 15.5742C 204.181 15.5742 205.837 16.0202 207.034 16.9122C 208.267 17.8042 208.884 19.0173 208.884 20.5515C 208.884 22.0857 208.496 23.0491 207.721 23.4416C 206.981 23.7984 206.013 23.9768 204.815 23.9768L 196.149 23.9768C 195.656 23.9768 195.303 24.1016 195.092 24.3514C 194.916 24.5655 194.828 25.1007 194.828 25.957C 194.828 28.4546 195.585 30.631 197.1 32.4864C 198.615 34.3417 200.464 35.2694 202.648 35.2694C 204.868 35.2694 206.576 34.4844 207.774 32.9145C 208.021 32.6648 208.214 32.5399 208.355 32.5399C 208.743 32.5399 208.813 33.0037 208.567 33.9314C 208.32 34.8591 207.439 35.8581 205.925 36.9285C 204.445 37.9632 202.543 38.4806 200.218 38.4806C 197.893 38.4806 195.867 37.4102 194.141 35.2694C 192.415 33.1286 191.552 30.4348 191.552 27.1879C 191.552 23.9054 192.556 21.1581 194.564 18.9459C 196.607 16.6981 199.108 15.5742 202.067 15.5742ZM 205.555 20.5515C 205.555 19.5525 205.114 18.7497 204.234 18.1431C 203.353 17.5366 202.279 17.2333 201.01 17.2333C 199.777 17.2333 198.597 17.7507 197.47 18.7854C 196.378 19.7844 195.832 20.6942 195.832 21.5149C 195.832 22.0501 196.167 22.3176 196.836 22.3176L 201.169 22.3176C 202.825 22.3176 204.11 22.2284 205.026 22.0501C 205.379 22.0144 205.555 21.5149 205.555 20.5515Z" transform="translate(96.1094 140.438) scale(4)" fill="white"/>
<path d="M 216.536 37.6242L 212.256 37.8918C 211.551 37.8918 211.199 37.7313 211.199 37.4102C 211.199 37.0534 211.692 36.7144 212.678 36.3933C 213.665 36.0722 214.246 35.7511 214.422 35.4299C 214.598 35.0731 214.686 34.7342 214.686 34.4131L 214.686 7.43922C 214.686 5.19139 213.876 3.88909 212.256 3.53229C 211.974 3.46093 211.833 3.24685 211.833 2.89005C 211.833 2.49758 211.956 2.26566 212.203 2.1943C 213.084 1.98022 215.127 1.26663 218.332 0.0535193L 218.385 0.0535193L 218.438 0C 218.65 0 218.755 0.124878 218.755 0.374635C 218.755 0.481675 218.72 0.802792 218.65 1.33799C 218.473 2.7295 218.385 4.8346 218.385 7.6533L 218.385 34.4131C 218.385 35.1267 218.597 35.5905 219.019 35.8046C 219.477 36.0187 220.059 36.2506 220.763 36.5003C 221.503 36.7501 221.873 37.0534 221.873 37.4102C 221.873 37.7313 221.521 37.8918 220.816 37.8918L 216.536 37.6242Z" transform="translate(96.1094 140.438) scale(4)" fill="white"/>
<path d="M 229.282 37.6242L 225.002 37.8918C 224.297 37.8918 223.945 37.7313 223.945 37.4102C 223.945 37.0534 224.438 36.7144 225.424 36.3933C 226.411 36.0722 226.992 35.7511 227.168 35.4299C 227.344 35.0731 227.432 34.7342 227.432 34.4131L 227.432 7.43922C 227.432 5.19139 226.622 3.88909 225.002 3.53229C 224.72 3.46093 224.579 3.24685 224.579 2.89005C 224.579 2.49758 224.702 2.26566 224.949 2.1943C 225.829 1.98022 227.873 1.26663 231.078 0.0535193L 231.131 0.0535193L 231.184 0C 231.395 0 231.501 0.124878 231.501 0.374635C 231.501 0.481675 231.466 0.802792 231.395 1.33799C 231.219 2.7295 231.131 4.8346 231.131 7.6533L 231.131 34.4131C 231.131 35.1267 231.343 35.5905 231.765 35.8046C 232.223 36.0187 232.805 36.2506 233.509 36.5003C 234.249 36.7501 234.619 37.0534 234.619 37.4102C 234.619 37.7313 234.267 37.8918 233.562 37.8918L 229.282 37.6242Z" transform="translate(96.1094 140.438) scale(4)" fill="white"/>
</g>
</g>
<g id="Group 2 Copy 2.2">
<g id="Dragonwell_2">
<path d="M 186.39 16.3235L 189.455 16.0559C 190.159 16.0559 190.511 16.2343 190.511 16.5911C 190.511 16.9122 190.106 17.2155 189.296 17.5009C 188.31 17.7863 187.376 18.9638 186.495 21.0332L 179.256 38.5876C 179.15 38.8374 179.01 38.9622 178.833 38.9622C 178.657 38.9622 178.499 38.8374 178.358 38.5876L 172.862 24.7796C 172.651 24.2444 172.422 24.2622 172.175 24.8331L 166.416 38.5876C 166.275 38.8374 166.116 38.9622 165.94 38.9622C 165.799 38.9622 165.694 38.8374 165.623 38.5876L 158.278 20.1233C 157.75 18.7675 156.834 17.8934 155.53 17.5009C 154.72 17.2155 154.315 16.9122 154.315 16.5911C 154.315 16.2343 154.667 16.0559 155.372 16.0559L 159.229 16.3235C 161.907 16.1451 163.474 16.0559 163.932 16.0559C 164.425 16.0559 164.672 16.2343 164.672 16.5911C 164.672 16.9122 164.267 17.2155 163.457 17.5009C 162.717 17.715 162.347 18.4286 162.347 19.6417C 162.347 20.1055 162.435 20.5693 162.611 21.0332L 166.627 31.523C 166.874 32.2009 167.138 32.1831 167.42 31.4695L 170.907 22.8528C 171.119 22.282 171.224 21.6397 171.224 20.9261C 171.224 20.2125 170.942 19.5168 170.379 18.8389C 169.815 18.1253 169.163 17.6793 168.424 17.5009C 167.719 17.2868 167.367 16.9657 167.367 16.5375C 167.367 16.2164 167.719 16.0559 168.424 16.0559L 172.387 16.3235L 176.825 16.0559C 177.53 16.0559 177.882 16.2343 177.882 16.5911C 177.882 16.9122 177.477 17.2155 176.667 17.5009C 175.469 17.8934 174.87 18.5356 174.87 19.4276C 174.87 19.8914 174.994 20.4266 175.24 21.0332L 179.203 31.3625C 179.485 32.0404 179.767 32.0582 180.049 31.416L 184.065 21.943C 184.311 21.4078 184.435 20.8191 184.435 20.1769C 184.435 19.5346 184.241 18.9638 183.853 18.4642C 183.466 17.9647 182.955 17.6079 182.321 17.3939C 181.687 17.1798 181.37 16.9122 181.37 16.5911C 181.37 16.2343 181.722 16.0559 182.427 16.0559L 186.39 16.3235Z" transform="translate(96.1094 140.434) scale(4)" fill="white"/>
<path d="M 202.067 15.5742C 204.181 15.5742 205.837 16.0202 207.034 16.9122C 208.267 17.8042 208.884 19.0173 208.884 20.5515C 208.884 22.0857 208.496 23.0491 207.721 23.4416C 206.981 23.7984 206.013 23.9768 204.815 23.9768L 196.149 23.9768C 195.656 23.9768 195.303 24.1016 195.092 24.3514C 194.916 24.5655 194.828 25.1007 194.828 25.957C 194.828 28.4546 195.585 30.631 197.1 32.4864C 198.615 34.3417 200.464 35.2694 202.648 35.2694C 204.868 35.2694 206.576 34.4844 207.774 32.9145C 208.021 32.6648 208.214 32.5399 208.355 32.5399C 208.743 32.5399 208.813 33.0037 208.567 33.9314C 208.32 34.8591 207.439 35.8581 205.925 36.9285C 204.445 37.9632 202.543 38.4806 200.218 38.4806C 197.893 38.4806 195.867 37.4102 194.141 35.2694C 192.415 33.1286 191.552 30.4348 191.552 27.1879C 191.552 23.9054 192.556 21.1581 194.564 18.9459C 196.607 16.6981 199.108 15.5742 202.067 15.5742ZM 205.555 20.5515C 205.555 19.5525 205.114 18.7497 204.234 18.1431C 203.353 17.5366 202.279 17.2333 201.01 17.2333C 199.777 17.2333 198.597 17.7507 197.47 18.7854C 196.378 19.7844 195.832 20.6942 195.832 21.5149C 195.832 22.0501 196.167 22.3176 196.836 22.3176L 201.169 22.3176C 202.825 22.3176 204.11 22.2284 205.026 22.0501C 205.379 22.0144 205.555 21.5149 205.555 20.5515Z" transform="translate(96.1094 140.434) scale(4)" fill="white"/>
<path d="M 216.536 37.6242L 212.256 37.8918C 211.551 37.8918 211.199 37.7313 211.199 37.4102C 211.199 37.0534 211.692 36.7144 212.678 36.3933C 213.665 36.0722 214.246 35.7511 214.422 35.4299C 214.598 35.0731 214.686 34.7342 214.686 34.4131L 214.686 7.43922C 214.686 5.19139 213.876 3.88909 212.256 3.53229C 211.974 3.46093 211.833 3.24685 211.833 2.89005C 211.833 2.49758 211.956 2.26566 212.203 2.1943C 213.084 1.98022 215.127 1.26663 218.332 0.0535193L 218.385 0.0535193L 218.438 0C 218.65 0 218.755 0.124878 218.755 0.374635C 218.755 0.481675 218.72 0.802792 218.65 1.33799C 218.473 2.7295 218.385 4.8346 218.385 7.6533L 218.385 34.4131C 218.385 35.1267 218.597 35.5905 219.019 35.8046C 219.477 36.0187 220.059 36.2506 220.763 36.5003C 221.503 36.7501 221.873 37.0534 221.873 37.4102C 221.873 37.7313 221.521 37.8918 220.816 37.8918L 216.536 37.6242Z" transform="translate(96.1094 140.434) scale(4)" fill="white"/>
<path d="M 229.282 37.6242L 225.002 37.8918C 224.297 37.8918 223.945 37.7313 223.945 37.4102C 223.945 37.0534 224.438 36.7144 225.424 36.3933C 226.411 36.0722 226.992 35.7511 227.168 35.4299C 227.344 35.0731 227.432 34.7342 227.432 34.4131L 227.432 7.43922C 227.432 5.19139 226.622 3.88909 225.002 3.53229C 224.72 3.46093 224.579 3.24685 224.579 2.89005C 224.579 2.49758 224.702 2.26566 224.949 2.1943C 225.829 1.98022 227.873 1.26663 231.078 0.0535193L 231.131 0.0535193L 231.184 0C 231.395 0 231.501 0.124878 231.501 0.374635C 231.501 0.481675 231.466 0.802792 231.395 1.33799C 231.219 2.7295 231.131 4.8346 231.131 7.6533L 231.131 34.4131C 231.131 35.1267 231.343 35.5905 231.765 35.8046C 232.223 36.0187 232.805 36.2506 233.509 36.5003C 234.249 36.7501 234.619 37.0534 234.619 37.4102C 234.619 37.7313 234.267 37.8918 233.562 37.8918L 229.282 37.6242Z" transform="translate(96.1094 140.434) scale(4)" fill="white"/>
</g>
</g>
</g>
<g id="Group 25">
<g id="TEA &#38; COFFEE">
<path d="M 10.0938 0.414962L 10.0781 0.564349C 9.91092 1.29468 9.82733 1.84243 9.82733 2.2076L 9.82733 2.40678C 9.82733 2.51744 9.80121 2.63363 9.74896 2.75535C 9.70717 2.87707 9.6497 2.93793 9.57655 2.93793C 9.46161 2.93793 9.36235 2.71109 9.27876 2.2574C 9.19516 1.74838 8.67271 1.49387 7.7114 1.49387C 6.76053 1.49387 6.09702 1.516 5.72085 1.56026C 5.55367 1.58239 5.47008 1.8203 5.47008 2.27399L 5.47008 9.82631C 5.47008 10.5345 5.88281 10.9661 6.70829 11.121C 7.05311 11.1874 7.22552 11.287 7.22552 11.4198C 7.22552 11.5415 7.07401 11.6024 6.77098 11.6024L 4.93718 11.5194L 2.93096 11.6024C 2.62794 11.6024 2.47642 11.5415 2.47642 11.4198C 2.47642 11.287 2.66451 11.1874 3.04067 11.121C 3.82435 10.9661 4.21619 10.5345 4.21619 9.82631L 4.21619 2.27399C 4.21619 1.83137 4.12215 1.59346 3.93407 1.56026C 3.73554 1.516 3.34892 1.49387 2.77422 1.49387L 2.03756 1.49387C 1.76589 1.49387 1.50989 1.54919 1.26956 1.65985C 1.02923 1.77051 0.867271 1.91436 0.783679 2.09141C 0.700086 2.2574 0.590371 2.41232 0.454534 2.55617C 0.329145 2.70002 0.214206 2.77195 0.109715 2.77195C 0.0365717 2.77195 0 2.71109 0 2.58937C 0 2.45658 0.0261226 2.33486 0.0783679 2.2242C 0.308247 1.71518 0.470207 1.10103 0.564249 0.381766C 0.595596 0.127255 0.684413 0 0.830699 0C 0.914292 0 1.0449 0.17705 1.22254 0.531152C 1.33748 0.752465 1.70319 0.863121 2.31969 0.863121L 8.29132 0.863121C 8.68838 0.863121 8.99141 0.785662 9.20039 0.630743C 9.27353 0.575414 9.36235 0.492422 9.46684 0.381766C 9.58178 0.271109 9.67582 0.188117 9.74896 0.132788C 9.83256 0.0663945 9.91092 0.0331976 9.98407 0.0331976C 10.0572 0.0331976 10.0938 0.160452 10.0938 0.414962Z" transform="translate(529.93 328.928) scale(4)" fill="white"/>
<path d="M 17.8562 5.92566L 17.8875 7.05436C 17.8875 7.24248 17.8405 7.33654 17.7465 7.33654C 17.5793 7.33654 17.4591 7.20928 17.386 6.95477C 17.2293 6.45682 16.9889 6.20784 16.665 6.20784L 15.2074 6.20784C 15.0088 6.20784 14.8678 6.2355 14.7842 6.29083C 14.711 6.34616 14.6745 6.46235 14.6745 6.6394L 14.6745 9.82631C 14.6745 10.2357 14.7528 10.5234 14.9096 10.6894C 15.0768 10.8554 15.3432 10.9384 15.7089 10.9384L 17.339 10.9384C 17.8928 10.9384 18.2794 10.8499 18.4988 10.6728C 18.7182 10.4847 18.9481 10.1251 19.1885 9.59393C 19.2511 9.47221 19.3347 9.42241 19.4392 9.44455C 19.5542 9.45561 19.6116 9.51094 19.6116 9.61053C 19.6116 10.0532 19.5228 10.623 19.3452 11.3202C 19.3034 11.5083 19.2302 11.6024 19.1258 11.6024L 14.0005 11.5028L 12.198 11.6024C 11.895 11.6024 11.7435 11.5415 11.7435 11.4198C 11.7435 11.287 11.9316 11.1874 12.3078 11.121C 12.6839 11.0435 12.9608 10.9163 13.1385 10.7392C 13.3265 10.5511 13.4206 10.2634 13.4206 9.87611L 13.4206 2.40678C 13.4206 2.01948 13.3422 1.74284 13.1855 1.57686C 13.0392 1.39981 12.778 1.27808 12.4018 1.21169C 12.0361 1.13423 11.8532 1.01804 11.8532 0.863121C 11.8532 0.741399 12.0047 0.680539 12.3078 0.680539L 15.082 0.730334L 18.5615 0.680539C 18.7391 0.680539 18.8332 0.730334 18.8436 0.829925C 19.0004 1.72624 19.0787 2.27953 19.0787 2.48977C 19.0787 2.68896 19.0056 2.78855 18.8593 2.78855C 18.7757 2.78855 18.7182 2.73322 18.6869 2.62256C 18.5302 2.10248 18.4152 1.79817 18.3421 1.70965C 18.0913 1.41087 17.7413 1.26149 17.292 1.26149L 15.2387 1.26149C 15.1342 1.26149 15.0141 1.31682 14.8782 1.42747C 14.7424 1.52706 14.6745 1.64878 14.6745 1.79264L 14.6745 5.31152C 14.6745 5.41111 14.7006 5.49964 14.7528 5.5771C 14.8155 5.64349 14.8834 5.67669 14.9566 5.67669L 16.4613 5.67669C 16.921 5.67669 17.2397 5.46091 17.4173 5.02935C 17.4382 4.98508 17.48 4.92975 17.5427 4.86336C 17.6159 4.7859 17.6681 4.74717 17.6995 4.74717C 17.7413 4.74717 17.7831 4.77483 17.8249 4.83016C 17.8771 4.87443 17.9032 4.93529 17.9032 5.01275L 17.8562 5.92566Z" transform="translate(529.93 328.928) scale(4)" fill="white"/>
<path d="M 23.381 11.5028L 21.5001 11.6024C 21.1971 11.6024 21.0456 11.536 21.0456 11.4032C 21.0456 11.2593 21.218 11.1265 21.5628 11.0048C 22.1898 10.8056 22.6391 10.3796 22.9108 9.72672C 23.9139 7.29227 24.8909 4.69184 25.8417 1.92543C 25.9776 1.56026 26.0455 1.31128 26.0455 1.17849C 26.0455 1.03464 26.0507 0.962713 26.0612 0.962713C 26.4373 0.829925 26.6567 0.724801 26.7194 0.647342C 26.7821 0.558817 26.8239 0.492422 26.8448 0.44816C 26.8866 0.348569 26.9232 0.298773 26.9545 0.298773C 27.0068 0.298773 27.059 0.376232 27.1113 0.531152C 27.8845 3.10945 28.8145 6.06398 29.9012 9.39475C 30.0997 10.0034 30.3191 10.4183 30.5595 10.6396C 30.7998 10.8499 31.0976 10.9882 31.4529 11.0546C 31.8186 11.121 32.0014 11.2482 32.0014 11.4364C 32.0014 11.547 31.8499 11.6024 31.5469 11.6024L 29.3683 11.5028L 27.7226 11.5194C 27.4195 11.5194 27.268 11.453 27.268 11.3202C 27.268 11.1653 27.4404 11.0601 27.7852 11.0048C 28.4226 10.8941 28.7413 10.6452 28.7413 10.2579C 28.7413 9.9259 28.5428 9.05725 28.1457 7.65191C 28.1144 7.53019 27.9733 7.46932 27.7226 7.46932L 24.7289 7.46932C 24.614 7.46932 24.5251 7.56892 24.4625 7.7681C 24.0445 9.05171 23.8355 9.81525 23.8355 10.0587C 23.8355 10.3021 23.9191 10.5069 24.0863 10.6728C 24.2639 10.8388 24.5042 10.9661 24.8073 11.0546C 25.1103 11.1321 25.2618 11.2317 25.2618 11.3534C 25.2618 11.4751 25.1103 11.536 24.8073 11.536L 23.381 11.5028ZM 26.2963 2.52297L 24.8856 6.50661C 24.8647 6.57301 24.8543 6.61727 24.8543 6.6394C 24.8543 6.71686 24.964 6.75559 25.1834 6.75559L 27.6128 6.75559C 27.7591 6.75559 27.8323 6.72793 27.8323 6.6726C 27.8323 6.65047 27.8218 6.59514 27.8009 6.50661L 26.5627 2.53957C 26.5 2.34039 26.453 2.2408 26.4216 2.2408C 26.4007 2.2408 26.359 2.33486 26.2963 2.52297Z" transform="translate(529.93 328.928) scale(4)" fill="white"/>
<path d="M 50.7154 4.84676L 51.8283 4.92975C 51.9954 4.92975 52.2567 4.89102 52.6119 4.81356C 52.9777 4.72504 53.1971 4.68078 53.2702 4.68078C 53.3434 4.68078 53.4008 4.69738 53.4426 4.73057C 53.4949 4.76377 53.521 4.80803 53.521 4.86336C 53.521 4.90762 53.474 4.96295 53.3799 5.02935C 53.2859 5.09574 53.2023 5.13447 53.1292 5.14553C 52.7008 5.17873 52.3194 5.35025 51.985 5.66009L 49.1794 8.78061L 49.4459 9.17897C 49.6862 9.54414 49.8482 9.78758 49.9318 9.9093C 50.0258 10.031 50.1721 10.2025 50.3706 10.4239C 50.5692 10.6341 50.7729 10.778 50.9819 10.8554C 51.1909 10.9218 51.3789 10.955 51.5461 10.955C 51.7133 10.955 51.8178 10.955 51.8596 10.955C 51.9119 10.9439 51.9536 10.9384 51.985 10.9384C 52.0268 10.9273 52.0686 10.9163 52.1104 10.9052C 52.1626 10.8831 52.1992 10.872 52.2201 10.872C 52.241 10.861 52.2776 10.8388 52.3298 10.8056C 52.3925 10.7503 52.4604 10.7005 52.5336 10.6562C 52.6903 10.5456 52.8209 10.4903 52.9254 10.4903C 53.0299 10.4903 53.0821 10.612 53.0821 10.8554C 53.0821 10.9107 52.9829 11.0103 52.7844 11.1542C 52.5963 11.298 52.3455 11.4364 52.032 11.5692C 51.7185 11.7019 51.4312 11.7683 51.17 11.7683C 50.6266 11.7683 50.1982 11.6355 49.8847 11.37C 49.5817 11.0933 49.2056 10.5843 48.7562 9.84291L 48.5525 9.49434C 48.4271 9.62713 48.2599 9.81525 48.0509 10.0587C 47.8524 10.3021 47.7166 10.4626 47.6434 10.54C 47.5703 10.6064 47.4449 10.7337 47.2672 10.9218C 47.0896 11.0989 46.9433 11.2206 46.8284 11.287C 46.7239 11.3423 46.5828 11.4198 46.4052 11.5194C 46.1126 11.6853 45.7469 11.7683 45.3081 11.7683C 44.5662 11.7683 43.9236 11.5636 43.3802 11.1542C 42.8369 10.7337 42.5652 10.1749 42.5652 9.47774C 42.5652 7.90642 43.4429 6.69473 45.1983 5.84267L 45.5118 5.69329L 45.2767 5.42771C 44.6184 4.73057 44.2893 4.08323 44.2893 3.48568C 44.2893 2.87707 44.5035 2.40678 44.9319 2.07481C 45.3603 1.74284 45.8462 1.57686 46.3895 1.57686C 46.9329 1.57686 47.3979 1.73731 47.7845 2.05821C 48.1711 2.36805 48.3644 2.78302 48.3644 3.3031C 48.3644 3.81212 48.2286 4.26581 47.9569 4.66418C 47.6957 5.05148 47.3247 5.33918 46.8441 5.5273L 46.6246 5.61029L 46.7657 5.77628C 46.8911 5.9312 47.1993 6.27977 47.6904 6.82198C 48.192 7.35314 48.5629 7.80683 48.8033 8.18306L 48.9913 8.48183L 49.2735 8.16646C 49.6496 7.7349 50.031 7.24248 50.4176 6.68919C 50.8043 6.13591 50.9976 5.80948 50.9976 5.70988C 50.9976 5.61029 50.9558 5.5107 50.8722 5.41111C 50.7886 5.30045 50.705 5.23959 50.6214 5.22853C 50.5483 5.2064 50.4856 5.1732 50.4333 5.12894C 50.3915 5.08467 50.3706 5.05148 50.3706 5.02935C 50.3706 4.90762 50.4856 4.84676 50.7154 4.84676ZM 45.7469 5.97546L 45.4178 6.10825C 44.7177 6.39596 44.2631 6.81645 44.0542 7.36973C 43.8974 7.81236 43.8191 8.30478 43.8191 8.847C 43.8191 9.38922 43.9967 9.83184 44.352 10.1749C 44.7072 10.5179 45.1409 10.6894 45.6529 10.6894C 46.1649 10.6894 46.6194 10.5843 47.0165 10.3741C 47.4135 10.1527 47.8158 9.80971 48.2233 9.34496L 48.3644 9.19557L 48.1763 8.8802C 47.9046 8.43757 47.4971 7.92302 46.9538 7.33654C 46.4209 6.73899 46.0813 6.35722 45.935 6.19124L 45.7469 5.97546ZM 46.3582 5.27832L 46.5619 5.17873C 47.1366 4.90209 47.424 4.28795 47.424 3.3363C 47.424 3.01539 47.3195 2.72215 47.1105 2.45658C 46.9015 2.17994 46.6455 2.04162 46.3425 2.04162C 46.0395 2.04162 45.7783 2.13567 45.5588 2.32379C 45.3394 2.50084 45.2297 2.72769 45.2297 3.00433C 45.2297 3.54655 45.5275 4.21049 46.1231 4.99615L 46.3582 5.27832Z" transform="translate(529.93 328.928) scale(4)" fill="white"/>
<path d="M 74.2489 9.22877C 74.1549 10.0587 73.9773 10.6784 73.716 11.0878C 73.6742 11.1653 73.366 11.298 72.7913 11.4862C 72.227 11.6743 71.4016 11.7683 70.3149 11.7683C 68.9043 11.7683 67.7078 11.2151 66.7256 10.1085C 65.7434 9.00192 65.2523 7.67404 65.2523 6.12485C 65.2523 4.56459 65.8166 3.24224 66.9451 2.1578C 68.0736 1.0623 69.411 0.514554 70.9575 0.514554C 71.6889 0.514554 72.2427 0.580948 72.6189 0.713735C 72.9951 0.846523 73.3921 0.946114 73.8101 1.01251C 73.925 1.02357 74.0034 1.26149 74.0452 1.72624C 74.0974 2.17994 74.1288 2.58383 74.1392 2.93793C 74.1497 3.28097 74.1392 3.49675 74.1079 3.58528C 74.087 3.6738 74.04 3.71253 73.9668 3.70147C 73.7578 3.67933 73.622 3.47462 73.5593 3.08732C 73.4966 2.5783 73.3138 2.1744 73.0107 1.87563C 72.4778 1.31128 71.6785 1.02911 70.6127 1.02911C 69.5573 1.02911 68.6587 1.50493 67.9168 2.45658C 67.1854 3.39716 66.8197 4.49819 66.8197 5.75968C 66.8197 6.67813 66.9764 7.55232 67.2899 8.38224C 67.6033 9.21217 68.0683 9.89824 68.6848 10.4405C 69.3118 10.9827 70.0171 11.2538 70.8008 11.2538C 72.0964 11.2538 73.0682 10.5843 73.716 9.24536C 73.7578 9.1679 73.831 9.10151 73.9355 9.04618C 74.04 8.97979 74.0974 8.94106 74.1079 8.92999C 74.1183 8.91893 74.1288 8.91339 74.1392 8.91339C 74.2124 8.91339 74.2489 9.01852 74.2489 9.22877Z" transform="translate(529.93 328.928) scale(4)" fill="white"/>
<path d="M 85.5963 6.34063C 85.5963 4.8025 85.262 3.55208 84.5932 2.58937C 83.9245 1.62665 83.005 1.1453 81.8347 1.1453C 80.6644 1.1453 79.7448 1.59899 79.0761 2.50637C 78.4178 3.41376 78.0887 4.54246 78.0887 5.89247C 78.0887 7.23141 78.4648 8.43757 79.2172 9.51094C 79.98 10.5732 80.9308 11.1044 82.0698 11.1044C 83.2087 11.1044 84.0812 10.695 84.6873 9.87611C 85.2933 9.04618 85.5963 7.86769 85.5963 6.34063ZM 76.5683 6.20784C 76.5683 5.17873 76.7669 4.24368 77.1639 3.40269C 77.5715 2.55064 78.1932 1.8535 79.0291 1.31128C 79.865 0.769064 80.8472 0.497956 81.9757 0.497956C 83.3759 0.497956 84.5828 1.01251 85.5963 2.04162C 86.6099 3.05966 87.1167 4.36541 87.1167 5.95886C 87.1167 7.51912 86.6674 8.85807 85.7687 9.9757C 85.3403 10.5179 84.7865 10.9495 84.1073 11.2704C 83.4281 11.5913 82.6758 11.7517 81.8503 11.7517C 80.4397 11.7517 79.2067 11.2151 78.1514 10.1417C 77.096 9.06831 76.5683 7.75703 76.5683 6.20784Z" transform="translate(529.93 328.928) scale(4)" fill="white"/>
<path d="M 92.838 0.730334L 95.5181 0.697137L 96.1294 0.697137L 96.3645 0.680539C 96.5422 0.680539 96.6362 0.730334 96.6466 0.829925C 96.6989 1.15083 96.725 1.70411 96.725 2.48977C 96.725 2.72215 96.678 2.83834 96.5839 2.83834C 96.4586 2.83834 96.3802 2.77195 96.3488 2.63916C 96.2235 2.2408 96.1033 1.96969 95.9884 1.82584C 95.7376 1.52706 95.3875 1.37768 94.9382 1.37768L 92.9477 1.37768C 92.7909 1.37768 92.6708 1.42194 92.5872 1.51046C 92.514 1.59899 92.467 1.69305 92.4461 1.79264C 92.4357 1.89223 92.4252 2.05821 92.4148 2.29059C 92.4043 2.51191 92.3991 3.00433 92.3991 3.76786C 92.3991 4.53139 92.3991 5.04041 92.3991 5.29492C 92.4096 5.54943 92.467 5.67669 92.5715 5.67669L 94.3896 5.62689C 94.8494 5.62689 95.1681 5.41111 95.3457 4.97955C 95.3666 4.93529 95.4084 4.87996 95.4711 4.81356C 95.5443 4.7361 95.5965 4.69738 95.6279 4.69738C 95.6697 4.69738 95.7167 4.72504 95.7689 4.78037C 95.8212 4.8357 95.8368 4.97955 95.8159 5.21193C 95.795 5.43324 95.7846 5.66562 95.7846 5.90907C 95.7846 6.15251 95.8003 6.51768 95.8316 7.00457C 95.8316 7.19268 95.7846 7.28674 95.6906 7.28674C 95.5234 7.28674 95.4032 7.15949 95.3301 6.90498C 95.1942 6.47341 94.9487 6.25763 94.5934 6.25763C 94.5934 6.25763 94.3322 6.2521 93.8097 6.24104C 93.5694 6.24104 93.2298 6.2521 92.7909 6.27423C 92.5402 6.29636 92.4148 6.43468 92.4148 6.68919C 92.4148 8.06134 92.4305 9.11258 92.4618 9.84291C 92.4827 10.2191 92.5663 10.5124 92.7126 10.7226C 92.8589 10.9218 93.1096 11.0546 93.4649 11.121C 93.8306 11.1874 94.0135 11.287 94.0135 11.4198C 94.0135 11.5415 93.862 11.6024 93.5589 11.6024C 93.2559 11.6024 92.9686 11.5802 92.6969 11.536C 92.4252 11.5028 92.2006 11.4862 92.0229 11.4862L 90.0481 11.6024C 89.745 11.6024 89.5935 11.5415 89.5935 11.4198C 89.5935 11.287 89.7764 11.1874 90.1421 11.121C 90.5183 11.0435 90.7795 10.9163 90.9258 10.7392C 91.0825 10.5511 91.1609 10.2579 91.1609 9.85951L 91.1609 2.85494C 91.1609 2.32379 91.093 1.93096 90.9571 1.67645C 90.8317 1.42194 90.5862 1.26149 90.2205 1.19509C 89.8652 1.1287 89.6876 1.01804 89.6876 0.863121C 89.6876 0.741399 89.8391 0.680539 90.1421 0.680539L 92.838 0.730334Z" transform="translate(529.93 328.928) scale(4)" fill="white"/>
<path d="M 102.165 0.730334L 104.845 0.697137L 105.456 0.697137L 105.691 0.680539C 105.869 0.680539 105.963 0.730334 105.973 0.829925C 106.025 1.15083 106.052 1.70411 106.052 2.48977C 106.052 2.72215 106.005 2.83834 105.911 2.83834C 105.785 2.83834 105.707 2.77195 105.675 2.63916C 105.55 2.2408 105.43 1.96969 105.315 1.82584C 105.064 1.52706 104.714 1.37768 104.265 1.37768L 102.274 1.37768C 102.118 1.37768 101.997 1.42194 101.914 1.51046C 101.841 1.59899 101.794 1.69305 101.773 1.79264C 101.762 1.89223 101.752 2.05821 101.741 2.29059C 101.731 2.51191 101.726 3.00433 101.726 3.76786C 101.726 4.53139 101.726 5.04041 101.726 5.29492C 101.736 5.54943 101.794 5.67669 101.898 5.67669L 103.716 5.62689C 104.176 5.62689 104.495 5.41111 104.672 4.97955C 104.693 4.93529 104.735 4.87996 104.798 4.81356C 104.871 4.7361 104.923 4.69738 104.954 4.69738C 104.996 4.69738 105.043 4.72504 105.096 4.78037C 105.148 4.8357 105.163 4.97955 105.143 5.21193C 105.122 5.43324 105.111 5.66562 105.111 5.90907C 105.111 6.15251 105.127 6.51768 105.158 7.00457C 105.158 7.19268 105.111 7.28674 105.017 7.28674C 104.85 7.28674 104.73 7.15949 104.657 6.90498C 104.521 6.47341 104.275 6.25763 103.92 6.25763C 103.92 6.25763 103.659 6.2521 103.136 6.24104C 102.896 6.24104 102.556 6.2521 102.118 6.27423C 101.867 6.29636 101.741 6.43468 101.741 6.68919C 101.741 8.06134 101.757 9.11258 101.788 9.84291C 101.809 10.2191 101.893 10.5124 102.039 10.7226C 102.185 10.9218 102.436 11.0546 102.791 11.121C 103.157 11.1874 103.34 11.287 103.34 11.4198C 103.34 11.5415 103.189 11.6024 102.886 11.6024C 102.583 11.6024 102.295 11.5802 102.023 11.536C 101.752 11.5028 101.527 11.4862 101.35 11.4862L 99.3747 11.6024C 99.0716 11.6024 98.9201 11.5415 98.9201 11.4198C 98.9201 11.287 99.103 11.1874 99.4687 11.121C 99.8449 11.0435 100.106 10.9163 100.252 10.7392C 100.409 10.5511 100.487 10.2579 100.487 9.85951L 100.487 2.85494C 100.487 2.32379 100.42 1.93096 100.284 1.67645C 100.158 1.42194 99.9128 1.26149 99.5471 1.19509C 99.1918 1.1287 99.0142 1.01804 99.0142 0.863121C 99.0142 0.741399 99.1657 0.680539 99.4687 0.680539L 102.165 0.730334Z" transform="translate(529.93 328.928) scale(4)" fill="white"/>
<path d="M 114.25 5.92566L 114.281 7.05436C 114.281 7.24248 114.234 7.33654 114.14 7.33654C 113.973 7.33654 113.853 7.20928 113.779 6.95477C 113.623 6.45682 113.382 6.20784 113.059 6.20784L 111.601 6.20784C 111.402 6.20784 111.261 6.2355 111.178 6.29083C 111.105 6.34616 111.068 6.46235 111.068 6.6394L 111.068 9.82631C 111.068 10.2357 111.146 10.5234 111.303 10.6894C 111.47 10.8554 111.737 10.9384 112.102 10.9384L 113.732 10.9384C 114.286 10.9384 114.673 10.8499 114.892 10.6728C 115.112 10.4847 115.342 10.1251 115.582 9.59393C 115.645 9.47221 115.728 9.42241 115.833 9.44455C 115.948 9.45561 116.005 9.51094 116.005 9.61053C 116.005 10.0532 115.916 10.623 115.739 11.3202C 115.697 11.5083 115.624 11.6024 115.519 11.6024L 110.394 11.5028L 108.592 11.6024C 108.289 11.6024 108.137 11.5415 108.137 11.4198C 108.137 11.287 108.325 11.1874 108.701 11.121C 109.077 11.0435 109.354 10.9163 109.532 10.7392C 109.72 10.5511 109.814 10.2634 109.814 9.87611L 109.814 2.40678C 109.814 2.01948 109.736 1.74284 109.579 1.57686C 109.433 1.39981 109.171 1.27808 108.795 1.21169C 108.43 1.13423 108.247 1.01804 108.247 0.863121C 108.247 0.741399 108.398 0.680539 108.701 0.680539L 111.475 0.730334L 114.955 0.680539C 115.133 0.680539 115.227 0.730334 115.237 0.829925C 115.394 1.72624 115.472 2.27953 115.472 2.48977C 115.472 2.68896 115.399 2.78855 115.253 2.78855C 115.169 2.78855 115.112 2.73322 115.08 2.62256C 114.924 2.10248 114.809 1.79817 114.736 1.70965C 114.485 1.41087 114.135 1.26149 113.685 1.26149L 111.632 1.26149C 111.528 1.26149 111.408 1.31682 111.272 1.42747C 111.136 1.52706 111.068 1.64878 111.068 1.79264L 111.068 5.31152C 111.068 5.41111 111.094 5.49964 111.146 5.5771C 111.209 5.64349 111.277 5.67669 111.35 5.67669L 112.855 5.67669C 113.315 5.67669 113.633 5.46091 113.811 5.02935C 113.832 4.98508 113.874 4.92975 113.936 4.86336C 114.009 4.7859 114.062 4.74717 114.093 4.74717C 114.135 4.74717 114.177 4.77483 114.218 4.83016C 114.271 4.87443 114.297 4.93529 114.297 5.01275L 114.25 5.92566Z" transform="translate(529.93 328.928) scale(4)" fill="white"/>
<path d="M 123.944 5.92566L 123.975 7.05436C 123.975 7.24248 123.928 7.33654 123.834 7.33654C 123.667 7.33654 123.547 7.20928 123.473 6.95477C 123.317 6.45682 123.076 6.20784 122.752 6.20784L 121.295 6.20784C 121.096 6.20784 120.955 6.2355 120.872 6.29083C 120.798 6.34616 120.762 6.46235 120.762 6.6394L 120.762 9.82631C 120.762 10.2357 120.84 10.5234 120.997 10.6894C 121.164 10.8554 121.431 10.9384 121.796 10.9384L 123.426 10.9384C 123.98 10.9384 124.367 10.8499 124.586 10.6728C 124.806 10.4847 125.036 10.1251 125.276 9.59393C 125.339 9.47221 125.422 9.42241 125.527 9.44455C 125.642 9.45561 125.699 9.51094 125.699 9.61053C 125.699 10.0532 125.61 10.623 125.433 11.3202C 125.391 11.5083 125.318 11.6024 125.213 11.6024L 120.088 11.5028L 118.285 11.6024C 117.982 11.6024 117.831 11.5415 117.831 11.4198C 117.831 11.287 118.019 11.1874 118.395 11.121C 118.771 11.0435 119.048 10.9163 119.226 10.7392C 119.414 10.5511 119.508 10.2634 119.508 9.87611L 119.508 2.40678C 119.508 2.01948 119.43 1.74284 119.273 1.57686C 119.127 1.39981 118.865 1.27808 118.489 1.21169C 118.124 1.13423 117.941 1.01804 117.941 0.863121C 117.941 0.741399 118.092 0.680539 118.395 0.680539L 121.169 0.730334L 124.649 0.680539C 124.827 0.680539 124.921 0.730334 124.931 0.829925C 125.088 1.72624 125.166 2.27953 125.166 2.48977C 125.166 2.68896 125.093 2.78855 124.947 2.78855C 124.863 2.78855 124.806 2.73322 124.774 2.62256C 124.618 2.10248 124.503 1.79817 124.43 1.70965C 124.179 1.41087 123.829 1.26149 123.379 1.26149L 121.326 1.26149C 121.222 1.26149 121.102 1.31682 120.966 1.42747C 120.83 1.52706 120.762 1.64878 120.762 1.79264L 120.762 5.31152C 120.762 5.41111 120.788 5.49964 120.84 5.5771C 120.903 5.64349 120.971 5.67669 121.044 5.67669L 122.549 5.67669C 123.008 5.67669 123.327 5.46091 123.505 5.02935C 123.526 4.98508 123.567 4.92975 123.63 4.86336C 123.703 4.7859 123.756 4.74717 123.787 4.74717C 123.829 4.74717 123.871 4.77483 123.912 4.83016C 123.965 4.87443 123.991 4.93529 123.991 5.01275L 123.944 5.92566Z" transform="translate(529.93 328.928) scale(4)" fill="white"/>
</g>
<g id="TEA &#38; COFFEE_2">
<path d="M 50.7154 4.84676L 51.8283 4.92975C 51.9954 4.92975 52.2567 4.89102 52.6119 4.81356C 52.9777 4.72504 53.1971 4.68078 53.2702 4.68078C 53.3434 4.68078 53.4008 4.69738 53.4426 4.73057C 53.4949 4.76377 53.521 4.80803 53.521 4.86336C 53.521 4.90762 53.474 4.96295 53.3799 5.02935C 53.2859 5.09574 53.2023 5.13447 53.1292 5.14553C 52.7008 5.17873 52.3194 5.35025 51.985 5.66009L 49.1794 8.78061L 49.4459 9.17897C 49.6862 9.54414 49.8482 9.78758 49.9318 9.9093C 50.0258 10.031 50.1721 10.2025 50.3706 10.4239C 50.5692 10.6341 50.7729 10.778 50.9819 10.8554C 51.1909 10.9218 51.3789 10.955 51.5461 10.955C 51.7133 10.955 51.8178 10.955 51.8596 10.955C 51.9119 10.9439 51.9536 10.9384 51.985 10.9384C 52.0268 10.9273 52.0686 10.9163 52.1104 10.9052C 52.1626 10.8831 52.1992 10.872 52.2201 10.872C 52.241 10.861 52.2776 10.8388 52.3298 10.8056C 52.3925 10.7503 52.4604 10.7005 52.5336 10.6562C 52.6903 10.5456 52.8209 10.4903 52.9254 10.4903C 53.0299 10.4903 53.0821 10.612 53.0821 10.8554C 53.0821 10.9107 52.9829 11.0103 52.7843 11.1542C 52.5963 11.298 52.3455 11.4364 52.032 11.5692C 51.7185 11.7019 51.4312 11.7683 51.17 11.7683C 50.6266 11.7683 50.1982 11.6355 49.8847 11.37C 49.5817 11.0933 49.2055 10.5843 48.7562 9.84291L 48.5525 9.49434C 48.4271 9.62713 48.2599 9.81525 48.0509 10.0587C 47.8524 10.3021 47.7166 10.4626 47.6434 10.54C 47.5703 10.6064 47.4449 10.7337 47.2672 10.9218C 47.0896 11.0989 46.9433 11.2206 46.8284 11.287C 46.7239 11.3423 46.5828 11.4198 46.4052 11.5194C 46.1126 11.6853 45.7469 11.7683 45.308 11.7683C 44.5662 11.7683 43.9236 11.5636 43.3802 11.1542C 42.8369 10.7337 42.5652 10.1749 42.5652 9.47774C 42.5652 7.90642 43.4429 6.69473 45.1983 5.84267L 45.5118 5.69329L 45.2767 5.42771C 44.6184 4.73057 44.2893 4.08323 44.2893 3.48568C 44.2893 2.87707 44.5035 2.40678 44.9319 2.07481C 45.3603 1.74284 45.8462 1.57686 46.3895 1.57686C 46.9329 1.57686 47.3979 1.73731 47.7845 2.05821C 48.1711 2.36805 48.3644 2.78302 48.3644 3.3031C 48.3644 3.81212 48.2286 4.26581 47.9569 4.66418C 47.6957 5.05148 47.3247 5.33918 46.8441 5.5273L 46.6246 5.61029L 46.7657 5.77628C 46.8911 5.9312 47.1993 6.27977 47.6904 6.82198C 48.192 7.35314 48.5629 7.80683 48.8033 8.18306L 48.9913 8.48183L 49.2735 8.16646C 49.6496 7.7349 50.031 7.24248 50.4176 6.68919C 50.8043 6.13591 50.9976 5.80948 50.9976 5.70988C 50.9976 5.61029 50.9558 5.5107 50.8722 5.41111C 50.7886 5.30045 50.705 5.23959 50.6214 5.22853C 50.5482 5.2064 50.4856 5.1732 50.4333 5.12894C 50.3915 5.08467 50.3706 5.05148 50.3706 5.02935C 50.3706 4.90762 50.4856 4.84676 50.7154 4.84676ZM 45.7469 5.97546L 45.4178 6.10825C 44.7177 6.39596 44.2631 6.81645 44.0542 7.36973C 43.8974 7.81236 43.8191 8.30478 43.8191 8.847C 43.8191 9.38922 43.9967 9.83184 44.352 10.1749C 44.7072 10.5179 45.1409 10.6894 45.6529 10.6894C 46.1649 10.6894 46.6194 10.5843 47.0165 10.3741C 47.4135 10.1527 47.8158 9.80971 48.2233 9.34496L 48.3644 9.19557L 48.1763 8.8802C 47.9046 8.43757 47.4971 7.92302 46.9538 7.33654C 46.4209 6.73899 46.0813 6.35722 45.935 6.19124L 45.7469 5.97546ZM 46.3582 5.27832L 46.5619 5.17873C 47.1366 4.90209 47.424 4.28795 47.424 3.3363C 47.424 3.01539 47.3195 2.72215 47.1105 2.45658C 46.9015 2.17994 46.6455 2.04162 46.3425 2.04162C 46.0395 2.04162 45.7783 2.13567 45.5588 2.32379C 45.3394 2.50084 45.2297 2.72769 45.2297 3.00433C 45.2297 3.54655 45.5275 4.21049 46.1231 4.99615L 46.3582 5.27832Z" transform="translate(529.93 328.928) scale(4)" fill="white"/>
<path d="M 74.2489 9.22877C 74.1549 10.0587 73.9773 10.6784 73.716 11.0878C 73.6742 11.1653 73.366 11.298 72.7913 11.4862C 72.227 11.6743 71.4016 11.7683 70.3149 11.7683C 68.9042 11.7683 67.7078 11.2151 66.7256 10.1085C 65.7434 9.00192 65.2523 7.67404 65.2523 6.12485C 65.2523 4.56459 65.8166 3.24224 66.945 2.1578C 68.0735 1.0623 69.411 0.514554 70.9575 0.514554C 71.6889 0.514554 72.2427 0.580948 72.6189 0.713735C 72.9951 0.846523 73.3921 0.946114 73.8101 1.01251C 73.925 1.02357 74.0034 1.26149 74.0452 1.72624C 74.0974 2.17994 74.1288 2.58383 74.1392 2.93793C 74.1497 3.28097 74.1392 3.49675 74.1079 3.58528C 74.087 3.6738 74.04 3.71253 73.9668 3.70147C 73.7578 3.67933 73.622 3.47462 73.5593 3.08732C 73.4966 2.5783 73.3137 2.1744 73.0107 1.87563C 72.4778 1.31128 71.6785 1.02911 70.6127 1.02911C 69.5573 1.02911 68.6587 1.50493 67.9168 2.45658C 67.1854 3.39716 66.8197 4.49819 66.8197 5.75968C 66.8197 6.67813 66.9764 7.55232 67.2899 8.38224C 67.6033 9.21217 68.0683 9.89824 68.6848 10.4405C 69.3118 10.9827 70.0171 11.2538 70.8007 11.2538C 72.0964 11.2538 73.0682 10.5843 73.716 9.24536C 73.7578 9.1679 73.831 9.10151 73.9355 9.04618C 74.04 8.97979 74.0974 8.94106 74.1079 8.92999C 74.1183 8.91893 74.1288 8.91339 74.1392 8.91339C 74.2124 8.91339 74.2489 9.01852 74.2489 9.22877Z" transform="translate(529.93 328.928) scale(4)" fill="white"/>
<path d="M 85.5963 6.34063C 85.5963 4.8025 85.262 3.55208 84.5932 2.58937C 83.9245 1.62665 83.0049 1.1453 81.8347 1.1453C 80.6644 1.1453 79.7448 1.59899 79.0761 2.50637C 78.4178 3.41376 78.0887 4.54246 78.0887 5.89247C 78.0887 7.23141 78.4648 8.43757 79.2172 9.51094C 79.98 10.5732 80.9308 11.1044 82.0698 11.1044C 83.2087 11.1044 84.0812 10.695 84.6872 9.87611C 85.2933 9.04618 85.5963 7.86769 85.5963 6.34063ZM 76.5683 6.20784C 76.5683 5.17873 76.7669 4.24368 77.1639 3.40269C 77.5714 2.55064 78.1932 1.8535 79.0291 1.31128C 79.865 0.769064 80.8472 0.497956 81.9757 0.497956C 83.3759 0.497956 84.5828 1.01251 85.5963 2.04162C 86.6099 3.05966 87.1167 4.36541 87.1167 5.95886C 87.1167 7.51912 86.6673 8.85807 85.7687 9.9757C 85.3403 10.5179 84.7865 10.9495 84.1073 11.2704C 83.4281 11.5913 82.6758 11.7517 81.8503 11.7517C 80.4397 11.7517 79.2067 11.2151 78.1514 10.1417C 77.096 9.06831 76.5683 7.75703 76.5683 6.20784Z" transform="translate(529.93 328.928) scale(4)" fill="white"/>
<path d="M 92.838 0.730334L 95.5181 0.697137L 96.1294 0.697137L 96.3645 0.680539C 96.5421 0.680539 96.6362 0.730334 96.6466 0.829925C 96.6989 1.15083 96.725 1.70411 96.725 2.48977C 96.725 2.72215 96.678 2.83834 96.5839 2.83834C 96.4586 2.83834 96.3802 2.77195 96.3488 2.63916C 96.2235 2.2408 96.1033 1.96969 95.9883 1.82584C 95.7376 1.52706 95.3875 1.37768 94.9382 1.37768L 92.9477 1.37768C 92.7909 1.37768 92.6708 1.42194 92.5872 1.51046C 92.514 1.59899 92.467 1.69305 92.4461 1.79264C 92.4357 1.89223 92.4252 2.05821 92.4148 2.29059C 92.4043 2.51191 92.3991 3.00433 92.3991 3.76786C 92.3991 4.53139 92.3991 5.04041 92.3991 5.29492C 92.4096 5.54943 92.467 5.67669 92.5715 5.67669L 94.3896 5.62689C 94.8494 5.62689 95.1681 5.41111 95.3457 4.97955C 95.3666 4.93529 95.4084 4.87996 95.4711 4.81356C 95.5443 4.7361 95.5965 4.69738 95.6279 4.69738C 95.6697 4.69738 95.7167 4.72504 95.7689 4.78037C 95.8212 4.8357 95.8368 4.97955 95.8159 5.21193C 95.795 5.43324 95.7846 5.66562 95.7846 5.90907C 95.7846 6.15251 95.8003 6.51768 95.8316 7.00457C 95.8316 7.19268 95.7846 7.28674 95.6905 7.28674C 95.5234 7.28674 95.4032 7.15949 95.3301 6.90498C 95.1942 6.47341 94.9487 6.25763 94.5934 6.25763C 94.5934 6.25763 94.3322 6.2521 93.8097 6.24104C 93.5694 6.24104 93.2298 6.2521 92.7909 6.27423C 92.5402 6.29636 92.4148 6.43468 92.4148 6.68919C 92.4148 8.06134 92.4305 9.11258 92.4618 9.84291C 92.4827 10.2191 92.5663 10.5124 92.7126 10.7226C 92.8589 10.9218 93.1096 11.0546 93.4649 11.121C 93.8306 11.1874 94.0135 11.287 94.0135 11.4198C 94.0135 11.5415 93.862 11.6024 93.5589 11.6024C 93.2559 11.6024 92.9686 11.5802 92.6969 11.536C 92.4252 11.5028 92.2006 11.4862 92.0229 11.4862L 90.0481 11.6024C 89.745 11.6024 89.5935 11.5415 89.5935 11.4198C 89.5935 11.287 89.7764 11.1874 90.1421 11.121C 90.5183 11.0435 90.7795 10.9163 90.9258 10.7392C 91.0825 10.5511 91.1609 10.2579 91.1609 9.85951L 91.1609 2.85494C 91.1609 2.32379 91.093 1.93096 90.9571 1.67645C 90.8317 1.42194 90.5862 1.26149 90.2205 1.19509C 89.8652 1.1287 89.6876 1.01804 89.6876 0.863121C 89.6876 0.741399 89.8391 0.680539 90.1421 0.680539L 92.838 0.730334Z" transform="translate(529.93 328.928) scale(4)" fill="white"/>
<path d="M 102.165 0.730334L 104.845 0.697137L 105.456 0.697137L 105.691 0.680539C 105.869 0.680539 105.963 0.730334 105.973 0.829925C 106.025 1.15083 106.052 1.70411 106.052 2.48977C 106.052 2.72215 106.005 2.83834 105.911 2.83834C 105.785 2.83834 105.707 2.77195 105.675 2.63916C 105.55 2.2408 105.43 1.96969 105.315 1.82584C 105.064 1.52706 104.714 1.37768 104.265 1.37768L 102.274 1.37768C 102.118 1.37768 101.997 1.42194 101.914 1.51046C 101.841 1.59899 101.794 1.69305 101.773 1.79264C 101.762 1.89223 101.752 2.05821 101.741 2.29059C 101.731 2.51191 101.726 3.00433 101.726 3.76786C 101.726 4.53139 101.726 5.04041 101.726 5.29492C 101.736 5.54943 101.794 5.67669 101.898 5.67669L 103.716 5.62689C 104.176 5.62689 104.495 5.41111 104.672 4.97955C 104.693 4.93529 104.735 4.87996 104.798 4.81356C 104.871 4.7361 104.923 4.69738 104.954 4.69738C 104.996 4.69738 105.043 4.72504 105.096 4.78037C 105.148 4.8357 105.163 4.97955 105.143 5.21193C 105.122 5.43324 105.111 5.66562 105.111 5.90907C 105.111 6.15251 105.127 6.51768 105.158 7.00457C 105.158 7.19268 105.111 7.28674 105.017 7.28674C 104.85 7.28674 104.73 7.15949 104.657 6.90498C 104.521 6.47341 104.275 6.25763 103.92 6.25763C 103.92 6.25763 103.659 6.2521 103.136 6.24104C 102.896 6.24104 102.556 6.2521 102.118 6.27423C 101.867 6.29636 101.741 6.43468 101.741 6.68919C 101.741 8.06134 101.757 9.11258 101.788 9.84291C 101.809 10.2191 101.893 10.5124 102.039 10.7226C 102.185 10.9218 102.436 11.0546 102.791 11.121C 103.157 11.1874 103.34 11.287 103.34 11.4198C 103.34 11.5415 103.189 11.6024 102.886 11.6024C 102.583 11.6024 102.295 11.5802 102.023 11.536C 101.752 11.5028 101.527 11.4862 101.35 11.4862L 99.3747 11.6024C 99.0716 11.6024 98.9201 11.5415 98.9201 11.4198C 98.9201 11.287 99.103 11.1874 99.4687 11.121C 99.8449 11.0435 100.106 10.9163 100.252 10.7392C 100.409 10.5511 100.487 10.2579 100.487 9.85951L 100.487 2.85494C 100.487 2.32379 100.42 1.93096 100.284 1.67645C 100.158 1.42194 99.9128 1.26149 99.5471 1.19509C 99.1918 1.1287 99.0142 1.01804 99.0142 0.863121C 99.0142 0.741399 99.1657 0.680539 99.4687 0.680539L 102.165 0.730334Z" transform="translate(529.93 328.928) scale(4)" fill="white"/>
<path d="M 114.25 5.92566L 114.281 7.05436C 114.281 7.24248 114.234 7.33654 114.14 7.33654C 113.973 7.33654 113.853 7.20928 113.779 6.95477C 113.623 6.45682 113.382 6.20784 113.059 6.20784L 111.601 6.20784C 111.402 6.20784 111.261 6.2355 111.178 6.29083C 111.105 6.34616 111.068 6.46235 111.068 6.6394L 111.068 9.82631C 111.068 10.2357 111.146 10.5234 111.303 10.6894C 111.47 10.8554 111.737 10.9384 112.102 10.9384L 113.732 10.9384C 114.286 10.9384 114.673 10.8499 114.892 10.6728C 115.112 10.4847 115.342 10.1251 115.582 9.59393C 115.645 9.47221 115.728 9.42241 115.833 9.44455C 115.948 9.45561 116.005 9.51094 116.005 9.61053C 116.005 10.0532 115.916 10.623 115.739 11.3202C 115.697 11.5083 115.624 11.6024 115.519 11.6024L 110.394 11.5028L 108.592 11.6024C 108.289 11.6024 108.137 11.5415 108.137 11.4198C 108.137 11.287 108.325 11.1874 108.701 11.121C 109.077 11.0435 109.354 10.9163 109.532 10.7392C 109.72 10.5511 109.814 10.2634 109.814 9.87611L 109.814 2.40678C 109.814 2.01948 109.736 1.74284 109.579 1.57686C 109.433 1.39981 109.171 1.27808 108.795 1.21169C 108.43 1.13423 108.247 1.01804 108.247 0.863121C 108.247 0.741399 108.398 0.680539 108.701 0.680539L 111.475 0.730334L 114.955 0.680539C 115.133 0.680539 115.227 0.730334 115.237 0.829925C 115.394 1.72624 115.472 2.27953 115.472 2.48977C 115.472 2.68896 115.399 2.78855 115.253 2.78855C 115.169 2.78855 115.112 2.73322 115.08 2.62256C 114.924 2.10248 114.809 1.79817 114.736 1.70965C 114.485 1.41087 114.135 1.26149 113.685 1.26149L 111.632 1.26149C 111.528 1.26149 111.408 1.31682 111.272 1.42747C 111.136 1.52706 111.068 1.64878 111.068 1.79264L 111.068 5.31152C 111.068 5.41111 111.094 5.49964 111.146 5.5771C 111.209 5.64349 111.277 5.67669 111.35 5.67669L 112.855 5.67669C 113.315 5.67669 113.633 5.46091 113.811 5.02935C 113.832 4.98508 113.874 4.92975 113.936 4.86336C 114.009 4.7859 114.062 4.74717 114.093 4.74717C 114.135 4.74717 114.177 4.77483 114.218 4.83016C 114.271 4.87443 114.297 4.93529 114.297 5.01275L 114.25 5.92566Z" transform="translate(529.93 328.928) scale(4)" fill="white"/>
<path d="M 123.944 5.92566L 123.975 7.05436C 123.975 7.24248 123.928 7.33654 123.834 7.33654C 123.667 7.33654 123.547 7.20928 123.473 6.95477C 123.317 6.45682 123.076 6.20784 122.752 6.20784L 121.295 6.20784C 121.096 6.20784 120.955 6.2355 120.872 6.29083C 120.798 6.34616 120.762 6.46235 120.762 6.6394L 120.762 9.82631C 120.762 10.2357 120.84 10.5234 120.997 10.6894C 121.164 10.8554 121.431 10.9384 121.796 10.9384L 123.426 10.9384C 123.98 10.9384 124.367 10.8499 124.586 10.6728C 124.806 10.4847 125.036 10.1251 125.276 9.59393C 125.339 9.47221 125.422 9.42241 125.527 9.44455C 125.642 9.45561 125.699 9.51094 125.699 9.61053C 125.699 10.0532 125.61 10.623 125.433 11.3202C 125.391 11.5083 125.318 11.6024 125.213 11.6024L 120.088 11.5028L 118.285 11.6024C 117.982 11.6024 117.831 11.5415 117.831 11.4198C 117.831 11.287 118.019 11.1874 118.395 11.121C 118.771 11.0435 119.048 10.9163 119.226 10.7392C 119.414 10.5511 119.508 10.2634 119.508 9.87611L 119.508 2.40678C 119.508 2.01948 119.43 1.74284 119.273 1.57686C 119.127 1.39981 118.865 1.27808 118.489 1.21169C 118.124 1.13423 117.941 1.01804 117.941 0.863121C 117.941 0.741399 118.092 0.680539 118.395 0.680539L 121.169 0.730334L 124.649 0.680539C 124.827 0.680539 124.921 0.730334 124.931 0.829925C 125.088 1.72624 125.166 2.27953 125.166 2.48977C 125.166 2.68896 125.093 2.78855 124.947 2.78855C 124.863 2.78855 124.806 2.73322 124.774 2.62256C 124.618 2.10248 124.503 1.79817 124.43 1.70965C 124.179 1.41087 123.829 1.26149 123.379 1.26149L 121.326 1.26149C 121.222 1.26149 121.101 1.31682 120.966 1.42747C 120.83 1.52706 120.762 1.64878 120.762 1.79264L 120.762 5.31152C 120.762 5.41111 120.788 5.49964 120.84 5.5771C 120.903 5.64349 120.971 5.67669 121.044 5.67669L 122.549 5.67669C 123.008 5.67669 123.327 5.46091 123.505 5.02935C 123.526 4.98508 123.567 4.92975 123.63 4.86336C 123.703 4.7859 123.756 4.74717 123.787 4.74717C 123.829 4.74717 123.87 4.77483 123.912 4.83016C 123.965 4.87443 123.991 4.93529 123.991 5.01275L 123.944 5.92566Z" transform="translate(529.93 328.928) scale(4)" fill="white"/>
</g>
</g>
</g>
</g>
</svg>

