<svg width="1592" height="556" viewBox="0 0 1592 556" fill="none" xmlns="http://www.w3.org/2000/svg">
<path fill-rule="evenodd" clip-rule="evenodd" d="M19.6657 0C19.6657 0 16.3973 9.23416 15.3441 13.1329C12.808 22.5213 15.3441 24.1797 15.3441 25.2984C15.3441 27.6732 15.3441 41.3774 15.3441 41.3774C15.3441 41.3774 26.0492 58.8591 28.3216 63.8783C32.2168 72.4819 33.6725 68.2847 38.3367 73.5671C43.9064 79.875 39.0452 92.116 29.6856 111.629C26.6347 117.989 33.236 128.795 33.236 128.795C33.236 128.795 19.4171 125.82 21.2609 117.084C23.1047 108.349 21.2609 100.155 21.2609 100.155C21.2609 100.155 19.7163 91.7973 17.709 82.5309C15.7016 73.2644 4.43785 63.8783 4.43785 63.8783C4.43785 63.8783 0 50.3583 0 41.3774C0 32.3966 4.43785 12.9053 4.43785 12.9053C4.43785 12.9053 9.47558 6.15127 12.7812 3.0818C16.0867 0.0123248 19.6657 0 19.6657 0Z" transform="matrix(1.28918 1.53093 -1.53324 1.28197 233.586 90.959)" fill="#405824"/>
<path fill-rule="evenodd" clip-rule="evenodd" d="M5.93318 50.0077C5.93318 50.0077 6.82292 32.503 5.93318 25.0039C5.04344 17.5047 0 0 0 0C0 0 3.85291 8.16035 5.93318 14.0535C8.01345 19.9467 8.82628 25.0039 8.82628 25.0039C8.82628 25.0039 9.17865 33.5411 8.82628 36.5865C8.47391 39.6319 5.93318 50.0077 5.93318 50.0077Z" transform="matrix(1.28918 1.53093 -1.53324 1.28197 149.91 209.352)" fill="#1F2C11"/>
<path fill-rule="evenodd" clip-rule="evenodd" d="M0.371788 1.23393C-1.07558 -5.0025 2.06737 14.2541 3.56192 17.7157C4.01097 18.7558 4.89115 21.2991 5.39299 22.2269C6.79151 24.8126 9.79868 27.1164 9.79868 27.1164L17.5038 30.0544C17.5038 30.0544 12.4036 27.8001 9.79868 23.6427C7.42319 19.8516 2.93904 12.2957 0.371788 1.23393Z" transform="matrix(1.1215 1.65678 -1.65936 1.11527 182.414 143.676)" fill="#253C0C"/>
<path fill-rule="evenodd" clip-rule="evenodd" d="M23.0209 78.8316C24.0138 71.8773 23.555 62.4718 20.2988 52.9557C19.218 49.7973 17.7392 50.5496 14.9833 44.7987C13.2949 41.2755 8.80322 34.2532 8.80322 34.2532C8.80322 34.2532 3.83564 26.8831 2.06935 21.1429C0.303052 15.4028 0 0 0 0C0 0 3.42777 17.8228 6.36599 24.4861C9.3042 31.1494 12.5522 34.2532 12.5522 34.2532C12.5522 34.2532 16.6672 37.823 18.4662 41.7527C20.2652 45.6824 23.0209 48.9332 23.0209 48.9332C23.0209 48.9332 26.1957 54.9545 26.4118 58.2155C27.5912 76.0128 23.0587 84.0602 21.9607 82.6871C21.5892 82.2226 22.591 81.8425 23.0209 78.8316Z" transform="matrix(1.28918 1.53093 -1.53324 1.28197 205.344 132.165)" fill="#384B21"/>
<path fill-rule="evenodd" clip-rule="evenodd" d="M11.0645 0C11.0645 0 9.22562 6.93836 8.63306 9.8678C7.20614 16.9221 8.63306 18.1682 8.63306 19.0087C8.63306 20.7931 8.63306 31.0902 8.63306 31.0902C8.63306 31.0902 14.6561 44.2256 15.9346 47.9969C18.1261 54.4614 18.1777 61.9825 20.8019 65.9516C23.9356 70.6913 21.2006 79.8889 15.9346 94.5503C14.2181 99.3294 11.1151 110.972 11.1151 110.972C11.1151 110.972 10.1572 105.213 11.1946 98.6496C12.232 92.0858 11.1946 85.9289 11.1946 85.9289C11.1946 85.9289 11.093 68.9747 9.9636 62.012C8.83419 55.0494 2.49687 47.9969 2.49687 47.9969C2.49687 47.9969 0 37.8382 0 31.0902C0 24.3421 2.49687 9.69675 2.49687 9.69675C2.49687 9.69675 5.33125 4.62194 7.19106 2.3156C9.05088 0.00926074 11.0645 0 11.0645 0Z" transform="matrix(-0.586649 -1.91203 -1.91319 0.582843 408.473 60.1963)" fill="#405824"/>
<path fill-rule="evenodd" clip-rule="evenodd" d="M2.91687 37.7304C2.91687 37.7304 3.35428 24.5233 2.91687 18.8652C2.47945 13.2071 0 0 0 0C0 0 1.89416 6.15692 2.91687 10.6033C3.93957 15.0496 4.33917 18.8652 4.33917 18.8652C4.33917 18.8652 4.5124 25.3065 4.33917 27.6042C4.16594 29.9019 2.91687 37.7304 2.91687 37.7304Z" transform="matrix(-0.58665 -1.91203 -1.91319 0.582842 300.52 69.9854)" fill="#1F2C11"/>
<path fill-rule="evenodd" clip-rule="evenodd" d="M0.188018 0.911199C-0.543937 -3.6941 1.0455 10.5259 1.80131 13.0822C2.0284 13.8503 2.47352 15.7283 2.7273 16.4135C3.43456 18.3229 4.95532 20.0241 4.95532 20.0241L8.8519 22.1937C8.8519 22.1937 6.27268 20.529 4.95532 17.459C3.754 14.6594 1.48631 9.07978 0.188018 0.911199Z" transform="matrix(-0.783982 -1.84039 -1.84163 0.778949 352.045 70.2988)" fill="#253C0C"/>
<path fill-rule="evenodd" clip-rule="evenodd" d="M13.4238 63.6041C13.9961 58.4321 13.7316 51.4371 11.8547 44.3598C11.2318 42.0108 10.225 37.5946 8.63649 33.3175C7.66329 30.6973 5.07425 25.4747 5.07425 25.4747C5.07425 25.4747 2.2109 19.9934 1.19279 15.7243C0.174682 11.4553 0 0 0 0C0 0 1.9758 13.2551 3.66941 18.2107C5.36303 23.1663 7.23519 25.4747 7.23519 25.4747C7.23519 25.4747 9.6071 28.1296 10.6441 31.0522C11.681 33.9748 13.4238 41.3682 13.4238 41.3682C13.4238 41.3682 15.2538 45.8463 15.3783 48.2716C16.0581 61.5077 13.4456 67.4927 12.8127 66.4715C12.5985 66.126 13.176 65.8434 13.4238 63.6041Z" transform="matrix(-0.586649 -1.91203 -1.91319 0.582843 371.902 62.0879)" fill="#384B21"/>
<path fill-rule="evenodd" clip-rule="evenodd" d="M19.6574 0C19.6574 0 16.3904 9.23802 15.3377 13.1384C12.8026 22.5307 15.3377 24.1898 15.3377 25.309C15.3377 27.6848 15.3377 41.3947 15.3377 41.3947C15.3377 41.3947 26.0383 58.8838 28.3097 63.905C32.2033 72.5122 32.2949 82.5261 36.9572 87.8107C42.5245 94.1213 37.6654 106.367 28.3097 125.888C25.2601 132.251 19.7474 147.753 19.7474 147.753C19.7474 147.753 18.0456 140.085 19.8886 131.346C21.7316 122.607 19.8886 114.409 19.8886 114.409C19.8886 114.409 19.7081 91.8357 17.7015 82.5654C15.695 73.295 4.43599 63.905 4.43599 63.905C4.43599 63.905 0 50.3793 0 41.3947C0 32.4101 4.43599 12.9107 4.43599 12.9107C4.43599 12.9107 9.4716 6.15385 12.7758 3.08309C16.08 0.01233 19.6574 0 19.6574 0Z" transform="matrix(0.783984 1.84039 1.84163 -0.778947 188.607 164.424)" fill="#405824"/>
<path fill-rule="evenodd" clip-rule="evenodd" d="M5.93069 50.0286C5.93069 50.0286 6.82006 32.5166 5.93069 25.0143C5.04132 17.512 0 0 0 0C0 0 3.85129 8.16376 5.93069 14.0594C8.01009 19.955 8.82258 25.0143 8.82258 25.0143C8.82258 25.0143 9.1748 33.5551 8.82258 36.6018C8.47035 39.6485 5.93069 50.0286 5.93069 50.0286Z" transform="matrix(0.783985 1.84039 1.84163 -0.778946 332.459 143.883)" fill="#1F2C11"/>
<path fill-rule="evenodd" clip-rule="evenodd" d="M0.371635 1.23444C-1.07514 -5.00455 2.06652 14.2599 3.56046 17.723C4.00933 18.7635 4.88914 21.3078 5.39077 22.236C6.78872 24.8227 9.79467 27.1275 9.79467 27.1275L17.4966 30.0667C17.4966 30.0667 12.3986 27.8115 9.79467 23.6524C7.42014 19.8597 2.93784 12.3007 0.371635 1.23444Z" transform="matrix(0.97272 1.74859 1.74988 -0.966526 258.986 142.917)" fill="#253C0C"/>
<path fill-rule="evenodd" clip-rule="evenodd" d="M23.2789 85.5577C24.2714 78.6005 23.8127 69.191 20.5579 59.671C19.4776 56.5112 17.7318 50.5706 14.977 44.8174C13.2893 41.2927 8.79953 34.2675 8.79953 34.2675C8.79953 34.2675 3.83403 26.8943 2.06848 21.1517C0.302925 15.4092 0 0 0 0C0 0 3.42633 17.8302 6.36332 24.4963C9.30031 31.1624 12.5469 34.2675 12.5469 34.2675C12.5469 34.2675 16.6602 37.8387 18.4584 41.7701C20.2567 45.7014 23.2789 55.6468 23.2789 55.6468C23.2789 55.6468 26.4524 61.6706 26.6684 64.9329C27.8473 82.7376 23.3167 90.7885 22.2191 89.4148C21.8478 88.95 22.8492 88.5698 23.2789 85.5577Z" transform="matrix(0.783983 1.84039 1.84163 -0.778948 238.279 158.042)" fill="#384B21"/>
<path d="M21.7577 8.38815L48.3332 7.14546C68.3295 7.14546 83.1455 11.702 92.781 20.815C102.417 29.9281 107.234 41.889 107.234 56.6977C107.234 71.4029 101.899 84.0886 91.2269 94.7551C80.6589 105.318 67.9669 110.599 53.1509 110.599C52.8401 110.599 48.5922 110.392 40.4071 109.978C32.2221 109.667 25.6948 109.512 20.8252 109.512L4.50695 110.289C1.50232 110.289 0 109.719 0 108.58C0 107.337 1.81314 106.405 5.43942 105.784C9.16931 105.059 11.7595 103.868 13.21 102.211C14.7641 100.554 15.5412 97.8618 15.5412 94.1337V24.2324C15.5412 20.6079 14.7641 18.019 13.21 16.4656C11.7595 14.8087 9.16931 13.6696 5.43942 13.0482C1.81314 12.3233 0 11.236 0 9.78617C0 8.64704 1.50232 8.07748 4.50695 8.07748L20.6698 8.38815H21.7577ZM27.9742 90.7163C27.9742 96.8262 30.409 100.813 35.2785 102.677C39.6301 104.334 44.9659 105.163 51.286 105.163C63.4081 105.163 73.3027 100.865 80.9697 92.2697C88.6367 83.6744 92.4702 72.4384 92.4702 58.5617C92.4702 44.685 88.0669 33.449 79.2602 24.8538C70.5571 16.2585 60.5071 11.9609 49.1102 11.9609C39.2675 11.9609 33.3618 12.6858 31.3932 14.1356C29.1139 15.689 27.9742 18.1226 27.9742 21.4364V90.7163Z" transform="translate(211.924 214.154) scale(2)" fill="#1F2C11"/>
<path d="M132.863 109.201L120.274 109.978C118.202 109.978 117.166 109.512 117.166 108.58C117.166 107.544 118.099 106.716 119.964 106.095C121.829 105.473 123.072 105.059 123.693 104.852C124.315 104.541 124.937 103.972 125.558 103.143C126.284 102.315 126.646 101.227 126.646 99.8812V66.4839C126.646 59.9598 124.522 56.2317 120.274 55.2997C119.446 55.0926 119.031 54.4712 119.031 53.4356C119.031 52.2965 119.394 51.6234 120.119 51.4163C124.056 50.5878 126.957 49.5522 128.822 48.3096C132.345 46.0313 134.676 44.5815 135.816 43.9601C136.955 43.2352 137.525 42.8728 137.525 42.8728C137.525 42.7692 137.629 42.7174 137.836 42.7174C138.147 42.7174 138.406 43.0799 138.613 43.8048C138.613 46.6008 138.509 49.2933 138.302 51.8823C138.199 54.4712 138.199 55.7657 138.302 55.7657C138.509 55.7657 138.82 55.5068 139.235 54.989C140.685 53.2285 141.618 52.1929 142.032 51.8823C147.005 47.4293 151.771 45.2028 156.33 45.2028C158.506 45.2028 160.267 45.6688 161.614 46.6009C163.065 47.5329 163.79 48.7756 163.79 50.3289C163.79 51.8823 163.116 53.591 161.769 55.455C160.526 57.319 159.335 58.2511 158.195 58.2511C157.055 58.2511 155.398 57.7851 153.222 56.853C151.046 55.921 149.44 55.455 148.404 55.455C145.399 55.455 142.809 56.4388 140.633 58.4064C138.561 60.374 137.525 63.7396 137.525 68.5033V99.1045C137.629 101.901 140.426 104.127 145.917 105.784C148.3 106.612 149.492 107.544 149.492 108.58C149.492 109.512 148.456 109.978 146.384 109.978L132.863 109.201Z" transform="translate(211.924 214.154) scale(2)" fill="#1F2C11"/>
<path d="M182.437 95.9978C182.437 98.6902 183.266 100.813 184.923 102.367C186.581 103.816 188.601 104.541 190.984 104.541C193.367 104.541 196.165 103.143 199.377 100.347C200.516 99.4152 201.138 97.344 201.242 94.1337L201.552 86.5222C201.656 84.3475 201.19 83.2602 200.154 83.2602C199.428 83.2602 198.703 83.4155 197.978 83.7262C187.617 87.2471 182.437 91.3377 182.437 95.9978ZM182.592 60.7364L182.748 62.9111C182.748 63.8432 181.245 64.9823 178.241 66.3285C175.34 67.6748 173.371 68.3479 172.335 68.3479C171.299 68.3479 170.781 67.8819 170.781 66.9499C170.781 63.4289 172.542 60.1151 176.065 57.0084C179.691 53.7981 183.68 51.0538 188.032 48.7756C192.383 46.3937 196.372 45.2028 199.998 45.2028C203.728 45.2028 206.836 46.5491 209.323 49.2416C211.81 51.9341 213.001 55.1961 212.898 59.0277L212.12 92.5804V93.5124C212.12 100.865 213.985 104.541 217.715 104.541C220.306 104.541 222.378 103.816 223.932 102.367C224.346 101.952 224.864 101.952 225.486 102.367C226.108 102.677 226.418 103.143 226.418 103.765V103.92C225.797 105.266 224.191 106.923 221.601 108.891C219.01 110.755 216.42 111.687 213.83 111.687C211.343 111.687 209.219 111.014 207.458 109.667C205.8 108.321 204.609 106.975 203.884 105.629C203.158 104.282 202.692 103.609 202.485 103.609C202.071 103.609 201.138 104.282 199.688 105.629C198.237 106.975 196.061 108.321 193.16 109.667C190.363 111.014 187.203 111.687 183.68 111.687C180.261 111.687 177.101 110.392 174.2 107.803C171.403 105.214 170.004 102.418 170.004 99.4151C170.004 93.2017 173.786 88.5416 181.349 85.4349L197.201 78.9108C199.169 78.0823 200.361 77.3574 200.775 76.7361C201.19 76.1147 201.449 74.7685 201.552 72.6973L201.863 63.0665V62.7558C201.863 60.0633 200.983 57.7333 199.221 55.7657C197.564 53.7981 195.595 52.8143 193.316 52.8143C191.14 52.8143 189.068 53.3839 187.099 54.523C185.131 55.5586 183.887 56.5424 183.369 57.4744C182.851 58.4064 182.592 59.4938 182.592 60.7364Z" transform="translate(211.924 214.154) scale(2)" fill="#1F2C11"/>
<path d="M239.382 130.327C239.382 135.608 241.143 139.906 244.666 143.22C248.292 146.637 253.162 148.346 259.275 148.346C265.388 148.346 270.723 146.275 275.282 142.133C279.841 137.99 282.12 132.761 282.12 126.444C282.12 123.855 280.825 121.68 278.235 119.92C275.748 118.159 272.744 116.916 269.221 116.191C265.698 115.57 260.777 115.104 254.457 114.793H250.882C249.639 115.622 247.049 118.004 243.112 121.939C240.625 124.838 239.382 127.635 239.382 130.327ZM272.485 68.6586C272.485 63.5843 271.086 59.1313 268.289 55.2997C265.491 51.468 262.02 49.5522 257.876 49.5522C253.732 49.5522 250.416 51.5198 247.93 55.455C245.443 59.2866 244.2 63.5325 244.2 68.1926C244.2 72.8527 245.547 77.2539 248.24 81.3962C251.038 85.5385 254.457 87.6096 258.498 87.6096C262.538 87.6096 265.854 85.6938 268.444 81.8622C271.138 78.0305 272.485 73.6293 272.485 68.6586ZM284.607 49.7076L289.58 49.5522C290.823 49.5522 291.911 49.604 292.844 49.7076C293.776 49.8111 294.242 50.7949 294.242 52.659C294.242 54.4194 293.776 55.2997 292.844 55.2997C289.01 55.2997 286.834 55.4032 286.316 55.6103C285.798 55.8175 285.384 56.0246 285.073 56.2317C284.762 56.3353 284.4 56.4388 283.985 56.5424C283.571 57.6815 283.364 60.0633 283.364 63.6878C283.364 71.4546 280.877 78.2894 275.904 84.1922C270.931 90.095 264.714 93.0464 257.254 93.0464C253.939 93.0464 251.141 92.425 248.862 91.1823C244.303 94.7033 242.024 97.2404 242.024 98.7938C242.024 102.108 246.997 104.231 256.944 105.163C270.413 106.405 278.287 107.544 280.566 108.58C282.949 109.616 285.073 110.703 286.938 111.842C290.046 113.81 291.6 117.02 291.6 121.473C291.6 129.757 287.819 137.317 280.255 144.152C272.796 151.09 265.077 154.559 257.099 154.559C249.225 154.559 242.438 153.161 236.74 150.365C231.145 147.569 228.348 143.065 228.348 136.851C228.348 133.641 229.125 130.845 230.679 128.463C232.337 126.185 235.03 123.855 238.76 121.473C242.594 119.091 245.288 116.709 246.842 114.327C243.319 113.603 240.107 112.256 237.206 110.289C234.305 108.425 232.855 105.887 232.855 102.677C232.855 100.71 234.046 98.7938 236.429 96.9298C237.051 96.5155 238.035 95.8942 239.382 95.0657C242.179 93.4088 244.252 91.6483 245.598 89.7843C244.148 89.4736 242.179 88.1274 239.693 85.7456C234.616 80.9819 232.078 75.2345 232.078 68.5033C232.078 61.772 234.875 56.1799 240.47 51.7269C246.065 47.1704 252.488 44.8922 259.741 44.8922C262.331 44.8922 265.388 45.4617 268.91 46.6009C275.438 48.672 280.67 49.7076 284.607 49.7076Z" transform="translate(211.924 214.154) scale(2)" fill="#1F2C11"/>
<path d="M331.008 50.0182C318.575 50.0182 312.359 58.976 312.359 76.8914C312.359 84.8653 314.431 91.9072 318.575 98.0171C322.72 104.023 327.796 107.027 333.806 107.027C341.576 107.027 346.912 104.179 349.813 98.4831C351.885 94.4444 352.921 88.4381 352.921 80.4641C352.921 72.4902 350.849 65.4483 346.705 59.3384C342.561 53.125 337.328 50.0182 331.008 50.0182ZM299.615 80.6195C299.615 71.61 302.931 63.4807 309.561 56.2317C316.296 48.8791 324.222 45.2028 333.339 45.2028C342.457 45.2028 350.124 48.3096 356.34 54.523C362.557 60.6329 365.665 68.2444 365.665 77.3574C365.665 86.4705 362.557 94.4962 356.34 101.435C350.228 108.269 341.628 111.687 330.542 111.687C321.735 111.687 314.379 108.735 308.474 102.833C302.568 96.9298 299.615 89.5254 299.615 80.6195Z" transform="translate(211.924 214.154) scale(2)" fill="#1F2C11"/>
<path d="M434.065 109.201L421.321 109.978C419.249 109.978 418.213 109.512 418.213 108.58C418.213 107.544 419.404 106.612 421.787 105.784C421.891 105.784 422.098 105.732 422.409 105.629C425.828 104.593 427.796 103.195 428.314 101.435C428.418 100.917 428.47 100.399 428.47 99.8812V67.2606C428.47 62.8076 427.175 59.2866 424.585 56.6977C421.994 54.1088 418.161 52.8143 413.084 52.8143C408.111 52.8143 404.018 53.9016 400.807 56.0764C397.595 58.2511 395.989 62.1862 395.989 67.8819V99.8812C395.989 101.952 396.61 103.299 397.854 103.92C399.201 104.541 400.91 105.214 402.982 105.939C405.158 106.664 406.246 107.544 406.246 108.58C406.246 109.512 405.21 109.978 403.138 109.978L390.549 109.201L377.961 109.978C375.889 109.978 374.853 109.512 374.853 108.58C374.853 107.544 375.682 106.768 377.339 106.25C379.101 105.629 380.085 105.318 380.292 105.318C380.603 105.214 381.173 104.955 382.002 104.541C382.831 104.127 383.349 103.765 383.556 103.454C384.592 102.315 385.11 101.124 385.11 99.8812V66.4839C385.11 59.8562 382.986 56.1281 378.738 55.2997C377.909 55.0926 377.495 54.4194 377.495 53.2803C377.495 52.1412 377.857 51.5198 378.583 51.4163C383.97 50.1736 389.669 47.3258 395.678 42.8728C395.782 42.7692 395.937 42.7174 396.144 42.7174C396.455 42.7174 396.766 43.1834 397.077 44.1155L395.989 54.2123C395.989 54.9372 396.041 55.3515 396.144 55.455C399.045 53.0732 402.931 50.7949 407.8 48.6202C412.773 46.342 417.591 45.2028 422.253 45.2028C426.916 45.2028 430.905 47.274 434.22 51.4163C437.639 55.5586 439.349 60.6847 439.349 66.7945V99.8812C439.349 101.952 439.97 103.299 441.214 103.92C442.561 104.541 444.27 105.214 446.342 105.939C448.518 106.664 449.606 107.544 449.606 108.58C449.606 109.512 448.57 109.978 446.498 109.978L434.065 109.201Z" transform="translate(211.924 214.154) scale(2)" fill="#1F2C11"/>
<path d="M548.191 47.3775L557.205 46.6009C559.277 46.6009 560.313 47.1186 560.313 48.1542C560.313 49.0862 559.121 49.9665 556.738 50.7949C553.837 51.6234 551.092 55.0408 548.501 61.0471L527.21 111.997C526.899 112.722 526.485 113.085 525.967 113.085C525.449 113.085 524.982 112.722 524.568 111.997L508.405 71.9206C507.783 70.3673 507.11 70.4191 506.385 72.076L489.445 111.997C489.03 112.722 488.564 113.085 488.046 113.085C487.632 113.085 487.321 112.722 487.114 111.997L465.511 58.4064C463.957 54.4712 461.263 51.9341 457.43 50.7949C455.047 49.9665 453.856 49.0862 453.856 48.1542C453.856 47.1186 454.892 46.6009 456.964 46.6009L468.309 47.3775C476.183 46.8597 480.794 46.6009 482.14 46.6009C483.591 46.6009 484.316 47.1186 484.316 48.1542C484.316 49.0862 483.125 49.9665 480.742 50.7949C478.566 51.4163 477.478 53.4874 477.478 57.0084C477.478 58.3546 477.737 59.7009 478.255 61.0471L490.066 91.493C490.792 93.4606 491.569 93.4088 492.398 91.3377L502.655 66.3285C503.277 64.6716 503.587 62.8076 503.587 60.7364C503.587 58.6653 502.758 56.6459 501.101 54.6783C499.443 52.6072 497.526 51.3127 495.351 50.7949C493.278 50.1736 492.242 49.2416 492.242 47.9989C492.242 47.0669 493.278 46.6009 495.351 46.6009L507.006 47.3775L520.061 46.6009C522.133 46.6009 523.169 47.1186 523.169 48.1542C523.169 49.0862 521.978 49.9665 519.595 50.7949C516.072 51.9341 514.311 53.7981 514.311 56.387C514.311 57.7333 514.673 59.2866 515.399 61.0471L527.055 91.027C527.883 92.9946 528.712 93.0464 529.541 91.1823L541.352 63.6878C542.078 62.1345 542.44 60.4258 542.44 58.5617C542.44 56.6977 541.871 55.0408 540.731 53.591C539.591 52.1412 538.089 51.1056 536.224 50.4843C534.359 49.8629 533.426 49.0862 533.426 48.1542C533.426 47.1186 534.463 46.6009 536.535 46.6009L548.191 47.3775Z" transform="translate(211.924 214.154) scale(2)" fill="#1F2C11"/>
<path d="M594.299 45.2028C600.516 45.2028 605.386 46.4973 608.908 49.0862C612.534 51.6752 614.348 55.1961 614.348 59.6491C614.348 64.1021 613.208 66.8981 610.928 68.0372C608.753 69.0728 605.904 69.5906 602.381 69.5906H576.893C575.443 69.5906 574.407 69.9531 573.785 70.678C573.267 71.2993 573.008 72.8527 573.008 75.338C573.008 82.5871 575.236 88.9041 579.691 94.2891C584.146 99.674 589.585 102.367 596.009 102.367C602.536 102.367 607.561 100.088 611.084 95.5317C611.809 94.8068 612.379 94.4444 612.793 94.4444C613.933 94.4444 614.14 95.7906 613.415 98.4831C612.69 101.176 610.1 104.075 605.644 107.182C601.293 110.185 595.698 111.687 588.86 111.687C582.022 111.687 576.064 108.58 570.988 102.367C565.911 96.1531 563.372 88.3345 563.372 78.9108C563.372 69.3835 566.325 61.4096 572.231 54.989C578.24 48.4649 585.596 45.2028 594.299 45.2028ZM604.557 59.6491C604.557 56.7495 603.262 54.4194 600.671 52.659C598.081 50.8985 594.921 50.0182 591.191 50.0182C587.565 50.0182 584.094 51.5198 580.779 54.523C577.567 57.4226 575.961 60.0633 575.961 62.4451C575.961 63.9985 576.945 64.7752 578.914 64.7752H591.657C596.527 64.7752 600.309 64.5163 603.003 63.9985C604.039 63.8949 604.557 62.4451 604.557 59.6491Z" transform="translate(211.924 214.154) scale(2)" fill="#1F2C11"/>
<path d="M636.853 109.201L624.265 109.978C622.193 109.978 621.157 109.512 621.157 108.58C621.157 107.544 622.607 106.561 625.508 105.629C628.409 104.697 630.119 103.765 630.637 102.833C631.155 101.797 631.414 100.813 631.414 99.8812V21.5917C631.414 15.0676 629.031 11.2878 624.265 10.2522C623.436 10.0451 623.022 9.42373 623.022 8.38815C623.022 7.24902 623.384 6.5759 624.109 6.36879C626.7 5.74744 632.709 3.67629 642.137 0.155335H642.293L642.448 0C643.07 0 643.381 0.36245 643.381 1.08735C643.381 1.39802 643.277 2.33004 643.07 3.8834C642.552 7.92214 642.293 14.032 642.293 22.2131V99.8812C642.293 101.952 642.914 103.299 644.158 103.92C645.504 104.541 647.214 105.214 649.286 105.939C651.462 106.664 652.55 107.544 652.55 108.58C652.55 109.512 651.514 109.978 649.442 109.978L636.853 109.201Z" transform="translate(211.924 214.154) scale(2)" fill="#1F2C11"/>
<path d="M674.34 109.201L661.752 109.978C659.68 109.978 658.644 109.512 658.644 108.58C658.644 107.544 660.094 106.561 662.995 105.629C665.896 104.697 667.606 103.765 668.124 102.833C668.642 101.797 668.901 100.813 668.901 99.8812V21.5917C668.901 15.0676 666.518 11.2878 661.752 10.2522C660.923 10.0451 660.509 9.42373 660.509 8.38815C660.509 7.24902 660.871 6.5759 661.597 6.36879C664.187 5.74744 670.196 3.67629 679.624 0.155335H679.78L679.935 0C680.557 0 680.868 0.36245 680.868 1.08735C680.868 1.39802 680.764 2.33004 680.557 3.8834C680.039 7.92214 679.78 14.032 679.78 22.2131V99.8812C679.78 101.952 680.401 103.299 681.645 103.92C682.992 104.541 684.701 105.214 686.773 105.939C688.949 106.664 690.037 107.544 690.037 108.58C690.037 109.512 689.001 109.978 686.929 109.978L674.34 109.201Z" transform="translate(211.924 214.154) scale(2)" fill="#1F2C11"/>
<path d="M548.191 47.3775L557.205 46.6009C559.277 46.6009 560.313 47.1186 560.313 48.1542C560.313 49.0862 559.121 49.9665 556.738 50.7949C553.837 51.6234 551.092 55.0408 548.501 61.0471L527.21 111.997C526.899 112.722 526.485 113.085 525.967 113.085C525.449 113.085 524.982 112.722 524.568 111.997L508.405 71.9206C507.783 70.3673 507.11 70.4191 506.385 72.076L489.445 111.997C489.03 112.722 488.564 113.085 488.046 113.085C487.632 113.085 487.321 112.722 487.114 111.997L465.511 58.4064C463.957 54.4712 461.263 51.9341 457.43 50.7949C455.047 49.9665 453.856 49.0862 453.856 48.1542C453.856 47.1186 454.892 46.6009 456.964 46.6009L468.309 47.3775C476.183 46.8597 480.794 46.6009 482.14 46.6009C483.591 46.6009 484.316 47.1186 484.316 48.1542C484.316 49.0862 483.125 49.9665 480.742 50.7949C478.566 51.4163 477.478 53.4874 477.478 57.0084C477.478 58.3546 477.737 59.7009 478.255 61.0471L490.066 91.493C490.792 93.4606 491.569 93.4088 492.398 91.3377L502.655 66.3285C503.277 64.6716 503.587 62.8076 503.587 60.7364C503.587 58.6653 502.758 56.6459 501.101 54.6783C499.443 52.6072 497.526 51.3127 495.351 50.7949C493.278 50.1736 492.242 49.2416 492.242 47.9989C492.242 47.0669 493.278 46.6009 495.351 46.6009L507.006 47.3775L520.061 46.6009C522.133 46.6009 523.169 47.1186 523.169 48.1542C523.169 49.0862 521.978 49.9665 519.595 50.7949C516.072 51.9341 514.311 53.7981 514.311 56.387C514.311 57.7333 514.673 59.2866 515.399 61.0471L527.055 91.027C527.883 92.9946 528.712 93.0464 529.541 91.1823L541.352 63.6878C542.078 62.1345 542.44 60.4258 542.44 58.5617C542.44 56.6977 541.871 55.0408 540.731 53.591C539.591 52.1412 538.089 51.1056 536.224 50.4843C534.359 49.8629 533.426 49.0862 533.426 48.1542C533.426 47.1186 534.463 46.6009 536.535 46.6009L548.191 47.3775Z" transform="translate(211.924 214.154) scale(2)" fill="#1F2C11"/>
<path d="M594.299 45.2028C600.516 45.2028 605.386 46.4973 608.908 49.0862C612.534 51.6752 614.348 55.1961 614.348 59.6491C614.348 64.1021 613.208 66.8981 610.928 68.0372C608.753 69.0728 605.904 69.5906 602.381 69.5906H576.893C575.443 69.5906 574.407 69.9531 573.785 70.678C573.267 71.2993 573.008 72.8527 573.008 75.338C573.008 82.5871 575.236 88.9041 579.691 94.2891C584.146 99.674 589.585 102.367 596.009 102.367C602.536 102.367 607.561 100.088 611.084 95.5317C611.809 94.8068 612.379 94.4444 612.793 94.4444C613.933 94.4444 614.14 95.7906 613.415 98.4831C612.69 101.176 610.1 104.075 605.644 107.182C601.293 110.185 595.698 111.687 588.86 111.687C582.022 111.687 576.064 108.58 570.988 102.367C565.911 96.1531 563.372 88.3345 563.372 78.9108C563.372 69.3835 566.325 61.4096 572.231 54.989C578.24 48.4649 585.596 45.2028 594.299 45.2028ZM604.557 59.6491C604.557 56.7495 603.262 54.4194 600.671 52.659C598.081 50.8985 594.921 50.0182 591.191 50.0182C587.565 50.0182 584.094 51.5198 580.779 54.523C577.567 57.4226 575.961 60.0633 575.961 62.4451C575.961 63.9985 576.945 64.7752 578.914 64.7752H591.657C596.527 64.7752 600.309 64.5163 603.003 63.9985C604.039 63.8949 604.557 62.4451 604.557 59.6491Z" transform="translate(211.924 214.154) scale(2)" fill="#1F2C11"/>
<path d="M636.853 109.201L624.265 109.978C622.193 109.978 621.157 109.512 621.157 108.58C621.157 107.544 622.607 106.561 625.508 105.629C628.409 104.697 630.119 103.765 630.637 102.833C631.155 101.797 631.414 100.813 631.414 99.8812V21.5917C631.414 15.0676 629.031 11.2878 624.265 10.2522C623.436 10.0451 623.022 9.42373 623.022 8.38815C623.022 7.24902 623.384 6.5759 624.109 6.36879C626.7 5.74744 632.709 3.67629 642.137 0.155335H642.293L642.448 0C643.07 0 643.381 0.36245 643.381 1.08735C643.381 1.39802 643.277 2.33004 643.07 3.8834C642.552 7.92214 642.293 14.032 642.293 22.2131V99.8812C642.293 101.952 642.914 103.299 644.158 103.92C645.504 104.541 647.214 105.214 649.286 105.939C651.462 106.664 652.55 107.544 652.55 108.58C652.55 109.512 651.514 109.978 649.442 109.978L636.853 109.201Z" transform="translate(211.924 214.154) scale(2)" fill="#1F2C11"/>
<path d="M674.34 109.201L661.752 109.978C659.68 109.978 658.644 109.512 658.644 108.58C658.644 107.544 660.094 106.561 662.995 105.629C665.896 104.697 667.606 103.765 668.124 102.833C668.642 101.797 668.901 100.813 668.901 99.8812V21.5917C668.901 15.0676 666.518 11.2878 661.752 10.2522C660.923 10.0451 660.509 9.42373 660.509 8.38815C660.509 7.24902 660.871 6.5759 661.597 6.36879C664.187 5.74744 670.196 3.67629 679.624 0.155335H679.78L679.935 0C680.557 0 680.868 0.36245 680.868 1.08735C680.868 1.39802 680.764 2.33004 680.557 3.8834C680.039 7.92214 679.78 14.032 679.78 22.2131V99.8812C679.78 101.952 680.401 103.299 681.645 103.92C682.992 104.541 684.701 105.214 686.773 105.939C688.949 106.664 690.037 107.544 690.037 108.58C690.037 109.512 689.001 109.978 686.929 109.978L674.34 109.201Z" transform="translate(211.924 214.154) scale(2)" fill="#1F2C11"/>
<path d="M29.6868 1.20439L29.6407 1.63798C29.149 3.75771 28.9031 5.34751 28.9031 6.40738V6.98549C28.9031 7.30666 28.8263 7.64389 28.6727 7.99718C28.5497 8.35047 28.3807 8.52711 28.1656 8.52711C27.8275 8.52711 27.5356 7.86871 27.2897 6.55191C27.0439 5.07452 25.5073 4.33582 22.68 4.33582C19.8834 4.33582 17.9319 4.40006 16.8256 4.52852C16.3339 4.59276 16.088 5.28328 16.088 6.60008V28.5201C16.088 30.5756 17.3019 31.8281 19.7297 32.2778C20.7439 32.4705 21.251 32.7595 21.251 33.145C21.251 33.4982 20.8053 33.6749 19.9141 33.6749L14.5207 33.434L8.62024 33.6749C7.72902 33.6749 7.28341 33.4982 7.28341 33.145C7.28341 32.7595 7.83658 32.4705 8.94292 32.2778C11.2478 31.8281 12.4002 30.5756 12.4002 28.5201V6.60008C12.4002 5.3154 12.1236 4.62488 11.5705 4.52852C10.9866 4.40006 9.8495 4.33582 8.15926 4.33582H5.99268C5.19365 4.33582 4.44073 4.49641 3.7339 4.81758C3.02707 5.13875 2.55073 5.55628 2.30488 6.07015C2.05902 6.55191 1.73634 7.00155 1.33683 7.41907C0.968048 7.83659 0.629999 8.04536 0.322683 8.04536C0.107561 8.04536 0 7.86871 0 7.51543C0 7.13002 0.0768292 6.77673 0.230488 6.45556C0.906584 4.97816 1.38293 3.19566 1.65951 1.10804C1.75171 0.369348 2.01292 0 2.44317 0C2.68902 0 3.07317 0.513874 3.59561 1.54162C3.93365 2.18397 5.00926 2.50514 6.82243 2.50514H24.3856C25.5534 2.50514 26.4446 2.28032 27.0592 1.83068C27.2744 1.67009 27.5356 1.42922 27.8429 1.10804C28.1809 0.786872 28.4575 0.545993 28.6727 0.385407C28.9185 0.192705 29.149 0.0963532 29.3641 0.0963532C29.5792 0.0963532 29.6868 0.4657 29.6868 1.20439Z" transform="translate(849.881 487.688) scale(2)" fill="#1F2C11"/>
<path d="M52.5168 17.1988L52.609 20.4747C52.609 21.0207 52.4707 21.2937 52.1941 21.2937C51.7024 21.2937 51.349 20.9244 51.1339 20.1857C50.6729 18.7404 49.9661 18.0177 49.0134 18.0177H44.7264C44.1425 18.0177 43.7276 18.098 43.4817 18.2586C43.2666 18.4192 43.159 18.7564 43.159 19.2703V28.5201C43.159 29.7084 43.3895 30.5435 43.8505 31.0252C44.3422 31.507 45.1259 31.7479 46.2015 31.7479H50.9956C52.6244 31.7479 53.7615 31.4909 54.4068 30.977C55.0522 30.431 55.7283 29.3872 56.4351 27.8456C56.6195 27.4923 56.8654 27.3478 57.1727 27.412C57.5107 27.4441 57.6797 27.6047 57.6797 27.8938C57.6797 29.1785 57.4185 30.8325 56.8961 32.8559C56.7732 33.4019 56.558 33.6749 56.2507 33.6749L41.1768 33.3858L35.8756 33.6749C34.9844 33.6749 34.5388 33.4982 34.5388 33.145C34.5388 32.7595 35.092 32.4705 36.1983 32.2778C37.3047 32.053 38.119 31.6836 38.6415 31.1697C39.1946 30.6238 39.4712 29.7887 39.4712 28.6646V6.98549C39.4712 5.86139 39.2407 5.05846 38.7798 4.5767C38.3495 4.06283 37.5812 3.70954 36.4749 3.51684C35.3993 3.29201 34.8615 2.95478 34.8615 2.50514C34.8615 2.15185 35.3071 1.97521 36.1983 1.97521L44.3576 2.11974L54.5912 1.97521C55.1137 1.97521 55.3902 2.11974 55.421 2.40879C55.8819 5.01028 56.1124 6.61614 56.1124 7.22637C56.1124 7.80448 55.8973 8.09353 55.4671 8.09353C55.2212 8.09353 55.0522 7.93295 54.96 7.61178C54.499 6.10227 54.161 5.21905 53.9459 4.96211C53.2083 4.09494 52.1788 3.66136 50.8573 3.66136H44.8185C44.5112 3.66136 44.1578 3.82195 43.7583 4.14312C43.3588 4.43218 43.159 4.78546 43.159 5.20298V15.4163C43.159 15.7053 43.2359 15.9622 43.3895 16.1871C43.5739 16.3798 43.7737 16.4761 43.9888 16.4761H48.4142C49.7663 16.4761 50.7037 15.8498 51.2261 14.5973C51.2876 14.4688 51.4105 14.3082 51.5949 14.1155C51.81 13.8907 51.9637 13.7783 52.0559 13.7783C52.1788 13.7783 52.3017 13.8586 52.4246 14.0192C52.5783 14.1476 52.6551 14.3243 52.6551 14.5491L52.5168 17.1988Z" transform="translate(849.881 487.688) scale(2)" fill="#1F2C11"/>
<path d="M68.7657 33.3858L63.234 33.6749C62.3428 33.6749 61.8972 33.4822 61.8972 33.0968C61.8972 32.6793 62.4043 32.2938 63.4184 31.9406C65.2623 31.3624 66.5838 30.1259 67.3828 28.231C70.333 21.1652 73.2065 13.6177 76.003 5.58839C76.4026 4.52853 76.6023 3.80589 76.6023 3.42048C76.6023 3.00296 76.6177 2.7942 76.6484 2.7942C77.7547 2.40879 78.4001 2.10368 78.5845 1.87886C78.7689 1.62192 78.8918 1.42922 78.9533 1.30075C79.0762 1.01169 79.1838 0.867165 79.276 0.867165C79.4296 0.867165 79.5833 1.09198 79.7369 1.54162C82.0111 9.02493 84.7462 17.6002 87.9423 27.2675C88.5262 29.0339 89.1716 30.2383 89.8784 30.8807C90.5852 31.4909 91.4611 31.8924 92.5059 32.0851C93.5816 32.2778 94.1194 32.6471 94.1194 33.1931C94.1194 33.5143 93.6737 33.6749 92.7825 33.6749L86.375 33.3858L81.5347 33.434C80.6435 33.434 80.1979 33.2413 80.1979 32.8559C80.1979 32.4063 80.705 32.1011 81.7191 31.9406C83.5938 31.6194 84.5311 30.8967 84.5311 29.7726C84.5311 28.8091 83.9472 26.2879 82.7794 22.209C82.6872 21.8558 82.2723 21.6791 81.5347 21.6791H72.7301C72.3921 21.6791 72.1308 21.9682 71.9465 22.5463C70.7172 26.2719 70.1026 28.488 70.1026 29.1945C70.1026 29.9011 70.3484 30.4953 70.8401 30.977C71.3626 31.4588 72.0694 31.8281 72.9606 32.0851C73.8518 32.3099 74.2974 32.599 74.2974 32.9522C74.2974 33.3055 73.8518 33.4822 72.9606 33.4822L68.7657 33.3858ZM77.3399 7.32272L73.1911 18.8849C73.1296 19.0776 73.0989 19.2061 73.0989 19.2703C73.0989 19.4951 73.4216 19.6075 74.0669 19.6075H81.2121C81.6423 19.6075 81.8574 19.5273 81.8574 19.3667C81.8574 19.3024 81.8267 19.1419 81.7652 18.8849L78.1235 7.3709C77.9391 6.79279 77.8008 6.50373 77.7086 6.50373C77.6472 6.50373 77.5243 6.77673 77.3399 7.32272Z" transform="translate(849.881 487.688) scale(2)" fill="#1F2C11"/>
<path d="M149.159 14.0673L152.432 14.3082C152.924 14.3082 153.692 14.1958 154.737 13.971C155.812 13.714 156.458 13.5856 156.673 13.5856C156.888 13.5856 157.057 13.6338 157.18 13.7301C157.334 13.8265 157.411 13.9549 157.411 14.1155C157.411 14.244 157.272 14.4046 156.996 14.5973C156.719 14.79 156.473 14.9024 156.258 14.9345C154.998 15.0308 153.876 15.5287 152.893 16.4279L144.642 25.485L145.425 26.6412C146.132 27.7011 146.608 28.4077 146.854 28.761C147.131 29.1142 147.561 29.6121 148.145 30.2544C148.729 30.8646 149.328 31.2822 149.943 31.507C150.557 31.6997 151.111 31.796 151.602 31.796C152.094 31.796 152.401 31.796 152.524 31.796C152.678 31.7639 152.801 31.7479 152.893 31.7479C153.016 31.7157 153.139 31.6836 153.262 31.6515C153.415 31.5873 153.523 31.5551 153.584 31.5551C153.646 31.523 153.753 31.4588 153.907 31.3624C154.091 31.2019 154.291 31.0573 154.506 30.9289C154.967 30.6077 155.351 30.4471 155.659 30.4471C155.966 30.4471 156.12 30.8004 156.12 31.507C156.12 31.6676 155.828 31.9566 155.244 32.3741C154.691 32.7917 153.953 33.1931 153.031 33.5785C152.109 33.9639 151.264 34.1566 150.496 34.1566C148.898 34.1566 147.638 33.7712 146.716 33.0004C145.825 32.1975 144.718 30.7201 143.397 28.5683L142.798 27.5566C142.429 27.942 141.937 28.488 141.322 29.1945C140.739 29.9011 140.339 30.3668 140.124 30.5916C139.909 30.7843 139.54 31.1537 139.018 31.6997C138.495 32.2136 138.065 32.5668 137.727 32.7595C137.42 32.9201 137.005 33.145 136.482 33.434C135.622 33.9158 134.546 34.1566 133.255 34.1566C131.073 34.1566 129.183 33.5625 127.585 32.3741C125.987 31.1537 125.188 29.5318 125.188 27.5084C125.188 22.9477 127.77 19.4309 132.933 16.9579L133.855 16.5243L133.163 15.7535C131.227 13.7301 130.259 11.8512 130.259 10.1169C130.259 8.35047 130.889 6.98549 132.149 6.02198C133.409 5.05846 134.838 4.5767 136.436 4.5767C138.034 4.5767 139.402 5.0424 140.539 5.9738C141.676 6.87308 142.244 8.07748 142.244 9.58698C142.244 11.0644 141.845 12.3812 141.046 13.5374C140.278 14.6615 139.187 15.4965 137.773 16.0425L137.128 16.2834L137.542 16.7652C137.911 17.2148 138.818 18.2265 140.262 19.8003C141.737 21.3419 142.828 22.6587 143.535 23.7507L144.088 24.6178L144.918 23.7025C146.024 22.4499 147.146 21.0207 148.283 19.4148C149.42 17.809 149.989 16.8615 149.989 16.5725C149.989 16.2834 149.866 15.9944 149.62 15.7053C149.374 15.3841 149.128 15.2075 148.882 15.1754C148.667 15.1111 148.483 15.0148 148.329 14.8863C148.206 14.7579 148.145 14.6615 148.145 14.5973C148.145 14.244 148.483 14.0673 149.159 14.0673ZM134.546 17.3433L133.578 17.7287C131.519 18.5637 130.182 19.7842 129.568 21.3901C129.107 22.6747 128.876 24.104 128.876 25.6777C128.876 27.2514 129.399 28.5361 130.443 29.5318C131.488 30.5274 132.764 31.0252 134.27 31.0252C135.775 31.0252 137.112 30.7201 138.28 30.1099C139.448 29.4675 140.631 28.4719 141.83 27.123L142.244 26.6894L141.691 25.7741C140.892 24.4894 139.694 22.9959 138.096 21.2937C136.528 19.5594 135.53 18.4513 135.099 17.9696L134.546 17.3433ZM136.344 15.3199L136.943 15.0308C138.633 14.2279 139.479 12.4454 139.479 9.68334C139.479 8.75194 139.171 7.90083 138.557 7.13002C137.942 6.32709 137.189 5.92562 136.298 5.92562C135.407 5.92562 134.638 6.19862 133.993 6.74461C133.348 7.25849 133.025 7.91689 133.025 8.71982C133.025 10.2936 133.901 12.2206 135.652 14.5009L136.344 15.3199Z" transform="translate(849.881 487.688) scale(2)" fill="#1F2C11"/>
<path d="M218.373 26.7857C218.097 29.1945 217.574 30.9931 216.806 32.1814C216.683 32.4063 215.777 32.7917 214.086 33.3377C212.427 33.8836 209.999 34.1566 206.803 34.1566C202.654 34.1566 199.135 32.5508 196.247 29.3391C193.358 26.1273 191.913 22.2733 191.913 17.7769C191.913 13.2483 193.573 9.41034 196.892 6.26285C200.211 3.08325 204.145 1.49345 208.693 1.49345C210.844 1.49345 212.473 1.68615 213.579 2.07156C214.686 2.45697 215.853 2.74602 217.083 2.93872C217.421 2.97084 217.651 3.66136 217.774 5.01028C217.928 6.32709 218.02 7.49936 218.051 8.52711C218.081 9.52275 218.051 10.149 217.959 10.406C217.897 10.6629 217.759 10.7753 217.544 10.7432C216.929 10.679 216.53 10.0848 216.345 8.9607C216.161 7.48331 215.623 6.31103 214.732 5.44387C213.164 3.80589 210.813 2.9869 207.679 2.9869C204.575 2.9869 201.932 4.36794 199.75 7.13002C197.599 9.85998 196.523 13.0556 196.523 16.717C196.523 19.3827 196.984 21.92 197.906 24.3288C198.828 26.7376 200.196 28.7288 202.009 30.3026C203.853 31.8763 205.927 32.6632 208.232 32.6632C212.043 32.6632 214.901 30.7201 216.806 26.8339C216.929 26.6091 217.144 26.4164 217.451 26.2558C217.759 26.0631 217.928 25.9507 217.959 25.9186C217.989 25.8865 218.02 25.8704 218.051 25.8704C218.266 25.8704 218.373 26.1755 218.373 26.7857Z" transform="translate(849.881 487.688) scale(2)" fill="#1F2C11"/>
<path d="M251.747 18.4032C251.747 13.9389 250.764 10.3096 248.797 7.51543C246.83 4.72123 244.126 3.32413 240.684 3.32413C237.242 3.32413 234.537 4.64094 232.571 7.27455C230.634 9.90816 229.666 13.1841 229.666 17.1024C229.666 20.9886 230.773 24.4894 232.985 27.6047C235.229 30.688 238.025 32.2296 241.375 32.2296C244.725 32.2296 247.291 31.0413 249.073 28.6646C250.856 26.2558 251.747 22.8353 251.747 18.4032ZM225.195 18.0177C225.195 15.0308 225.779 12.3169 226.947 9.87604C228.145 7.40301 229.974 5.37963 232.432 3.80589C234.891 2.23215 237.78 1.44528 241.099 1.44528C245.217 1.44528 248.766 2.93872 251.747 5.92562C254.728 8.88041 256.219 12.6702 256.219 17.2951C256.219 21.8236 254.897 25.7098 252.254 28.9537C250.994 30.5274 249.365 31.78 247.368 32.7114C245.37 33.6428 243.158 34.1085 240.73 34.1085C236.581 34.1085 232.955 32.5508 229.851 29.4354C226.747 26.32 225.195 22.5142 225.195 18.0177Z" transform="translate(849.881 487.688) scale(2)" fill="#1F2C11"/>
<path d="M273.046 2.11974L280.928 2.02338H282.726L283.417 1.97521C283.94 1.97521 284.217 2.11974 284.247 2.40879C284.401 3.34019 284.478 4.94605 284.478 7.22637C284.478 7.90083 284.339 8.23806 284.063 8.23806C283.694 8.23806 283.464 8.04536 283.371 7.65995C283.003 6.50373 282.649 5.71686 282.311 5.29934C281.574 4.43217 280.544 3.99859 279.223 3.99859H273.368C272.907 3.99859 272.554 4.12706 272.308 4.384C272.093 4.64093 271.955 4.91393 271.893 5.20298C271.862 5.49204 271.832 5.9738 271.801 6.64826C271.77 7.2906 271.755 8.71982 271.755 10.9359C271.755 13.152 271.755 14.6294 271.755 15.3681C271.786 16.1068 271.955 16.4761 272.262 16.4761L277.609 16.3316C278.961 16.3316 279.899 15.7053 280.421 14.4527C280.483 14.3243 280.606 14.1637 280.79 13.971C281.005 13.7462 281.159 13.6338 281.251 13.6338C281.374 13.6338 281.512 13.714 281.666 13.8746C281.819 14.0352 281.866 14.4527 281.804 15.1272C281.743 15.7695 281.712 16.444 281.712 17.1506C281.712 17.8572 281.758 18.917 281.85 20.3302C281.85 20.8762 281.712 21.1492 281.435 21.1492C280.944 21.1492 280.59 20.7798 280.375 20.0411C279.976 18.7886 279.253 18.1623 278.208 18.1623C278.208 18.1623 277.44 18.1462 275.904 18.1141C275.197 18.1141 274.198 18.1462 272.907 18.2105C272.17 18.2747 271.801 18.6761 271.801 19.4148C271.801 23.3974 271.847 26.4485 271.939 28.5683C272.001 29.6602 272.247 30.5113 272.677 31.1216C273.107 31.6997 273.845 32.0851 274.889 32.2778C275.965 32.4705 276.503 32.7595 276.503 33.145C276.503 33.4982 276.057 33.6749 275.166 33.6749C274.275 33.6749 273.43 33.6107 272.631 33.4822C271.832 33.3858 271.171 33.3377 270.648 33.3377L264.84 33.6749C263.949 33.6749 263.503 33.4982 263.503 33.145C263.503 32.7595 264.041 32.4705 265.117 32.2778C266.223 32.053 266.991 31.6836 267.422 31.1697C267.883 30.6238 268.113 29.7726 268.113 28.6164V8.28624C268.113 6.74461 267.913 5.60445 267.514 4.86576C267.145 4.12706 266.423 3.66136 265.347 3.46866C264.302 3.27595 263.78 2.95478 263.78 2.50514C263.78 2.15185 264.226 1.97521 265.117 1.97521L273.046 2.11974Z" transform="translate(849.881 487.688) scale(2)" fill="#1F2C11"/>
<path d="M300.476 2.11974L308.359 2.02338H310.156L310.848 1.97521C311.37 1.97521 311.647 2.11974 311.678 2.40879C311.831 3.34019 311.908 4.94605 311.908 7.22637C311.908 7.90083 311.77 8.23806 311.493 8.23806C311.124 8.23806 310.894 8.04536 310.802 7.65995C310.433 6.50373 310.08 5.71686 309.742 5.29934C309.004 4.43217 307.975 3.99859 306.653 3.99859H300.799C300.338 3.99859 299.984 4.12706 299.738 4.384C299.523 4.64093 299.385 4.91393 299.324 5.20298C299.293 5.49204 299.262 5.9738 299.231 6.64826C299.201 7.2906 299.185 8.71982 299.185 10.9359C299.185 13.152 299.185 14.6294 299.185 15.3681C299.216 16.1068 299.385 16.4761 299.692 16.4761L305.04 16.3316C306.392 16.3316 307.329 15.7053 307.852 14.4527C307.913 14.3243 308.036 14.1637 308.22 13.971C308.435 13.7462 308.589 13.6338 308.681 13.6338C308.804 13.6338 308.943 13.714 309.096 13.8746C309.25 14.0352 309.296 14.4527 309.234 15.1272C309.173 15.7695 309.142 16.444 309.142 17.1506C309.142 17.8572 309.188 18.917 309.281 20.3302C309.281 20.8762 309.142 21.1492 308.866 21.1492C308.374 21.1492 308.021 20.7798 307.805 20.0411C307.406 18.7886 306.684 18.1623 305.639 18.1623C305.639 18.1623 304.871 18.1462 303.334 18.1141C302.627 18.1141 301.628 18.1462 300.338 18.2105C299.6 18.2747 299.231 18.6761 299.231 19.4148C299.231 23.3974 299.277 26.4485 299.37 28.5683C299.431 29.6602 299.677 30.5113 300.107 31.1216C300.537 31.6997 301.275 32.0851 302.32 32.2778C303.395 32.4705 303.933 32.7595 303.933 33.145C303.933 33.4982 303.488 33.6749 302.596 33.6749C301.705 33.6749 300.86 33.6107 300.061 33.4822C299.262 33.3858 298.601 33.3377 298.079 33.3377L292.271 33.6749C291.379 33.6749 290.934 33.4982 290.934 33.145C290.934 32.7595 291.472 32.4705 292.547 32.2778C293.654 32.053 294.422 31.6836 294.852 31.1697C295.313 30.6238 295.544 29.7726 295.544 28.6164V8.28624C295.544 6.74461 295.344 5.60445 294.944 4.86576C294.575 4.12706 293.853 3.66136 292.778 3.46866C291.733 3.27595 291.21 2.95478 291.21 2.50514C291.21 2.15185 291.656 1.97521 292.547 1.97521L300.476 2.11974Z" transform="translate(849.881 487.688) scale(2)" fill="#1F2C11"/>
<path d="M336.02 17.1988L336.112 20.4747C336.112 21.0207 335.973 21.2937 335.697 21.2937C335.205 21.2937 334.852 20.9244 334.637 20.1857C334.176 18.7404 333.469 18.0177 332.516 18.0177H328.229C327.645 18.0177 327.23 18.098 326.984 18.2586C326.769 18.4192 326.662 18.7564 326.662 19.2703V28.5201C326.662 29.7084 326.892 30.5435 327.353 31.0252C327.845 31.507 328.629 31.7479 329.704 31.7479H334.498C336.127 31.7479 337.264 31.4909 337.91 30.977C338.555 30.431 339.231 29.3872 339.938 27.8456C340.122 27.4923 340.368 27.3478 340.675 27.412C341.013 27.4441 341.182 27.6047 341.182 27.8938C341.182 29.1785 340.921 30.8325 340.399 32.8559C340.276 33.4019 340.061 33.6749 339.753 33.6749L324.68 33.3858L319.378 33.6749C318.487 33.6749 318.042 33.4982 318.042 33.145C318.042 32.7595 318.595 32.4705 319.701 32.2778C320.807 32.053 321.622 31.6836 322.144 31.1697C322.697 30.6238 322.974 29.7887 322.974 28.6646V6.98549C322.974 5.86139 322.743 5.05846 322.282 4.5767C321.852 4.06283 321.084 3.70954 319.978 3.51684C318.902 3.29201 318.364 2.95478 318.364 2.50514C318.364 2.15185 318.81 1.97521 319.701 1.97521L327.86 2.11974L338.094 1.97521C338.616 1.97521 338.893 2.11974 338.924 2.40879C339.385 5.01028 339.615 6.61614 339.615 7.22637C339.615 7.80448 339.4 8.09353 338.97 8.09353C338.724 8.09353 338.555 7.93295 338.463 7.61178C338.002 6.10227 337.664 5.21905 337.449 4.96211C336.711 4.09494 335.682 3.66136 334.36 3.66136H328.321C328.014 3.66136 327.661 3.82195 327.261 4.14312C326.862 4.43218 326.662 4.78546 326.662 5.20298V15.4163C326.662 15.7053 326.739 15.9622 326.892 16.1871C327.077 16.3798 327.276 16.4761 327.492 16.4761H331.917C333.269 16.4761 334.206 15.8498 334.729 14.5973C334.79 14.4688 334.913 14.3082 335.098 14.1155C335.313 13.8907 335.466 13.7783 335.559 13.7783C335.682 13.7783 335.804 13.8586 335.927 14.0192C336.081 14.1476 336.158 14.3243 336.158 14.5491L336.02 17.1988Z" transform="translate(849.881 487.688) scale(2)" fill="#1F2C11"/>
<path d="M364.53 17.1988L364.623 20.4747C364.623 21.0207 364.484 21.2937 364.208 21.2937C363.716 21.2937 363.363 20.9244 363.147 20.1857C362.686 18.7404 361.98 18.0177 361.027 18.0177H356.74C356.156 18.0177 355.741 18.098 355.495 18.2586C355.28 18.4192 355.173 18.7564 355.173 19.2703V28.5201C355.173 29.7084 355.403 30.5435 355.864 31.0252C356.356 31.507 357.139 31.7479 358.215 31.7479H363.009C364.638 31.7479 365.775 31.4909 366.42 30.977C367.066 30.431 367.742 29.3872 368.449 27.8456C368.633 27.4923 368.879 27.3478 369.186 27.412C369.524 27.4441 369.693 27.6047 369.693 27.8938C369.693 29.1785 369.432 30.8325 368.91 32.8559C368.787 33.4019 368.572 33.6749 368.264 33.6749L353.19 33.3858L347.889 33.6749C346.998 33.6749 346.552 33.4982 346.552 33.145C346.552 32.7595 347.106 32.4705 348.212 32.2778C349.318 32.053 350.133 31.6836 350.655 31.1697C351.208 30.6238 351.485 29.7887 351.485 28.6646V6.98549C351.485 5.86139 351.254 5.05846 350.793 4.5767C350.363 4.06283 349.595 3.70954 348.488 3.51684C347.413 3.29201 346.875 2.95478 346.875 2.50514C346.875 2.15185 347.321 1.97521 348.212 1.97521L356.371 2.11974L366.605 1.97521C367.127 1.97521 367.404 2.11974 367.435 2.40879C367.895 5.01028 368.126 6.61614 368.126 7.22637C368.126 7.80448 367.911 8.09353 367.481 8.09353C367.235 8.09353 367.066 7.93295 366.974 7.61178C366.513 6.10227 366.175 5.21905 365.959 4.96211C365.222 4.09494 364.192 3.66136 362.871 3.66136H356.832C356.525 3.66136 356.171 3.82195 355.772 4.14312C355.372 4.43218 355.173 4.78546 355.173 5.20298V15.4163C355.173 15.7053 355.249 15.9622 355.403 16.1871C355.587 16.3798 355.787 16.4761 356.002 16.4761H360.428C361.78 16.4761 362.717 15.8498 363.24 14.5973C363.301 14.4688 363.424 14.3082 363.608 14.1155C363.824 13.8907 363.977 13.7783 364.069 13.7783C364.192 13.7783 364.315 13.8586 364.438 14.0192C364.592 14.1476 364.669 14.3243 364.669 14.5491L364.53 17.1988Z" transform="translate(849.881 487.688) scale(2)" fill="#1F2C11"/>
<path d="M149.159 14.0673L152.432 14.3082C152.924 14.3082 153.692 14.1958 154.737 13.971C155.812 13.714 156.458 13.5856 156.673 13.5856C156.888 13.5856 157.057 13.6338 157.18 13.7301C157.334 13.8265 157.411 13.9549 157.411 14.1155C157.411 14.244 157.272 14.4046 156.996 14.5973C156.719 14.79 156.473 14.9024 156.258 14.9345C154.998 15.0308 153.876 15.5287 152.893 16.4279L144.642 25.485L145.425 26.6412C146.132 27.7011 146.608 28.4077 146.854 28.761C147.131 29.1142 147.561 29.6121 148.145 30.2544C148.729 30.8646 149.328 31.2822 149.943 31.507C150.557 31.6997 151.111 31.796 151.602 31.796C152.094 31.796 152.401 31.796 152.524 31.796C152.678 31.7639 152.801 31.7479 152.893 31.7479C153.016 31.7157 153.139 31.6836 153.262 31.6515C153.415 31.5873 153.523 31.5551 153.584 31.5551C153.646 31.523 153.753 31.4588 153.907 31.3624C154.092 31.2019 154.291 31.0573 154.506 30.9289C154.967 30.6077 155.351 30.4471 155.659 30.4471C155.966 30.4471 156.12 30.8004 156.12 31.507C156.12 31.6676 155.828 31.9566 155.244 32.3741C154.691 32.7917 153.953 33.1931 153.031 33.5785C152.109 33.9639 151.264 34.1566 150.496 34.1566C148.898 34.1566 147.638 33.7712 146.716 33.0004C145.825 32.1975 144.718 30.7201 143.397 28.5683L142.798 27.5566C142.429 27.942 141.937 28.488 141.322 29.1945C140.739 29.9011 140.339 30.3668 140.124 30.5916C139.909 30.7843 139.54 31.1537 139.018 31.6997C138.495 32.2136 138.065 32.5668 137.727 32.7595C137.42 32.9201 137.005 33.145 136.482 33.434C135.622 33.9158 134.546 34.1566 133.255 34.1566C131.073 34.1566 129.183 33.5625 127.585 32.3741C125.987 31.1537 125.188 29.5318 125.188 27.5084C125.188 22.9477 127.77 19.4309 132.933 16.9579L133.855 16.5243L133.163 15.7535C131.227 13.7301 130.259 11.8512 130.259 10.1169C130.259 8.35047 130.889 6.98549 132.149 6.02198C133.409 5.05846 134.838 4.5767 136.436 4.5767C138.034 4.5767 139.402 5.0424 140.539 5.9738C141.676 6.87308 142.244 8.07748 142.244 9.58698C142.244 11.0644 141.845 12.3812 141.046 13.5374C140.278 14.6615 139.187 15.4965 137.773 16.0425L137.128 16.2834L137.542 16.7652C137.911 17.2148 138.818 18.2265 140.262 19.8003C141.737 21.3419 142.828 22.6587 143.535 23.7507L144.088 24.6178L144.918 23.7025C146.024 22.4499 147.146 21.0207 148.283 19.4148C149.42 17.809 149.989 16.8615 149.989 16.5725C149.989 16.2834 149.866 15.9944 149.62 15.7053C149.374 15.3841 149.128 15.2075 148.882 15.1754C148.667 15.1111 148.483 15.0148 148.329 14.8863C148.206 14.7579 148.145 14.6615 148.145 14.5973C148.145 14.244 148.483 14.0673 149.159 14.0673ZM134.546 17.3433L133.578 17.7287C131.519 18.5637 130.182 19.7842 129.568 21.3901C129.107 22.6747 128.876 24.104 128.876 25.6777C128.876 27.2514 129.399 28.5361 130.443 29.5318C131.488 30.5274 132.764 31.0252 134.27 31.0252C135.775 31.0252 137.112 30.7201 138.28 30.1099C139.448 29.4675 140.631 28.4719 141.83 27.123L142.244 26.6894L141.691 25.7741C140.892 24.4894 139.694 22.9959 138.096 21.2937C136.528 19.5594 135.53 18.4513 135.099 17.9696L134.546 17.3433ZM136.344 15.3199L136.943 15.0308C138.633 14.2279 139.479 12.4454 139.479 9.68334C139.479 8.75194 139.171 7.90083 138.557 7.13002C137.942 6.32709 137.189 5.92562 136.298 5.92562C135.407 5.92562 134.638 6.19862 133.993 6.74461C133.348 7.25849 133.025 7.91689 133.025 8.71982C133.025 10.2936 133.901 12.2206 135.652 14.5009L136.344 15.3199Z" transform="translate(849.881 487.688) scale(2)" fill="#1F2C11"/>
<path d="M218.373 26.7857C218.097 29.1945 217.574 30.9931 216.806 32.1814C216.683 32.4063 215.777 32.7917 214.086 33.3377C212.427 33.8836 209.999 34.1566 206.803 34.1566C202.654 34.1566 199.135 32.5508 196.247 29.3391C193.358 26.1273 191.913 22.2733 191.913 17.7769C191.913 13.2483 193.573 9.41034 196.892 6.26285C200.211 3.08325 204.145 1.49345 208.693 1.49345C210.844 1.49345 212.473 1.68615 213.579 2.07156C214.686 2.45697 215.853 2.74602 217.083 2.93872C217.421 2.97084 217.651 3.66136 217.774 5.01028C217.928 6.32709 218.02 7.49936 218.051 8.52711C218.081 9.52275 218.051 10.149 217.959 10.406C217.897 10.6629 217.759 10.7753 217.544 10.7432C216.929 10.679 216.53 10.0848 216.345 8.9607C216.161 7.48331 215.623 6.31103 214.732 5.44387C213.164 3.80589 210.813 2.9869 207.679 2.9869C204.575 2.9869 201.932 4.36794 199.75 7.13002C197.599 9.85998 196.523 13.0556 196.523 16.717C196.523 19.3827 196.984 21.92 197.906 24.3288C198.828 26.7376 200.196 28.7288 202.009 30.3026C203.853 31.8763 205.927 32.6632 208.232 32.6632C212.043 32.6632 214.901 30.7201 216.806 26.8339C216.929 26.6091 217.144 26.4164 217.451 26.2558C217.759 26.0631 217.928 25.9507 217.959 25.9186C217.989 25.8865 218.02 25.8704 218.051 25.8704C218.266 25.8704 218.373 26.1755 218.373 26.7857Z" transform="translate(849.881 487.688) scale(2)" fill="#1F2C11"/>
<path d="M251.747 18.4032C251.747 13.9389 250.764 10.3096 248.797 7.51543C246.83 4.72123 244.126 3.32413 240.684 3.32413C237.242 3.32413 234.537 4.64094 232.571 7.27455C230.634 9.90816 229.666 13.1841 229.666 17.1024C229.666 20.9886 230.773 24.4894 232.985 27.6047C235.229 30.688 238.025 32.2296 241.375 32.2296C244.725 32.2296 247.291 31.0413 249.074 28.6646C250.856 26.2558 251.747 22.8353 251.747 18.4032ZM225.195 18.0177C225.195 15.0308 225.779 12.3169 226.947 9.87604C228.145 7.40301 229.974 5.37963 232.432 3.80589C234.891 2.23215 237.78 1.44528 241.099 1.44528C245.217 1.44528 248.766 2.93872 251.747 5.92562C254.728 8.88041 256.219 12.6702 256.219 17.2951C256.219 21.8236 254.897 25.7098 252.254 28.9537C250.994 30.5274 249.365 31.78 247.368 32.7114C245.37 33.6428 243.158 34.1085 240.73 34.1085C236.581 34.1085 232.955 32.5508 229.851 29.4354C226.747 26.32 225.195 22.5142 225.195 18.0177Z" transform="translate(849.881 487.688) scale(2)" fill="#1F2C11"/>
<path d="M273.046 2.11974L280.928 2.02338H282.726L283.417 1.97521C283.94 1.97521 284.217 2.11974 284.247 2.40879C284.401 3.34019 284.478 4.94605 284.478 7.22637C284.478 7.90083 284.339 8.23806 284.063 8.23806C283.694 8.23806 283.464 8.04536 283.371 7.65995C283.003 6.50373 282.649 5.71686 282.311 5.29934C281.574 4.43217 280.544 3.99859 279.223 3.99859H273.368C272.907 3.99859 272.554 4.12706 272.308 4.384C272.093 4.64093 271.955 4.91393 271.893 5.20298C271.862 5.49204 271.832 5.9738 271.801 6.64826C271.77 7.2906 271.755 8.71982 271.755 10.9359C271.755 13.152 271.755 14.6294 271.755 15.3681C271.786 16.1068 271.955 16.4761 272.262 16.4761L277.609 16.3316C278.961 16.3316 279.899 15.7053 280.421 14.4527C280.483 14.3243 280.606 14.1637 280.79 13.971C281.005 13.7462 281.159 13.6338 281.251 13.6338C281.374 13.6338 281.512 13.714 281.666 13.8746C281.819 14.0352 281.866 14.4527 281.804 15.1272C281.743 15.7695 281.712 16.444 281.712 17.1506C281.712 17.8572 281.758 18.917 281.85 20.3302C281.85 20.8762 281.712 21.1492 281.435 21.1492C280.944 21.1492 280.59 20.7798 280.375 20.0411C279.976 18.7886 279.253 18.1623 278.208 18.1623C278.208 18.1623 277.44 18.1462 275.904 18.1141C275.197 18.1141 274.198 18.1462 272.907 18.2105C272.17 18.2747 271.801 18.6761 271.801 19.4148C271.801 23.3974 271.847 26.4485 271.939 28.5683C272.001 29.6602 272.247 30.5113 272.677 31.1216C273.107 31.6997 273.845 32.0851 274.889 32.2778C275.965 32.4705 276.503 32.7595 276.503 33.145C276.503 33.4982 276.057 33.6749 275.166 33.6749C274.275 33.6749 273.43 33.6107 272.631 33.4822C271.832 33.3858 271.171 33.3377 270.648 33.3377L264.84 33.6749C263.949 33.6749 263.503 33.4982 263.503 33.145C263.503 32.7595 264.041 32.4705 265.117 32.2778C266.223 32.053 266.991 31.6836 267.422 31.1697C267.883 30.6238 268.113 29.7726 268.113 28.6164V8.28624C268.113 6.74461 267.913 5.60445 267.514 4.86576C267.145 4.12706 266.423 3.66136 265.347 3.46866C264.302 3.27595 263.78 2.95478 263.78 2.50514C263.78 2.15185 264.226 1.97521 265.117 1.97521L273.046 2.11974Z" transform="translate(849.881 487.688) scale(2)" fill="#1F2C11"/>
<path d="M300.476 2.11974L308.359 2.02338H310.156L310.848 1.97521C311.37 1.97521 311.647 2.11974 311.678 2.40879C311.831 3.34019 311.908 4.94605 311.908 7.22637C311.908 7.90083 311.77 8.23806 311.493 8.23806C311.124 8.23806 310.894 8.04536 310.802 7.65995C310.433 6.50373 310.08 5.71686 309.742 5.29934C309.004 4.43217 307.975 3.99859 306.653 3.99859H300.799C300.338 3.99859 299.984 4.12706 299.738 4.384C299.523 4.64093 299.385 4.91393 299.324 5.20298C299.293 5.49204 299.262 5.9738 299.231 6.64826C299.201 7.2906 299.185 8.71982 299.185 10.9359C299.185 13.152 299.185 14.6294 299.185 15.3681C299.216 16.1068 299.385 16.4761 299.692 16.4761L305.04 16.3316C306.392 16.3316 307.329 15.7053 307.852 14.4527C307.913 14.3243 308.036 14.1637 308.22 13.971C308.435 13.7462 308.589 13.6338 308.681 13.6338C308.804 13.6338 308.943 13.714 309.096 13.8746C309.25 14.0352 309.296 14.4527 309.234 15.1272C309.173 15.7695 309.142 16.444 309.142 17.1506C309.142 17.8572 309.188 18.917 309.281 20.3302C309.281 20.8762 309.142 21.1492 308.866 21.1492C308.374 21.1492 308.021 20.7798 307.805 20.0411C307.406 18.7886 306.684 18.1623 305.639 18.1623C305.639 18.1623 304.871 18.1462 303.334 18.1141C302.627 18.1141 301.628 18.1462 300.338 18.2105C299.6 18.2747 299.231 18.6761 299.231 19.4148C299.231 23.3974 299.277 26.4485 299.37 28.5683C299.431 29.6602 299.677 30.5113 300.107 31.1216C300.537 31.6997 301.275 32.0851 302.32 32.2778C303.395 32.4705 303.933 32.7595 303.933 33.145C303.933 33.4982 303.488 33.6749 302.596 33.6749C301.705 33.6749 300.86 33.6107 300.061 33.4822C299.262 33.3858 298.601 33.3377 298.079 33.3377L292.271 33.6749C291.379 33.6749 290.934 33.4982 290.934 33.145C290.934 32.7595 291.472 32.4705 292.547 32.2778C293.654 32.053 294.422 31.6836 294.852 31.1697C295.313 30.6238 295.544 29.7726 295.544 28.6164V8.28624C295.544 6.74461 295.344 5.60445 294.944 4.86576C294.575 4.12706 293.853 3.66136 292.778 3.46866C291.733 3.27595 291.21 2.95478 291.21 2.50514C291.21 2.15185 291.656 1.97521 292.547 1.97521L300.476 2.11974Z" transform="translate(849.881 487.688) scale(2)" fill="#1F2C11"/>
<path d="M336.02 17.1988L336.112 20.4747C336.112 21.0207 335.973 21.2937 335.697 21.2937C335.205 21.2937 334.852 20.9244 334.637 20.1857C334.176 18.7404 333.469 18.0177 332.516 18.0177H328.229C327.645 18.0177 327.23 18.098 326.984 18.2586C326.769 18.4192 326.662 18.7564 326.662 19.2703V28.5201C326.662 29.7084 326.892 30.5435 327.353 31.0252C327.845 31.507 328.629 31.7479 329.704 31.7479H334.498C336.127 31.7479 337.264 31.4909 337.91 30.977C338.555 30.431 339.231 29.3872 339.938 27.8456C340.122 27.4923 340.368 27.3478 340.675 27.412C341.013 27.4441 341.182 27.6047 341.182 27.8938C341.182 29.1785 340.921 30.8325 340.399 32.8559C340.276 33.4019 340.061 33.6749 339.753 33.6749L324.68 33.3858L319.378 33.6749C318.487 33.6749 318.042 33.4982 318.042 33.145C318.042 32.7595 318.595 32.4705 319.701 32.2778C320.807 32.053 321.622 31.6836 322.144 31.1697C322.697 30.6238 322.974 29.7887 322.974 28.6646V6.98549C322.974 5.86139 322.743 5.05846 322.282 4.5767C321.852 4.06283 321.084 3.70954 319.978 3.51684C318.902 3.29201 318.364 2.95478 318.364 2.50514C318.364 2.15185 318.81 1.97521 319.701 1.97521L327.86 2.11974L338.094 1.97521C338.616 1.97521 338.893 2.11974 338.924 2.40879C339.385 5.01028 339.615 6.61614 339.615 7.22637C339.615 7.80448 339.4 8.09353 338.97 8.09353C338.724 8.09353 338.555 7.93295 338.463 7.61178C338.002 6.10227 337.664 5.21905 337.449 4.96211C336.711 4.09494 335.682 3.66136 334.36 3.66136H328.321C328.014 3.66136 327.661 3.82195 327.261 4.14312C326.862 4.43218 326.662 4.78546 326.662 5.20298V15.4163C326.662 15.7053 326.739 15.9622 326.892 16.1871C327.077 16.3798 327.276 16.4761 327.492 16.4761H331.917C333.269 16.4761 334.206 15.8498 334.729 14.5973C334.79 14.4688 334.913 14.3082 335.098 14.1155C335.313 13.8907 335.466 13.7783 335.559 13.7783C335.682 13.7783 335.804 13.8586 335.927 14.0192C336.081 14.1476 336.158 14.3243 336.158 14.5491L336.02 17.1988Z" transform="translate(849.881 487.688) scale(2)" fill="#1F2C11"/>
<path d="M364.53 17.1988L364.623 20.4747C364.623 21.0207 364.484 21.2937 364.208 21.2937C363.716 21.2937 363.363 20.9244 363.147 20.1857C362.686 18.7404 361.98 18.0177 361.027 18.0177H356.74C356.156 18.0177 355.741 18.098 355.495 18.2586C355.28 18.4192 355.173 18.7564 355.173 19.2703V28.5201C355.173 29.7084 355.403 30.5435 355.864 31.0252C356.356 31.507 357.139 31.7479 358.215 31.7479H363.009C364.638 31.7479 365.775 31.4909 366.42 30.977C367.066 30.431 367.742 29.3872 368.449 27.8456C368.633 27.4923 368.879 27.3478 369.186 27.412C369.524 27.4441 369.693 27.6047 369.693 27.8938C369.693 29.1785 369.432 30.8325 368.91 32.8559C368.787 33.4019 368.572 33.6749 368.264 33.6749L353.19 33.3858L347.889 33.6749C346.998 33.6749 346.552 33.4982 346.552 33.145C346.552 32.7595 347.106 32.4705 348.212 32.2778C349.318 32.053 350.133 31.6836 350.655 31.1697C351.208 30.6238 351.485 29.7887 351.485 28.6646V6.98549C351.485 5.86139 351.254 5.05846 350.793 4.5767C350.363 4.06283 349.595 3.70954 348.488 3.51684C347.413 3.29201 346.875 2.95478 346.875 2.50514C346.875 2.15185 347.321 1.97521 348.212 1.97521L356.371 2.11974L366.605 1.97521C367.127 1.97521 367.404 2.11974 367.435 2.40879C367.896 5.01028 368.126 6.61614 368.126 7.22637C368.126 7.80448 367.911 8.09353 367.481 8.09353C367.235 8.09353 367.066 7.93295 366.974 7.61178C366.513 6.10227 366.175 5.21905 365.959 4.96211C365.222 4.09494 364.192 3.66136 362.871 3.66136H356.832C356.525 3.66136 356.171 3.82195 355.772 4.14312C355.372 4.43218 355.173 4.78546 355.173 5.20298V15.4163C355.173 15.7053 355.249 15.9622 355.403 16.1871C355.587 16.3798 355.787 16.4761 356.002 16.4761H360.428C361.78 16.4761 362.717 15.8498 363.24 14.5973C363.301 14.4688 363.424 14.3082 363.608 14.1155C363.824 13.8907 363.977 13.7783 364.069 13.7783C364.192 13.7783 364.315 13.8586 364.438 14.0192C364.592 14.1476 364.669 14.3243 364.669 14.5491L364.53 17.1988Z" transform="translate(849.881 487.688) scale(2)" fill="#1F2C11"/>
</svg>
