<svg width="732" height="1180" viewBox="0 0 732 1180" fill="none" xmlns="http://www.w3.org/2000/svg">
<g id="Group 13.1">
<g id="Group 12">
<g id="Group 11.1">
<g id="Group 2.11">
<ellipse id="Ellipse" cx="32.3861" cy="32.3192" rx="32.3861" ry="32.3192" transform="translate(384.891) scale(4)" fill="black"/>
<path id="a" fill-rule="evenodd" clip-rule="evenodd" d="M100.168 167.277C101.522 177.55 105.247 185.255 111.343 190.392C117.438 195.393 125.904 197.894 136.74 197.894C145.951 197.894 154.146 195.664 161.325 191.203C168.639 186.607 175.683 179.308 182.455 169.305L176.36 164.438C172.703 169.44 169.113 171.941 165.592 171.941C163.831 171.941 162.273 171.4 160.918 170.319C159.564 169.237 158.548 167.615 157.871 165.452C157.193 163.154 156.855 157.68 156.855 149.029V75.4268C156.855 55.0156 155.907 41.9713 154.01 36.2941C150.895 27.3726 144.055 19.127 133.489 11.5573C123.059 3.85244 108.837 0 90.8214 0C75.9215 0 61.5635 2.36554 47.7473 7.09661C33.931 11.8277 23.1625 18.6539 15.4417 27.5754C7.72083 36.3617 3.86042 45.621 3.86042 55.3535C3.86042 62.2474 6.70493 68.2626 12.394 73.3992C18.2185 78.5358 25.3975 81.1041 33.931 81.1041C41.9228 81.1041 48.3568 78.8061 53.2331 74.2102C58.2449 69.4791 60.7508 63.8019 60.7508 57.1784C60.7508 51.7714 58.1772 46.1617 53.0299 40.3493C49.2372 36.1589 47.3409 32.6444 47.3409 29.8057C47.3409 26.5616 49.1018 23.7229 52.6236 21.2898C58.3126 17.3698 65.5594 15.4098 74.3638 15.4098C79.7819 15.4098 84.6583 16.8291 88.9928 19.6677C93.3273 22.3712 96.2395 25.6154 97.7295 29.4002C99.3549 33.0499 100.168 42.0389 100.168 56.3673V89.0117V167.277Z" transform="translate(0.457031 388.424) scale(4)" fill="black"/>
</g>
</g>
</g>
<g id="noun_412530">
<g id="Group">
<path id="Vector" d="M25.0179 0L23.5623 1.72795C22.6525 3.00117 0 31.3759 0 51.2018C0 65.0254 11.1898 76.2116 25.0179 76.2116C38.8459 76.2116 50.0357 65.0254 50.0357 51.2018C50.0357 31.3759 27.3832 2.91023 26.4735 1.72795L25.0179 0Z" transform="matrix(3.1105 2.51491 -2.51965 3.10667 293.309 725.568)" fill="black"/>
</g>
</g>
</g>
</svg>
