<svg width="232" height="104" viewBox="0 0 232 104" fill="none" xmlns="http://www.w3.org/2000/svg">
<mask id="mask0" mask-type="alpha" maskUnits="userSpaceOnUse" x="0" y="52" width="53" height="52">
<path d="M0 4.80089e-09V51.062H52.5705V4.80089e-09H0H0Z" transform="translate(0 52.938)" fill="white"/>
</mask>
<g mask="url(#mask0)">
<path fill-rule="evenodd" clip-rule="evenodd" d="M8.83176 25.5303C8.83176 28.0919 9.23472 30.4604 10.0406 32.6424C10.8466 34.8195 12.0204 36.7242 13.5637 38.35C15.1036 39.9757 16.9445 41.2532 19.0831 42.1891C21.2216 43.1216 23.621 43.5904 26.2846 43.5904C28.9482 43.5904 31.3492 43.1216 33.4878 42.1891C35.6247 41.2532 37.4656 39.9757 39.0072 38.35C40.5488 36.7242 41.7226 34.8195 42.5285 32.6424C43.3345 30.4604 43.7374 28.0919 43.7374 25.5303C43.7374 22.972 43.3345 20.6019 42.5285 18.4199C41.7226 16.2412 40.5488 14.3398 39.0072 12.7123C37.4656 11.0882 35.6247 9.80907 33.4878 8.87323C31.3492 7.94068 28.9482 7.47193 26.2846 7.47193C23.621 7.47193 21.2216 7.94068 19.0831 8.87323C16.9445 9.80907 15.1036 11.0882 13.5637 12.7123C12.0204 14.3398 10.8466 16.2412 10.0406 18.4199C9.23472 20.6019 8.83176 22.972 8.83176 25.5303ZM0 25.5303C0 21.7259 0.665475 18.2664 1.9981 15.1518C3.32905 12.0389 5.15158 9.35848 7.46569 7.10881C9.77814 4.86245 12.547 3.11289 15.7708 1.86839C18.9945 0.622248 22.5007 4.80089e-09 26.2846 4.80089e-09C30.0701 4.80089e-09 33.5747 0.622248 36.8001 1.86839C40.0221 3.11289 42.7927 4.86245 45.1052 7.10881C47.4176 9.35848 49.2401 12.0389 50.5728 15.1518C51.9037 18.2664 52.5709 21.7259 52.5709 25.5303C52.5709 29.3381 51.9037 32.7959 50.5728 35.9088C49.2401 39.0234 47.4176 41.7055 45.1052 43.9535C42.7927 46.2015 40.0221 47.9494 36.8001 49.1939C33.5747 50.4401 30.0701 51.0623 26.2846 51.0623C22.5007 51.0623 18.9945 50.4401 15.7708 49.1939C12.547 47.9494 9.77814 46.2015 7.46569 43.9535C5.15158 41.7055 3.32905 39.0234 1.9981 35.9088C0.665475 32.7959 0 29.3381 0 25.5303Z" transform="translate(0 52.938)" fill="#001B4C"/>
</g>
<path fill-rule="evenodd" clip-rule="evenodd" d="M0.419685 12.7652C0.419685 10.5518 0.349457 8.47545 0.209005 6.53938C0.0685533 4.60167 -6.93965e-07 2.83725 -6.93965e-07 1.24449H7.78004C7.78004 2.55996 7.81348 3.87378 7.88538 5.1876C7.95393 6.50307 7.98904 7.85155 7.98904 9.23469H8.19972C8.75986 8.05951 9.54907 6.919 10.5657 5.80985C11.5806 4.70565 12.7895 3.72029 14.1923 2.85211C15.5935 1.98888 17.1719 1.29731 18.9242 0.777398C20.6749 0.257482 22.5693 1.89391e-06 24.6025 1.89391e-06C25.161 1.89391e-06 25.7228 0.0346621 26.2846 0.102334C26.8447 0.173306 27.4049 0.310298 27.9667 0.518264L27.44 8.71807C26.0371 8.30214 24.5657 8.09417 23.0241 8.09417C17.9779 8.09417 14.3144 9.70344 12.0371 12.9203C9.75807 16.1388 8.62108 20.549 8.62108 26.1526V49.8162H0.419685V12.7652Z" transform="translate(62.5479 52.938)" fill="#001B4C"/>
<mask id="mask1" mask-type="alpha" maskUnits="userSpaceOnUse" x="0" y="0" width="232" height="104">
<path d="M0 104H232V0H0V104Z" fill="#001B4C"/>
</mask>
<g mask="url(#mask1)">
<path fill-rule="evenodd" clip-rule="evenodd" d="M4.49036e-06 48.5733H8.2014V-1.0074e-06H4.49036e-06V48.5733Z" transform="translate(98.2471 54.1821)" fill="#001B4C"/>
<path fill-rule="evenodd" clip-rule="evenodd" d="M8.83176 25.5303C8.83176 28.0919 9.23472 30.4605 10.0406 32.6424C10.8466 34.8195 12.0204 36.7242 13.5637 38.35C15.1036 39.9757 16.9445 41.2532 19.0831 42.1891C21.22 43.1216 23.621 43.5904 26.2846 43.5904C28.9482 43.5904 31.3492 43.1216 33.4878 42.1891C35.6246 41.2532 37.4656 39.9757 39.0072 38.35C40.5488 36.7242 41.7226 34.8195 42.5285 32.6424C43.3345 30.4605 43.7374 28.0919 43.7374 25.5303C43.7374 22.972 43.3345 20.6019 42.5285 18.4199C41.7226 16.2412 40.5488 14.3398 39.0072 12.7123C37.4656 11.0882 35.6246 9.80908 33.4878 8.87323C31.3492 7.94068 28.9482 7.47193 26.2846 7.47193C23.621 7.47193 21.22 7.94068 19.0831 8.87323C16.9445 9.80908 15.1036 11.0882 13.5637 12.7123C12.0204 14.3398 10.8466 16.2412 10.0406 18.4199C9.23472 20.6019 8.83176 22.972 8.83176 25.5303ZM3.34736e-06 25.5303C3.34736e-06 21.7259 0.66547 18.2664 1.99809 15.1518C3.32904 12.0389 5.15158 9.35848 7.46569 7.10881C9.77813 4.86245 12.5471 3.11289 15.7708 1.8684C18.9945 0.622249 22.5007 -8.05921e-08 26.2846 -8.05921e-08C30.0701 -8.05921e-08 33.5747 0.622249 36.8001 1.8684C40.0221 3.11289 42.7927 4.86245 45.1052 7.10881C47.4176 9.35848 49.2401 12.0389 50.5728 15.1518C51.9037 18.2664 52.5692 21.7259 52.5692 25.5303C52.5692 29.3381 51.9037 32.7959 50.5728 35.9088C49.2401 39.0234 47.4176 41.7055 45.1052 43.9535C42.7927 46.2015 40.0221 47.9494 36.8001 49.1939C33.5747 50.4401 30.0701 51.0623 26.2846 51.0623C22.5007 51.0623 18.9945 50.4401 15.7708 49.1939C12.5471 47.9494 9.77813 46.2015 7.46569 43.9535C5.15158 41.7055 3.32904 39.0234 1.99809 35.9088C0.66547 32.7959 3.34736e-06 29.3381 3.34736e-06 25.5303Z" transform="translate(117.111 52.938)" fill="#001B4C"/>
<path fill-rule="evenodd" clip-rule="evenodd" d="M0.419675 12.7652C0.419675 10.5518 0.349468 8.47545 0.209016 6.53938C0.0685641 4.60167 1.01237e-05 2.83725 1.01237e-05 1.24449H7.77836C7.77836 2.55996 7.81348 3.87378 7.88537 5.1876C7.95393 6.50307 7.98904 7.85155 7.98904 9.23469H8.19972C8.75986 8.05951 9.54907 6.919 10.5657 5.80985C11.5823 4.70565 12.7895 3.72029 14.1923 2.85211C15.5935 1.98888 17.1719 1.29731 18.9242 0.777398C20.6749 0.257482 22.5676 1.89391e-06 24.6025 1.89391e-06C27.8262 1.89391e-06 30.6119 0.485254 32.9594 1.45246C35.307 2.42132 37.2515 3.77145 38.7949 5.49955C40.3365 7.2293 41.4768 9.32382 42.2125 11.7781C42.9482 14.2358 43.3161 16.9179 43.3161 19.8212V49.8162H35.1163V20.6514C35.1163 16.5713 34.2034 13.3511 32.3826 10.9991C30.5567 8.64875 27.7192 7.47028 23.8651 7.47028C21.2016 7.47028 18.9075 7.92087 16.978 8.82041C15.0501 9.71995 13.4734 10.9991 12.2478 12.6612C11.0205 14.3216 10.1092 16.294 9.51395 18.5767C8.91703 20.8593 8.61941 23.3879 8.61941 26.1526V49.8162H0.419675V12.7652Z" transform="translate(179.658 52.938)" fill="#001B4C"/>
<path fill-rule="evenodd" clip-rule="evenodd" d="M18.9593 0L24.8182 11.7187L37.9187 13.597L28.4399 22.7195L30.6771 35.5969L18.9593 29.518L7.24165 35.5969L9.48052 22.7195L-4.73529e-06 13.597L13.1005 11.7187L18.9593 0Z" transform="translate(194.081 -0.00146484)" fill="#001B4C"/>
<path fill-rule="evenodd" clip-rule="evenodd" d="M20.0841 0.189351C19.0056 -0.875238 13.6785 2.65689 8.18582 8.07886C2.69314 13.5008 -0.886714 18.7611 0.191756 19.824C1.2719 20.8902 6.59904 17.3565 12.0917 11.9345C17.5844 6.51251 21.1626 1.25559 20.0841 0.189351Z" transform="translate(95.5537 25.7673)" fill="#001B4C"/>
<path fill-rule="evenodd" clip-rule="evenodd" d="M1.21189e-08 2.72502L2.76222 1.88888e-08Z" transform="translate(94.8262 43.7764)" fill="white"/>
<path d="M1.21189e-08 2.72502L2.76222 1.88888e-08" transform="translate(94.8262 43.7764)" stroke="#001B4C" stroke-width="1.5" stroke-linecap="round"/>
<path d="M-7.34787e-07 5.45334C-7.34787e-07 2.43948 4.52958 -3.62664e-07 10.1276 -3.62664e-07" transform="translate(102.707 27.8528)" stroke="#001B4C" stroke-width="1.5" stroke-linecap="round"/>
<path d="M11.5238 -7.0518e-07C11.5238 9.78761 6.36883 17.7068 3.26572e-07 17.7068" transform="translate(141.317 25.5999)" stroke="#001B4C" stroke-width="1.5"/>
<path d="M9.87679 -1.06784e-06C9.87679 11.2929 5.45924 20.4302 2.44929e-06 20.4302" transform="translate(157.781 28.3232)" stroke="#001B4C" stroke-width="1.5"/>
<path d="M0 0L16.4951 2.76855" transform="translate(152.005 25.7314)" stroke="#001B4C" stroke-width="1.5" stroke-linejoin="round"/>
<path d="M-2.20436e-06 1.16858e-06L16.463 5.44838" transform="translate(141.646 43.3665)" stroke="#001B4C" stroke-width="1.5"/>
<path d="M4.93923 -1.06784e-06C4.93923 11.2929 2.73045 20.4302 -2.8575e-06 20.4302" transform="translate(162.72 28.3232)" stroke="#001B4C" stroke-width="1.5"/>
<path d="M1.6453 -1.06784e-06C1.6453 11.2929 0.909593 20.4302 -8.1643e-07 20.4302" transform="translate(166.012 28.3232)" stroke="#001B4C" stroke-width="1.5" stroke-linejoin="round"/>
<path d="M2.43283 0.726233L4.81693e-06 2.33717e-06" transform="translate(160.582 48.0715)" stroke="#001B4C" stroke-width="1.5"/>
<path d="M2.43283 0.724579L-1.87779e-06 7.25329e-07" transform="translate(163.896 48.0691)" stroke="#001B4C" stroke-width="1.5"/>
</g>
</svg>
